{
.appVersion = "848";
classes = (
{
automatic = 1;
code = "A Aacute Acircumflex Adieresis Agrave Aring Atilde AE B C Ccedilla D Eth E Eacute Ecircumflex Edieresis Egrave F G H I Iacute Icircumflex Idieresis Igrave J K L Lslash M N Ntilde O Oacute Ocircumflex Odieresis Ograve Oslash Otilde OE P Thorn Q R S Scaron T U Uacute Ucircumflex Udieresis Ugrave V W X Y Yacute Ydieresis Z Zcaron";
name = Uppercase;
}
);
copyright = "Copyright (c) 2011-2016 by Omnibus-Type (www.omnibus-type.com omnibus.type@gmail.com)";
customParameters = (
{
name = openTypeNameLicenseURL;
value = "http://scripts.sil.org/OFL";
},
{
name = openTypeNameDescription;
value = "Chivo (Goat) is a new Omnibus-Type grotesque. The strength of Chivo Black Italic make it ideal for highlights and headlines. Chivo Black Italic elegance makes it ideal for combining the strength of Chivo family and to use in texts for continuous reading. Its design detail becomes an indispensable ally for any designer.";
},
{
name = trademark;
value = "Chivo is a trademark of Omnibus-Type.";
},
{
name = openTypeNameLicense;
value = "This Font Software is licensed under the SIL Open Font License, Version 1.1. This license is available with a FAQ at: http://scripts.sil.org/OFL";
},
{
name = openTypeOS2VendorID;
value = OMNI;
},
{
name = fsType;
value = (
);
},
{
name = "Family Alignment Zones";
value = (
"{686, 12}",
"{511, 12}",
"{0, -12}"
);
},
{
name = glyphOrder;
value = (
".notdef",
space,
exclam,
quotedbl,
numbersign,
dollar,
percent,
ampersand,
quotesingle,
parenleft,
parenright,
asterisk,
plus,
comma,
hyphen,
period,
slash,
zero,
one,
two,
three,
four,
five,
six,
seven,
eight,
nine,
colon,
semicolon,
less,
equal,
greater,
question,
at,
A,
B,
C,
D,
E,
F,
G,
H,
I,
J,
K,
L,
M,
N,
O,
P,
Q,
R,
S,
T,
U,
V,
W,
X,
Y,
Z,
bracketleft,
backslash,
bracketright,
asciicircum,
underscore,
grave,
a,
b,
c,
d,
e,
f,
g,
h,
i,
j,
k,
l,
m,
n,
o,
p,
q,
r,
s,
t,
u,
v,
w,
x,
y,
z,
braceleft,
bar,
braceright,
asciitilde,
nbspace,
exclamdown,

glyphs = (
{
glyphname = .notdef;
lastChange = "2014-09-05 18:35:56 +0000";
layers = (
{
background = {
paths = (
{
closed = 1;
nodes = (
"0 700 LINE",
"0 0 LINE",
"500 0 LINE",
"500 700 LINE"
);
},
{
closed = 1;
nodes = (
"420 50 LINE",
"80 50 LINE",
"250 305 LINE"
);
},
{
closed = 1;
nodes = (
"220 350 LINE",
"50 95 LINE",
"50 605 LINE"
);
},
{
closed = 1;
nodes = (
"450 95 LINE",
"280 350 LINE",
"450 605 LINE"
);
},
{
closed = 1;
nodes = (
"250 395 LINE",
"80 650 LINE",
"420 650 LINE"
);
}
);
};
layerId = UUID0;
paths = (
{
closed = 1;
nodes = (
"0 700 LINE",
"0 0 LINE",
"500 0 LINE",
"500 700 LINE"
);
},
{
closed = 1;
nodes = (
"420 50 LINE",
"80 50 LINE",
"250 305 LINE"
);
},
{
closed = 1;
nodes = (
"220 350 LINE",
"50 95 LINE",
"50 605 LINE"
);
},
{
closed = 1;
nodes = (
"450 95 LINE",
"280 350 LINE",
"450 605 LINE"
);
},
{
closed = 1;
nodes = (
"250 395 LINE",
"80 650 LINE",
"420 650 LINE"
);
}
);
width = 500;
}
);
},
{
glyphname = exclam;
lastChange = "2014-09-05 18:35:56 +0000";
layers = (
{
background = {
paths = (
{
closed = 1;
nodes = (
"88 686 LINE",
"88 231 LINE",
"215 231 LINE",
"336 686 LINE"
);
},
{
closed = 1;
nodes = (
"51 183 LINE",
"25 0 LINE",
"216 0 LINE",
"242 183 LINE"
);
}
);
};
layerId = UUID0;
paths = (
{
closed = 1;
nodes = (
"88 686 LINE",
"88 231 LINE",
"215 231 LINE",
"336 686 LINE"
);
},
{
closed = 1;
nodes = (
"51 183 LINE",
"25 0 LINE",
"216 0 LINE",
"242 183 LINE"
);
}
);
width = 315;
}
);
unicode = 0021;
},
{
glyphname = quotedbl;
lastChange = "2014-09-05 18:35:56 +0000";
layers = (
{
background = {
paths = (
{
closed = 1;
nodes = (
"295 686 LINE",
"274 539 LINE",
"301 396 LINE",
"361 396 LINE",
"429 539 LINE",
"450 686 LINE"
);
},
{
closed = 1;
nodes = (
"92 686 LINE",
"71 539 LINE",
"98 396 LINE",
"159 396 LINE",
"226 539 LINE",
"247 686 LINE"
);
}
);
};
layerId = UUID0;
paths = (
{
closed = 1;
nodes = (
"295 686 LINE",
"274 539 LINE",
"301 396 LINE",
"361 396 LINE",
"429 539 LINE",
"450 686 LINE"
);
},
{
closed = 1;
nodes = (
"92 686 LINE",
"71 539 LINE",
"98 396 LINE",
"159 396 LINE",
"226 539 LINE",
"247 686 LINE"
);
}
);
width = 433;
}
);
leftKerningGroup = quotedbl;
unicode = 0022;
},
{
glyphname = numbersign;
lastChange = "2014-09-05 18:35:56 +0000";
layers = (
{
background = {
paths = (
{
closed = 1;
nodes = (
"525 696 LINE",
"455 502 LINE",
"345 502 LINE",
"416 696 LINE",
"297 696 LINE",
"227 502 LINE",
"100 502 LINE",
"85 394 LINE",
"191 394 LINE",
"146 273 LINE",
"24 273 LINE",
"9 166 LINE",
"106 166 LINE",
"48 0 LINE",
"165 0 LINE",
"223 166 LINE",
"335 166 LINE",
"276 0 LINE",
"392 0 LINE",
"451 166 LINE",
"582 166 LINE",
"597 273 LINE",
"493 273 LINE",
"536 394 LINE",
"646 394 LINE",
"661 502 LINE",
"570 502 LINE",
"642 696 LINE"
);
},
{
closed = 1;
nodes = (
"375 272 LINE",
"262 272 LINE",
"306 393 LINE",
"420 393 LINE"
);
}
);
};
layerId = UUID0;
paths = (
{
closed = 1;
nodes = (
"525 696 LINE",
"455 502 LINE",
"345 502 LINE",
"416 696 LINE",
"297 696 LINE",
"227 502 LINE",
"100 502 LINE",
"85 394 LINE",
"191 394 LINE",
"146 273 LINE",
"24 273 LINE",
"9 166 LINE",
"106 166 LINE",
"48 0 LINE",
"165 0 LINE",
"223 166 LINE",
"335 166 LINE",
"276 0 LINE",
"392 0 LINE",
"451 166 LINE",
"582 166 LINE",
"597 273 LINE",
"493 273 LINE",
"536 394 LINE",
"646 394 LINE",
"661 502 LINE",
"570 502 LINE",
"642 696 LINE"
);
},
{
closed = 1;
nodes = (
"375 272 LINE",
"262 272 LINE",
"306 393 LINE",
"420 393 LINE"
);
}
);
width = 661;
}
);
unicode = 0023;
},
{
glyphname = dollar;
lastChange = "2014-09-05 18:35:56 +0000";
layers = (
{
background = {
paths = (
{
closed = 1;
nodes = (
"291 757 LINE",
"294 671 LINE",
"152 660 OFFCURVE",
"63 570 OFFCURVE",
"63 461 CURVE SMOOTH",
"63 246 OFFCURVE",
"360 291 OFFCURVE",
"360 213 CURVE SMOOTH",
"360 192 OFFCURVE",
"346 169 OFFCURVE",
"269 169 CURVE SMOOTH",
"210 169 OFFCURVE",
"193 194 OFFCURVE",
"193 223 CURVE SMOOTH",
"193 226 OFFCURVE",
"194 231 OFFCURVE",
"195 238 CURVE SMOOTH",
"197 246 LINE",
"22 246 LINE",
"15 230 OFFCURVE",
"16 209 OFFCURVE",
"16 194 CURVE SMOOTH",
"16 90 OFFCURVE",
"98 33 OFFCURVE",
"203 22 CURVE",
"176 -66 LINE",
"304 -66 LINE",
"301 21 LINE",
"430 21 OFFCURVE",
"562 63 OFFCURVE",
"562 252 CURVE SMOOTH",
"562 452 OFFCURVE",
"260 410 OFFCURVE",
"260 490 CURVE SMOOTH",
"260 515 OFFCURVE",
"285 534 OFFCURVE",
"341 534 CURVE SMOOTH",
"389 534 OFFCURVE",
"408 510 OFFCURVE",
"408 483 CURVE SMOOTH",
"408 482 OFFCURVE",
"407 478 OFFCURVE",
"407 475 CURVE SMOOTH",
"407 469 LINE",
"580 469 LINE",
"582 487 OFFCURVE",
"583 501 OFFCURVE",
"583 511 CURVE SMOOTH",
"583 612 OFFCURVE",
"501 666 OFFCURVE",
"393 674 CURVE",
"419 757 LINE"
);
}
);
};
layerId = UUID0;
paths = (
{
closed = 1;
nodes = (
"291 757 LINE",
"294 671 LINE",
"152 660 OFFCURVE",
"63 570 OFFCURVE",
"63 461 CURVE SMOOTH",
"63 246 OFFCURVE",
"360 291 OFFCURVE",
"360 213 CURVE SMOOTH",
"360 192 OFFCURVE",
"346 169 OFFCURVE",
"269 169 CURVE SMOOTH",
"210 169 OFFCURVE",
"193 194 OFFCURVE",
"193 223 CURVE SMOOTH",
"193 226 OFFCURVE",
"194 231 OFFCURVE",
"195 238 CURVE SMOOTH",
"197 246 LINE",
"22 246 LINE",
"15 230 OFFCURVE",
"16 209 OFFCURVE",
"16 194 CURVE SMOOTH",
"16 90 OFFCURVE",
"98 33 OFFCURVE",
"203 22 CURVE",
"176 -66 LINE",
"304 -66 LINE",
"301 21 LINE",
"430 21 OFFCURVE",
"562 63 OFFCURVE",
"562 252 CURVE SMOOTH",
"562 452 OFFCURVE",
"260 410 OFFCURVE",
"260 490 CURVE SMOOTH",
"260 515 OFFCURVE",
"285 534 OFFCURVE",
"341 534 CURVE SMOOTH",
"389 534 OFFCURVE",
"408 510 OFFCURVE",
"408 483 CURVE SMOOTH",
"408 482 OFFCURVE",
"407 478 OFFCURVE",
"407 475 CURVE SMOOTH",
"407 469 LINE",
"580 469 LINE",
"582 487 OFFCURVE",
"583 501 OFFCURVE",
"583 511 CURVE SMOOTH",
"583 612 OFFCURVE",
"501 666 OFFCURVE",
"393 674 CURVE",
"419 757 LINE"
);
}
);
width = 608;
}
);
unicode = 0024;
},
{
glyphname = percent;
lastChange = "2014-09-05 18:35:56 +0000";
layers = (
{
background = {
paths = (
{
closed = 1;
nodes = (
"576 686 LINE",
"60 0 LINE",
"155 0 LINE",
"669 686 LINE"
);
},
{
closed = 1;
nodes = (
"227 614 OFFCURVE",
"239 600 OFFCURVE",
"239 581 CURVE",
"238 574 OFFCURVE",
"235 542 OFFCURVE",
"230 510 CURVE SMOOTH",
"221 448 LINE SMOOTH",
"218 425 OFFCURVE",
"200 409 OFFCURVE",
"179 409 CURVE SMOOTH",
"160 409 OFFCURVE",
"146 423 OFFCURVE",
"146 442 CURVE SMOOTH",
"146 445 OFFCURVE",
"146 447 OFFCURVE",
"165 575 CURVE SMOOTH",
"168 598 OFFCURVE",
"188 614 OFFCURVE",
"208 614 CURVE SMOOTH"
);
},
{
closed = 1;
nodes = (
"207 685 LINE SMOOTH",
"129 685 OFFCURVE",
"75 630 OFFCURVE",
"66 562 CURVE SMOOTH",
"52 460 LINE",
"51 457 OFFCURVE",
"51 454 OFFCURVE",
"51 451 CURVE SMOOTH",
"51 442 LINE SMOOTH",
"51 382 OFFCURVE",
"95 337 OFFCURVE",
"158 337 CURVE SMOOTH",
"180 337 LINE SMOOTH",
"260 337 OFFCURVE",
"310 392 OFFCURVE",
"321 460 CURVE",
"335 562 LINE",
"336 565 OFFCURVE",
"336 568 OFFCURVE",
"336 571 CURVE SMOOTH",
"336 580 LINE SMOOTH",
"336 640 OFFCURVE",
"292 685 OFFCURVE",
"229 685 CURVE SMOOTH"
);
},
{
closed = 1;
nodes = (
"570 276 OFFCURVE",
"582 262 OFFCURVE",
"582 243 CURVE",
"581 236 OFFCURVE",
"578 204 OFFCURVE",
"573 172 CURVE SMOOTH",
"564 110 LINE SMOOTH",
"561 87 OFFCURVE",
"543 71 OFFCURVE",
"522 71 CURVE SMOOTH",
"503 71 OFFCURVE",
"489 85 OFFCURVE",
"489 104 CURVE SMOOTH",
"489 107 OFFCURVE",
"489 109 OFFCURVE",
"508 237 CURVE SMOOTH",
"511 260 OFFCURVE",
"531 276 OFFCURVE",
"551 276 CURVE SMOOTH"
);
},
{
closed = 1;
nodes = (
"550 347 LINE SMOOTH",
"472 347 OFFCURVE",
"418 292 OFFCURVE",
"409 224 CURVE SMOOTH",
"395 122 LINE",
"394 119 OFFCURVE",
"394 116 OFFCURVE",
"394 113 CURVE SMOOTH",
"394 104 LINE SMOOTH",
"394 44 OFFCURVE",
"438 -1 OFFCURVE",
"501 -1 CURVE SMOOTH",
"523 -1 LINE SMOOTH",
"603 -1 OFFCURVE",
"653 54 OFFCURVE",
"664 122 CURVE",
"678 224 LINE",
"679 227 OFFCURVE",
"679 230 OFFCURVE",
"679 233 CURVE SMOOTH",
"679 242 LINE SMOOTH",
"679 302 OFFCURVE",
"635 347 OFFCURVE",
"572 347 CURVE SMOOTH"
);
}
);
};
layerId = UUID0;
paths = (
{
closed = 1;
nodes = (
"576 686 LINE",
"60 0 LINE",
"155 0 LINE",
"669 686 LINE"
);
},
{
closed = 1;
nodes = (
"227 614 OFFCURVE",
"239 600 OFFCURVE",
"239 581 CURVE",
"238 574 OFFCURVE",
"235 542 OFFCURVE",
"230 510 CURVE SMOOTH",
"221 448 LINE SMOOTH",
"218 425 OFFCURVE",
"200 409 OFFCURVE",
"179 409 CURVE SMOOTH",
"160 409 OFFCURVE",
"146 423 OFFCURVE",
"146 442 CURVE SMOOTH",
"146 445 OFFCURVE",
"146 447 OFFCURVE",
"165 575 CURVE SMOOTH",
"168 598 OFFCURVE",
"188 614 OFFCURVE",
"208 614 CURVE SMOOTH"
);
},
{
closed = 1;
nodes = (
"207 685 LINE SMOOTH",
"129 685 OFFCURVE",
"75 630 OFFCURVE",
"66 562 CURVE SMOOTH",
"52 460 LINE",
"51 457 OFFCURVE",
"51 454 OFFCURVE",
"51 451 CURVE SMOOTH",
"51 442 LINE SMOOTH",
"51 382 OFFCURVE",
"95 337 OFFCURVE",
"158 337 CURVE SMOOTH",
"180 337 LINE SMOOTH",
"260 337 OFFCURVE",
"310 392 OFFCURVE",
"321 460 CURVE",
"335 562 LINE",
"336 565 OFFCURVE",
"336 568 OFFCURVE",
"336 571 CURVE SMOOTH",
"336 580 LINE SMOOTH",
"336 640 OFFCURVE",
"292 685 OFFCURVE",
"229 685 CURVE SMOOTH"
);
},
{
closed = 1;
nodes = (
"570 276 OFFCURVE",
"582 262 OFFCURVE",
"582 243 CURVE",
"581 236 OFFCURVE",
"578 204 OFFCURVE",
"573 172 CURVE SMOOTH",
"564 110 LINE SMOOTH",
"561 87 OFFCURVE",
"543 71 OFFCURVE",
"522 71 CURVE SMOOTH",
"503 71 OFFCURVE",
"489 85 OFFCURVE",
"489 104 CURVE SMOOTH",
"489 107 OFFCURVE",
"489 109 OFFCURVE",
"508 237 CURVE SMOOTH",
"511 260 OFFCURVE",
"531 276 OFFCURVE",
"551 276 CURVE SMOOTH"
);
},
{
closed = 1;
nodes = (
"550 347 LINE SMOOTH",
"472 347 OFFCURVE",
"418 292 OFFCURVE",
"409 224 CURVE SMOOTH",
"395 122 LINE",
"394 119 OFFCURVE",
"394 116 OFFCURVE",
"394 113 CURVE SMOOTH",
"394 104 LINE SMOOTH",
"394 44 OFFCURVE",
"438 -1 OFFCURVE",
"501 -1 CURVE SMOOTH",
"523 -1 LINE SMOOTH",
"603 -1 OFFCURVE",
"653 54 OFFCURVE",
"664 122 CURVE",
"678 224 LINE",
"679 227 OFFCURVE",
"679 230 OFFCURVE",
"679 233 CURVE SMOOTH",
"679 242 LINE SMOOTH",
"679 302 OFFCURVE",
"635 347 OFFCURVE",
"572 347 CURVE SMOOTH"
);
}
);
width = 715;
}
);
unicode = 0025;
},
{
glyphname = ampersand;
lastChange = "2014-09-05 18:35:56 +0000";
layers = (
{
background = {
paths = (
{
closed = 1;
nodes = (
"203 696 OFFCURVE",
"77 624 OFFCURVE",
"77 479 CURVE SMOOTH",
"77 423 OFFCURVE",
"104 377 OFFCURVE",
"160 358 CURVE",
"65 335 OFFCURVE",
"12 270 OFFCURVE",
"12 166 CURVE SMOOTH",
"12 38 OFFCURVE",
"129 0 OFFCURVE",
"259 0 CURVE SMOOTH",
"578 0 LINE",
"617 279 LINE",
"697 279 LINE",
"717 421 LINE",
"637 421 LINE",
"653 540 LINE",
"516 540 LINE",
"446 421 LINE",
"325 421 LINE SMOOTH",
"283 421 OFFCURVE",
"269 451 OFFCURVE",
"269 475 CURVE SMOOTH",
"269 522 OFFCURVE",
"299 548 OFFCURVE",
"352 548 CURVE SMOOTH",
"363 548 OFFCURVE",
"371 546 OFFCURVE",
"380 543 CURVE",
"401 693 LINE",
"385 695 OFFCURVE",
"368 696 OFFCURVE",
"351 696 CURVE SMOOTH"
);
},
{
closed = 1;
nodes = (
"399 138 LINE",
"290 138 LINE SMOOTH",
"249 138 OFFCURVE",
"214 156 OFFCURVE",
"214 199 CURVE SMOOTH",
"214 227 OFFCURVE",
"225 279 OFFCURVE",
"305 279 CURVE SMOOTH",
"419 279 LINE"
);
}
);
};
layerId = UUID0;
paths = (
{
closed = 1;
nodes = (
"203 696 OFFCURVE",
"77 624 OFFCURVE",
"77 479 CURVE SMOOTH",
"77 423 OFFCURVE",
"104 377 OFFCURVE",
"160 358 CURVE",
"65 335 OFFCURVE",
"12 270 OFFCURVE",
"12 166 CURVE SMOOTH",
"12 38 OFFCURVE",
"129 0 OFFCURVE",
"259 0 CURVE SMOOTH",
"578 0 LINE",
"617 279 LINE",
"697 279 LINE",
"717 421 LINE",
"637 421 LINE",
"653 540 LINE",
"516 540 LINE",
"446 421 LINE",
"325 421 LINE SMOOTH",
"283 421 OFFCURVE",
"269 451 OFFCURVE",
"269 475 CURVE SMOOTH",
"269 522 OFFCURVE",
"299 548 OFFCURVE",
"352 548 CURVE SMOOTH",
"363 548 OFFCURVE",
"371 546 OFFCURVE",
"380 543 CURVE",
"401 693 LINE",
"385 695 OFFCURVE",
"368 696 OFFCURVE",
"351 696 CURVE SMOOTH"
);
},
{
closed = 1;
nodes = (
"399 138 LINE",
"290 138 LINE SMOOTH",
"249 138 OFFCURVE",
"214 156 OFFCURVE",
"214 199 CURVE SMOOTH",
"214 227 OFFCURVE",
"225 279 OFFCURVE",
"305 279 CURVE SMOOTH",
"419 279 LINE"
);
}
);
width = 709;
}
);
unicode = 0026;
},
{
glyphname = quotesingle;
lastChange = "2014-09-05 18:35:56 +0000";
layers = (
{
background = {
paths = (
{
closed = 1;
nodes = (
"92 686 LINE",
"71 539 LINE",
"98 396 LINE",
"159 396 LINE",
"226 539 LINE",
"247 686 LINE"
);
}
);
};
layerId = UUID0;
paths = (
{
closed = 1;
nodes = (
"92 686 LINE",
"71 539 LINE",
"98 396 LINE",
"159 396 LINE",
"226 539 LINE",
"247 686 LINE"
);
}
);
width = 230;
}
);
leftKerningGroup = quotedbl;
unicode = 0027;
},
{
glyphname = parenleft;
lastChange = "2014-09-05 18:35:56 +0000";
layers = (
{
background = {
paths = (
{
closed = 1;
nodes = (
"244 686 LINE",
"103 548 OFFCURVE",
"19 359 OFFCURVE",
"19 174 CURVE SMOOTH",
"19 50 OFFCURVE",
"56 -65 OFFCURVE",
"125 -158 CURVE",
"233 -158 LINE",
"194 -70 OFFCURVE",
"175 47 OFFCURVE",
"175 158 CURVE SMOOTH",
"175 340 OFFCURVE",
"242 528 OFFCURVE",
"352 686 CURVE"
);
}
);
};
layerId = UUID0;
paths = (
{
closed = 1;
nodes = (
"244 686 LINE",
"103 548 OFFCURVE",
"19 359 OFFCURVE",
"19 174 CURVE SMOOTH",
"19 50 OFFCURVE",
"56 -65 OFFCURVE",
"125 -158 CURVE",
"233 -158 LINE",
"194 -70 OFFCURVE",
"175 47 OFFCURVE",
"175 158 CURVE SMOOTH",
"175 340 OFFCURVE",
"242 528 OFFCURVE",
"352 686 CURVE"
);
}
);
width = 311;
}
);
unicode = 0028;
},
{
glyphname = parenright;
lastChange = "2014-09-05 18:35:56 +0000";
layers = (
{
background = {
paths = (
{
closed = 1;
nodes = (
"71 686 LINE",
"108 598 OFFCURVE",
"129 479 OFFCURVE",
"129 368 CURVE SMOOTH",
"129 187 OFFCURVE",
"60 -5 OFFCURVE",
"-48 -158 CURVE",
"60 -158 LINE",
"200 -20 OFFCURVE",
"285 165 OFFCURVE",
"285 351 CURVE SMOOTH",
"285 476 OFFCURVE",
"250 591 OFFCURVE",
"179 686 CURVE"
);
}
);
};
layerId = UUID0;
paths = (
{
closed = 1;
nodes = (
"71 686 LINE",
"108 598 OFFCURVE",
"129 479 OFFCURVE",
"129 368 CURVE SMOOTH",
"129 187 OFFCURVE",
"60 -5 OFFCURVE",
"-48 -158 CURVE",
"60 -158 LINE",
"200 -20 OFFCURVE",
"285 165 OFFCURVE",
"285 351 CURVE SMOOTH",
"285 476 OFFCURVE",
"250 591 OFFCURVE",
"179 686 CURVE"
);
}
);
width = 312;
}
);
unicode = 0029;
},
{
glyphname = asterisk;
lastChange = "2014-09-05 18:35:56 +0000";
layers = (
{
background = {
paths = (
{
closed = 1;
nodes = (
"247 686 LINE",
"247 533 LINE",
"107 593 LINE",
"53 483 LINE",
"195 448 LINE",
"79 335 LINE",
"169 265 LINE",
"265 396 LINE",
"326 265 LINE",
"436 335 LINE",
"352 448 LINE",
"507 483 LINE",
"487 593 LINE",
"331 533 LINE",
"367 686 LINE"
);
}
);
};
layerId = UUID0;
paths = (
{
closed = 1;
nodes = (
"247 686 LINE",
"247 533 LINE",
"107 593 LINE",
"53 483 LINE",
"195 448 LINE",
"79 335 LINE",
"169 265 LINE",
"265 396 LINE",
"326 265 LINE",
"436 335 LINE",
"352 448 LINE",
"507 483 LINE",
"487 593 LINE",
"331 533 LINE",
"367 686 LINE"
);
}
);
width = 506;
}
);
unicode = 002A;
},
{
glyphname = plus;
lastChange = "2014-09-05 18:35:56 +0000";
layers = (
{
background = {
paths = (
{
closed = 1;
nodes = (
"274 512 LINE",
"247 320 LINE",
"55 320 LINE",
"38 192 LINE",
"230 192 LINE",
"203 0 LINE",
"331 0 LINE",
"358 192 LINE",
"550 192 LINE",
"567 320 LINE",
"375 320 LINE",
"402 512 LINE"
);
}
);
};
layerId = UUID0;
paths = (
{
closed = 1;
nodes = (
"274 512 LINE",
"247 320 LINE",
"55 320 LINE",
"38 192 LINE",
"230 192 LINE",
"203 0 LINE",
"331 0 LINE",
"358 192 LINE",
"550 192 LINE",
"567 320 LINE",
"375 320 LINE",
"402 512 LINE"
);
}
);
width = 615;
}
);
unicode = 002B;
},
{
glyphname = comma;
lastChange = "2014-09-05 18:35:56 +0000";
layers = (
{
background = {
paths = (
{
closed = 1;
nodes = (
"33 183 LINE",
"7 0 LINE",
"91 0 LINE",
"31 -165 LINE",
"125 -165 LINE",
"201 22 LINE",
"224 183 LINE"
);
}
);
};
layerId = UUID0;
paths = (
{
closed = 1;
nodes = (
"33 183 LINE",
"7 0 LINE",
"91 0 LINE",
"31 -165 LINE",
"125 -165 LINE",
"201 22 LINE",
"224 183 LINE"
);
}
);
width = 286;
}
);
leftKerningGroup = comma;
rightKerningGroup = comma;
unicode = 002C;
},
{
glyphname = hyphen;
lastChange = "2014-09-05 18:35:56 +0000";
layers = (
{
background = {
paths = (
{
closed = 1;
nodes = (
"57 354 LINE",
"35 196 LINE",
"288 196 LINE",
"311 354 LINE"
);
}
);
};
layerId = UUID0;
paths = (
{
closed = 1;
nodes = (
"57 354 LINE",
"35 196 LINE",
"288 196 LINE",
"311 354 LINE"
);
}
);
width = 351;
}
);
leftKerningGroup = hyphen;
rightKerningGroup = hyphen;
unicode = 002D;
},
{
glyphname = period;
lastChange = "2014-09-05 18:35:56 +0000";
layers = (
{
background = {
paths = (
{
closed = 1;
nodes = (
"33 183 LINE",
"8 0 LINE",
"199 0 LINE",
"224 183 LINE"
);
}
);
};
layerId = UUID0;
paths = (
{
closed = 1;
nodes = (
"33 183 LINE",
"8 0 LINE",
"199 0 LINE",
"224 183 LINE"
);
}
);
width = 287;
}
);
leftKerningGroup = comma;
rightKerningGroup = comma;
unicode = 002E;
},
{
glyphname = slash;
lastChange = "2014-09-05 18:35:56 +0000";
layers = (
{
background = {
paths = (
{
closed = 1;
nodes = (
"446 686 LINE",
"-44 -171 LINE",
"88 -171 LINE",
"577 686 LINE"
);
}
);
};
layerId = UUID0;
paths = (
{
closed = 1;
nodes = (
"446 686 LINE",
"-44 -171 LINE",
"88 -171 LINE",
"577 686 LINE"
);
}
);
width = 541;
}
);
unicode = 002F;
},
{
glyphname = zero;
lastChange = "2014-09-05 18:35:56 +0000";
layers = (
{
background = {
paths = (
{
closed = 1;
nodes = (
"342 696 LINE SMOOTH",
"203 696 OFFCURVE",
"78 598 OFFCURVE",
"57 446 CURVE SMOOTH",
"28 240 LINE SMOOTH",
"26 228 OFFCURVE",
"25 216 OFFCURVE",
"25 205 CURVE SMOOTH",
"25 84 OFFCURVE",
"118 -10 OFFCURVE",
"243 -10 CURVE SMOOTH",
"288 -10 LINE SMOOTH",
"447 -10 OFFCURVE",
"553 101 OFFCURVE",
"573 240 CURVE SMOOTH",
"602 446 LINE SMOOTH",
"604 459 OFFCURVE",
"603 469 OFFCURVE",
"604 480 CURVE",
"604 603 OFFCURVE",
"513 696 OFFCURVE",
"387 696 CURVE SMOOTH"
);
},
{
closed = 1;
nodes = (
"382 552 OFFCURVE",
"409 523 OFFCURVE",
"409 484 CURVE",
"372 215 LINE SMOOTH",
"366 171 OFFCURVE",
"337 135 OFFCURVE",
"285 135 CURVE SMOOTH",
"248 135 OFFCURVE",
"222 163 OFFCURVE",
"222 202 CURVE SMOOTH",
"222 207 OFFCURVE",
"222 212 OFFCURVE",
"223 215 CURVE",
"259 472 LINE SMOOTH",
"267 529 OFFCURVE",
"302 552 OFFCURVE",
"345 552 CURVE SMOOTH"
);
}
);
};
layerId = UUID0;
paths = (
{
closed = 1;
nodes = (
"342 696 LINE SMOOTH",
"203 696 OFFCURVE",
"78 598 OFFCURVE",
"57 446 CURVE SMOOTH",
"28 240 LINE SMOOTH",
"26 228 OFFCURVE",
"25 216 OFFCURVE",
"25 205 CURVE SMOOTH",
"25 84 OFFCURVE",
"118 -10 OFFCURVE",
"243 -10 CURVE SMOOTH",
"288 -10 LINE SMOOTH",
"447 -10 OFFCURVE",
"553 101 OFFCURVE",
"573 240 CURVE SMOOTH",
"602 446 LINE SMOOTH",
"604 459 OFFCURVE",
"603 469 OFFCURVE",
"604 480 CURVE",
"604 603 OFFCURVE",
"513 696 OFFCURVE",
"387 696 CURVE SMOOTH"
);
},
{
closed = 1;
nodes = (
"382 552 OFFCURVE",
"409 523 OFFCURVE",
"409 484 CURVE",
"372 215 LINE SMOOTH",
"366 171 OFFCURVE",
"337 135 OFFCURVE",
"285 135 CURVE SMOOTH",
"248 135 OFFCURVE",
"222 163 OFFCURVE",
"222 202 CURVE SMOOTH",
"222 207 OFFCURVE",
"222 212 OFFCURVE",
"223 215 CURVE",
"259 472 LINE SMOOTH",
"267 529 OFFCURVE",
"302 552 OFFCURVE",
"345 552 CURVE SMOOTH"
);
}
);
width = 615;
}
);
unicode = 0030;
},
{
glyphname = one;
lastChange = "2014-09-05 18:35:56 +0000";
layers = (
{
background = {
paths = (
{
closed = 1;
nodes = (
"411 696 LINE",
"331 645 OFFCURVE",
"205 593 OFFCURVE",
"115 588 CURVE",
"99 473 LINE",
"251 473 LINE",
"206 153 LINE",
"54 153 LINE",
"33 0 LINE",
"527 0 LINE",
"548 153 LINE",
"402 153 LINE",
"478 696 LINE"
);
}
);
};
layerId = UUID0;
paths = (
{
closed = 1;
nodes = (
"411 696 LINE",
"331 645 OFFCURVE",
"205 593 OFFCURVE",
"115 588 CURVE",
"99 473 LINE",
"251 473 LINE",
"206 153 LINE",
"54 153 LINE",
"33 0 LINE",
"527 0 LINE",
"548 153 LINE",
"402 153 LINE",
"478 696 LINE"
);
}
);
width = 615;
}
);
unicode = 0031;
},
{
glyphname = two;
lastChange = "2014-09-05 18:35:56 +0000";
layers = (
{
background = {
paths = (
{
closed = 1;
nodes = (
"350 696 LINE SMOOTH",
"187 696 OFFCURVE",
"71 597 OFFCURVE",
"60 442 CURVE",
"236 442 LINE",
"240 470 LINE SMOOTH",
"246 510 OFFCURVE",
"280 540 OFFCURVE",
"319 540 CURVE SMOOTH",
"332 540 LINE SMOOTH",
"368 540 OFFCURVE",
"393 514 OFFCURVE",
"393 479 CURVE SMOOTH",
"393 410 OFFCURVE",
"355 388 OFFCURVE",
"104 209 CURVE SMOOTH",
"36 161 OFFCURVE",
"11 111 OFFCURVE",
"1 36 CURVE SMOOTH",
"-4 0 LINE",
"530 0 LINE",
"553 168 LINE",
"290 168 LINE",
"427 256 OFFCURVE",
"597 329 OFFCURVE",
"597 508 CURVE SMOOTH",
"597 620 OFFCURVE",
"516 696 OFFCURVE",
"381 696 CURVE SMOOTH"
);
}
);
};
layerId = UUID0;
paths = (
{
closed = 1;
nodes = (
"350 696 LINE SMOOTH",
"187 696 OFFCURVE",
"71 597 OFFCURVE",
"60 442 CURVE",
"236 442 LINE",
"240 470 LINE SMOOTH",
"246 510 OFFCURVE",
"280 540 OFFCURVE",
"319 540 CURVE SMOOTH",
"332 540 LINE SMOOTH",
"368 540 OFFCURVE",
"393 514 OFFCURVE",
"393 479 CURVE SMOOTH",
"393 410 OFFCURVE",
"355 388 OFFCURVE",
"104 209 CURVE SMOOTH",
"36 161 OFFCURVE",
"11 111 OFFCURVE",
"1 36 CURVE SMOOTH",
"-4 0 LINE",
"530 0 LINE",
"553 168 LINE",
"290 168 LINE",
"427 256 OFFCURVE",
"597 329 OFFCURVE",
"597 508 CURVE SMOOTH",
"597 620 OFFCURVE",
"516 696 OFFCURVE",
"381 696 CURVE SMOOTH"
);
}
);
width = 615;
}
);
unicode = 0032;
},
{
glyphname = three;
lastChange = "2014-09-05 18:35:56 +0000";
layers = (
{
background = {
paths = (
{
closed = 1;
nodes = (
"351 696 LINE SMOOTH",
"198 696 OFFCURVE",
"71 608 OFFCURVE",
"71 484 CURVE",
"238 484 LINE",
"243 519 OFFCURVE",
"278 547 OFFCURVE",
"317 547 CURVE SMOOTH",
"335 547 LINE SMOOTH",
"371 547 OFFCURVE",
"396 523 OFFCURVE",
"396 492 CURVE SMOOTH",
"396 437 OFFCURVE",
"354 412 OFFCURVE",
"316 412 CURVE SMOOTH",
"228 412 LINE",
"211 289 LINE",
"315 289 LINE SMOOTH",
"350 289 OFFCURVE",
"376 270 OFFCURVE",
"376 231 CURVE SMOOTH",
"376 175 OFFCURVE",
"341 139 OFFCURVE",
"284 139 CURVE SMOOTH",
"257 139 LINE SMOOTH",
"206 139 OFFCURVE",
"186 163 OFFCURVE",
"186 196 CURVE SMOOTH",
"186 201 OFFCURVE",
"186 206 OFFCURVE",
"187 209 CURVE",
"12 209 LINE",
"9 192 LINE",
"8 181 OFFCURVE",
"7 172 OFFCURVE",
"7 161 CURVE SMOOTH",
"7 64 OFFCURVE",
"85 -10 OFFCURVE",
"240 -10 CURVE SMOOTH",
"282 -10 LINE SMOOTH",
"440 -10 OFFCURVE",
"572 72 OFFCURVE",
"572 221 CURVE SMOOTH",
"572 289 OFFCURVE",
"539 336 OFFCURVE",
"479 359 CURVE",
"544 385 OFFCURVE",
"596 454 OFFCURVE",
"596 532 CURVE SMOOTH",
"596 623 OFFCURVE",
"514 696 OFFCURVE",
"381 696 CURVE SMOOTH"
);
}
);
};
layerId = UUID0;
paths = (
{
closed = 1;
nodes = (
"351 696 LINE SMOOTH",
"198 696 OFFCURVE",
"71 608 OFFCURVE",
"71 484 CURVE",
"238 484 LINE",
"243 519 OFFCURVE",
"278 547 OFFCURVE",
"317 547 CURVE SMOOTH",
"335 547 LINE SMOOTH",
"371 547 OFFCURVE",
"396 523 OFFCURVE",
"396 492 CURVE SMOOTH",
"396 437 OFFCURVE",
"354 412 OFFCURVE",
"316 412 CURVE SMOOTH",
"228 412 LINE",
"211 289 LINE",
"315 289 LINE SMOOTH",
"350 289 OFFCURVE",
"376 270 OFFCURVE",
"376 231 CURVE SMOOTH",
"376 175 OFFCURVE",
"341 139 OFFCURVE",
"284 139 CURVE SMOOTH",
"257 139 LINE SMOOTH",
"206 139 OFFCURVE",
"186 163 OFFCURVE",
"186 196 CURVE SMOOTH",
"186 201 OFFCURVE",
"186 206 OFFCURVE",
"187 209 CURVE",
"12 209 LINE",
"9 192 LINE",
"8 181 OFFCURVE",
"7 172 OFFCURVE",
"7 161 CURVE SMOOTH",
"7 64 OFFCURVE",
"85 -10 OFFCURVE",
"240 -10 CURVE SMOOTH",
"282 -10 LINE SMOOTH",
"440 -10 OFFCURVE",
"572 72 OFFCURVE",
"572 221 CURVE SMOOTH",
"572 289 OFFCURVE",
"539 336 OFFCURVE",
"479 359 CURVE",
"544 385 OFFCURVE",
"596 454 OFFCURVE",
"596 532 CURVE SMOOTH",
"596 623 OFFCURVE",
"514 696 OFFCURVE",
"381 696 CURVE SMOOTH"
);
}
);
width = 615;
}
);
unicode = 0033;
},
{
glyphname = four;
lastChange = "2014-09-05 18:35:56 +0000";
layers = (
{
background = {
paths = (
{
closed = 1;
nodes = (
"234 696 LINE",
"202 599 OFFCURVE",
"83 388 OFFCURVE",
"23 300 CURVE",
"3 151 LINE",
"282 151 LINE",
"261 0 LINE",
"449 0 LINE",
"470 151 LINE",
"568 151 LINE",
"588 298 LINE",
"490 298 LINE",
"537 630 LINE",
"454 630 LINE",
"432 573 OFFCURVE",
"358 449 OFFCURVE",
"317 400 CURVE",
"302 298 LINE",
"152 298 LINE",
"235 381 OFFCURVE",
"383 591 OFFCURVE",
"411 696 CURVE"
);
}
);
};
layerId = UUID0;
paths = (
{
closed = 1;
nodes = (
"234 696 LINE",
"202 599 OFFCURVE",
"83 388 OFFCURVE",
"23 300 CURVE",
"3 151 LINE",
"282 151 LINE",
"261 0 LINE",
"449 0 LINE",
"470 151 LINE",
"568 151 LINE",
"588 298 LINE",
"490 298 LINE",
"537 630 LINE",
"454 630 LINE",
"432 573 OFFCURVE",
"358 449 OFFCURVE",
"317 400 CURVE",
"302 298 LINE",
"152 298 LINE",
"235 381 OFFCURVE",
"383 591 OFFCURVE",
"411 696 CURVE"
);
}
);
width = 615;
}
);
unicode = 0034;
},
{
glyphname = five;
lastChange = "2014-09-05 18:35:56 +0000";
layers = (
{
background = {
paths = (
{
closed = 1;
nodes = (
"143 686 LINE",
"61 303 LINE",
"215 281 LINE",
"229 289 OFFCURVE",
"248 315 OFFCURVE",
"291 315 CURVE SMOOTH",
"305 315 LINE SMOOTH",
"345 315 OFFCURVE",
"375 285 OFFCURVE",
"375 246 CURVE SMOOTH",
"375 179 OFFCURVE",
"325 144 OFFCURVE",
"281 144 CURVE SMOOTH",
"264 144 LINE SMOOTH",
"224 144 OFFCURVE",
"194 174 OFFCURVE",
"194 213 CURVE SMOOTH",
"194 218 OFFCURVE",
"194 221 OFFCURVE",
"195 224 CURVE",
"19 224 LINE",
"18 219 OFFCURVE",
"17 213 OFFCURVE",
"17 208 CURVE SMOOTH",
"17 191 LINE SMOOTH",
"17 77 OFFCURVE",
"99 -10 OFFCURVE",
"247 -10 CURVE SMOOTH",
"277 -10 LINE SMOOTH",
"441 -10 OFFCURVE",
"573 105 OFFCURVE",
"573 269 CURVE SMOOTH",
"573 389 OFFCURVE",
"500 459 OFFCURVE",
"380 459 CURVE SMOOTH",
"314 459 OFFCURVE",
"271 432 OFFCURVE",
"246 414 CURVE",
"269 516 LINE",
"560 516 LINE",
"583 686 LINE"
);
}
);
};
layerId = UUID0;
paths = (
{
closed = 1;
nodes = (
"143 686 LINE",
"61 303 LINE",
"215 281 LINE",
"229 289 OFFCURVE",
"248 315 OFFCURVE",
"291 315 CURVE SMOOTH",
"305 315 LINE SMOOTH",
"345 315 OFFCURVE",
"375 285 OFFCURVE",
"375 246 CURVE SMOOTH",
"375 179 OFFCURVE",
"325 144 OFFCURVE",
"281 144 CURVE SMOOTH",
"264 144 LINE SMOOTH",
"224 144 OFFCURVE",
"194 174 OFFCURVE",
"194 213 CURVE SMOOTH",
"194 218 OFFCURVE",
"194 221 OFFCURVE",
"195 224 CURVE",
"19 224 LINE",
"18 219 OFFCURVE",
"17 213 OFFCURVE",
"17 208 CURVE SMOOTH",
"17 191 LINE SMOOTH",
"17 77 OFFCURVE",
"99 -10 OFFCURVE",
"247 -10 CURVE SMOOTH",
"277 -10 LINE SMOOTH",
"441 -10 OFFCURVE",
"573 105 OFFCURVE",
"573 269 CURVE SMOOTH",
"573 389 OFFCURVE",
"500 459 OFFCURVE",
"380 459 CURVE SMOOTH",
"314 459 OFFCURVE",
"271 432 OFFCURVE",
"246 414 CURVE",
"269 516 LINE",
"560 516 LINE",
"583 686 LINE"
);
}
);
width = 615;
}
);
unicode = 0035;
},
{
glyphname = six;
lastChange = "2014-09-05 18:35:56 +0000";
layers = (
{
background = {
paths = (
{
closed = 1;
nodes = (
"354 696 LINE SMOOTH",
"211 696 OFFCURVE",
"78 590 OFFCURVE",
"59 446 CURVE",
"27 228 OFFCURVE",
"28 220 OFFCURVE",
"28 205 CURVE SMOOTH",
"28 80 OFFCURVE",
"123 -10 OFFCURVE",
"255 -10 CURVE SMOOTH",
"283 -10 LINE SMOOTH",
"437 -10 OFFCURVE",
"577 93 OFFCURVE",
"577 265 CURVE SMOOTH",
"577 379 OFFCURVE",
"493 437 OFFCURVE",
"380 437 CURVE SMOOTH",
"343 437 OFFCURVE",
"288 422 OFFCURVE",
"247 385 CURVE",
"259 471 LINE",
"266 512 OFFCURVE",
"306 546 OFFCURVE",
"347 546 CURVE SMOOTH",
"353 546 LINE SMOOTH",
"388 546 OFFCURVE",
"413 522 OFFCURVE",
"414 487 CURVE",
"413 466 LINE",
"591 466 LINE",
"593 479 OFFCURVE",
"594 492 OFFCURVE",
"594 505 CURVE SMOOTH",
"594 631 OFFCURVE",
"499 696 OFFCURVE",
"382 696 CURVE SMOOTH"
);
},
{
closed = 1;
nodes = (
"356 321 OFFCURVE",
"385 297 OFFCURVE",
"385 256 CURVE",
"378 205 LINE",
"375 164 OFFCURVE",
"334 130 OFFCURVE",
"293 130 CURVE SMOOTH",
"287 130 LINE SMOOTH",
"248 130 OFFCURVE",
"221 158 OFFCURVE",
"221 194 CURVE SMOOTH",
"221 199 LINE SMOOTH",
"221 201 OFFCURVE",
"221 203 OFFCURVE",
"222 205 CURVE",
"228 246 LINE SMOOTH",
"234 287 OFFCURVE",
"273 321 OFFCURVE",
"313 321 CURVE SMOOTH",
"319 321 LINE SMOOTH"
);
}
);
};
layerId = UUID0;
paths = (
{
closed = 1;
nodes = (
"354 696 LINE SMOOTH",
"211 696 OFFCURVE",
"78 590 OFFCURVE",
"59 446 CURVE",
"27 228 OFFCURVE",
"28 220 OFFCURVE",
"28 205 CURVE SMOOTH",
"28 80 OFFCURVE",
"123 -10 OFFCURVE",
"255 -10 CURVE SMOOTH",
"283 -10 LINE SMOOTH",
"437 -10 OFFCURVE",
"577 93 OFFCURVE",
"577 265 CURVE SMOOTH",
"577 379 OFFCURVE",
"493 437 OFFCURVE",
"380 437 CURVE SMOOTH",
"343 437 OFFCURVE",
"288 422 OFFCURVE",
"247 385 CURVE",
"259 471 LINE",
"266 512 OFFCURVE",
"306 546 OFFCURVE",
"347 546 CURVE SMOOTH",
"353 546 LINE SMOOTH",
"388 546 OFFCURVE",
"413 522 OFFCURVE",
"414 487 CURVE",
"413 466 LINE",
"591 466 LINE",
"593 479 OFFCURVE",
"594 492 OFFCURVE",
"594 505 CURVE SMOOTH",
"594 631 OFFCURVE",
"499 696 OFFCURVE",
"382 696 CURVE SMOOTH"
);
},
{
closed = 1;
nodes = (
"356 321 OFFCURVE",
"385 297 OFFCURVE",
"385 256 CURVE",
"378 205 LINE",
"375 164 OFFCURVE",
"334 130 OFFCURVE",
"293 130 CURVE SMOOTH",
"287 130 LINE SMOOTH",
"248 130 OFFCURVE",
"221 158 OFFCURVE",
"221 194 CURVE SMOOTH",
"221 199 LINE SMOOTH",
"221 201 OFFCURVE",
"221 203 OFFCURVE",
"222 205 CURVE",
"228 246 LINE SMOOTH",
"234 287 OFFCURVE",
"273 321 OFFCURVE",
"313 321 CURVE SMOOTH",
"319 321 LINE SMOOTH"
);
}
);
width = 615;
}
);
unicode = 0036;
},
{
glyphname = seven;
lastChange = "2014-09-05 18:35:56 +0000";
layers = (
{
background = {
paths = (
{
closed = 1;
nodes = (
"116 686 LINE",
"92 514 LINE",
"384 514 LINE",
"250 367 OFFCURVE",
"114 191 OFFCURVE",
"87 0 CURVE",
"309 0 LINE",
"318 59 LINE SMOOTH",
"349 263 OFFCURVE",
"476 437 OFFCURVE",
"612 595 CURVE",
"625 686 LINE"
);
}
);
};
layerId = UUID0;
paths = (
{
closed = 1;
nodes = (
"116 686 LINE",
"92 514 LINE",
"384 514 LINE",
"250 367 OFFCURVE",
"114 191 OFFCURVE",
"87 0 CURVE",
"309 0 LINE",
"318 59 LINE SMOOTH",
"349 263 OFFCURVE",
"476 437 OFFCURVE",
"612 595 CURVE",
"625 686 LINE"
);
}
);
width = 615;
}
);
unicode = 0037;
},
{
glyphname = eight;
lastChange = "2014-09-05 18:35:56 +0000";
layers = (
{
background = {
paths = (
{
closed = 1;
nodes = (
"218 696 OFFCURVE",
"87 612 OFFCURVE",
"87 464 CURVE SMOOTH",
"87 408 OFFCURVE",
"112 380 OFFCURVE",
"147 351 CURVE",
"146 347 LINE",
"75 308 OFFCURVE",
"21 260 OFFCURVE",
"21 161 CURVE SMOOTH",
"21 49 OFFCURVE",
"118 -10 OFFCURVE",
"264 -10 CURVE SMOOTH",
"495 -10 OFFCURVE",
"564 118 OFFCURVE",
"564 218 CURVE SMOOTH",
"564 281 OFFCURVE",
"532 315 OFFCURVE",
"483 347 CURVE",
"484 351 LINE",
"535 386 OFFCURVE",
"584 429 OFFCURVE",
"584 524 CURVE SMOOTH",
"584 635 OFFCURVE",
"488 696 OFFCURVE",
"363 696 CURVE SMOOTH"
);
},
{
closed = 1;
nodes = (
"344 295 OFFCURVE",
"368 269 OFFCURVE",
"368 234 CURVE",
"363 192 LINE",
"356 153 OFFCURVE",
"323 122 OFFCURVE",
"283 122 CURVE SMOOTH",
"246 122 OFFCURVE",
"221 147 OFFCURVE",
"221 182 CURVE SMOOTH",
"221 187 OFFCURVE",
"221 190 OFFCURVE",
"222 192 CURVE",
"227 225 LINE SMOOTH",
"233 264 OFFCURVE",
"268 295 OFFCURVE",
"307 295 CURVE SMOOTH"
);
},
{
closed = 1;
nodes = (
"382 566 OFFCURVE",
"406 540 OFFCURVE",
"406 505 CURVE",
"403 473 LINE SMOOTH",
"399 434 OFFCURVE",
"361 403 OFFCURVE",
"323 403 CURVE SMOOTH",
"287 403 OFFCURVE",
"261 427 OFFCURVE",
"261 462 CURVE SMOOTH",
"261 467 OFFCURVE",
"261 470 OFFCURVE",
"262 473 CURVE SMOOTH",
"265 496 LINE SMOOTH",
"270 535 OFFCURVE",
"306 566 OFFCURVE",
"345 566 CURVE SMOOTH"
);
}
);
};
layerId = UUID0;
paths = (
{
closed = 1;
nodes = (
"218 696 OFFCURVE",
"87 612 OFFCURVE",
"87 464 CURVE SMOOTH",
"87 408 OFFCURVE",
"112 380 OFFCURVE",
"147 351 CURVE",
"146 347 LINE",
"75 308 OFFCURVE",
"21 260 OFFCURVE",
"21 161 CURVE SMOOTH",
"21 49 OFFCURVE",
"118 -10 OFFCURVE",
"264 -10 CURVE SMOOTH",
"495 -10 OFFCURVE",
"564 118 OFFCURVE",
"564 218 CURVE SMOOTH",
"564 281 OFFCURVE",
"532 315 OFFCURVE",
"483 347 CURVE",
"484 351 LINE",
"535 386 OFFCURVE",
"584 429 OFFCURVE",
"584 524 CURVE SMOOTH",
"584 635 OFFCURVE",
"488 696 OFFCURVE",
"363 696 CURVE SMOOTH"
);
},
{
closed = 1;
nodes = (
"344 295 OFFCURVE",
"368 269 OFFCURVE",
"368 234 CURVE",
"363 192 LINE",
"356 153 OFFCURVE",
"323 122 OFFCURVE",
"283 122 CURVE SMOOTH",
"246 122 OFFCURVE",
"221 147 OFFCURVE",
"221 182 CURVE SMOOTH",
"221 187 OFFCURVE",
"221 190 OFFCURVE",
"222 192 CURVE",
"227 225 LINE SMOOTH",
"233 264 OFFCURVE",
"268 295 OFFCURVE",
"307 295 CURVE SMOOTH"
);
},
{
closed = 1;
nodes = (
"382 566 OFFCURVE",
"406 540 OFFCURVE",
"406 505 CURVE",
"403 473 LINE SMOOTH",
"399 434 OFFCURVE",
"361 403 OFFCURVE",
"323 403 CURVE SMOOTH",
"287 403 OFFCURVE",
"261 427 OFFCURVE",
"261 462 CURVE SMOOTH",
"261 467 OFFCURVE",
"261 470 OFFCURVE",
"262 473 CURVE SMOOTH",
"265 496 LINE SMOOTH",
"270 535 OFFCURVE",
"306 566 OFFCURVE",
"345 566 CURVE SMOOTH"
);
}
);
width = 615;
}
);
unicode = 0038;
},
{
glyphname = nine;
lastChange = "2014-09-05 18:35:56 +0000";
layers = (
{
background = {
paths = (
{
closed = 1;
nodes = (
"345 696 LINE SMOOTH",
"192 696 OFFCURVE",
"50 584 OFFCURVE",
"50 421 CURVE SMOOTH",
"50 307 OFFCURVE",
"135 249 OFFCURVE",
"248 249 CURVE SMOOTH",
"285 249 OFFCURVE",
"340 264 OFFCURVE",
"381 301 CURVE",
"369 215 LINE",
"362 174 OFFCURVE",
"333 140 OFFCURVE",
"281 140 CURVE SMOOTH",
"275 140 LINE SMOOTH",
"240 140 OFFCURVE",
"214 168 OFFCURVE",
"214 200 CURVE SMOOTH",
"214 212 LINE SMOOTH",
"214 215 OFFCURVE",
"214 217 OFFCURVE",
"215 220 CURVE",
"37 220 LINE",
"35 206 OFFCURVE",
"34 193 OFFCURVE",
"34 181 CURVE SMOOTH",
"34 54 OFFCURVE",
"128 -10 OFFCURVE",
"246 -10 CURVE SMOOTH",
"274 -10 LINE SMOOTH",
"433 -10 OFFCURVE",
"548 96 OFFCURVE",
"569 240 CURVE SMOOTH",
"601 458 OFFCURVE",
"600 470 OFFCURVE",
"600 482 CURVE SMOOTH",
"600 606 OFFCURVE",
"505 696 OFFCURVE",
"373 696 CURVE SMOOTH"
);
},
{
closed = 1;
nodes = (
"378 556 OFFCURVE",
"407 528 OFFCURVE",
"407 491 CURVE",
"400 440 LINE SMOOTH",
"394 399 OFFCURVE",
"355 365 OFFCURVE",
"315 365 CURVE SMOOTH",
"309 365 LINE SMOOTH",
"270 365 OFFCURVE",
"243 393 OFFCURVE",
"243 429 CURVE SMOOTH",
"243 434 OFFCURVE",
"245 446 OFFCURVE",
"245 447 CURVE",
"250 481 LINE SMOOTH",
"256 522 OFFCURVE",
"295 556 OFFCURVE",
"335 556 CURVE SMOOTH",
"341 556 LINE SMOOTH"
);
}
);
};
layerId = UUID0;
paths = (
{
closed = 1;
nodes = (
"345 696 LINE SMOOTH",
"192 696 OFFCURVE",
"50 584 OFFCURVE",
"50 421 CURVE SMOOTH",
"50 307 OFFCURVE",
"135 249 OFFCURVE",
"248 249 CURVE SMOOTH",
"285 249 OFFCURVE",
"340 264 OFFCURVE",
"381 301 CURVE",
"369 215 LINE",
"362 174 OFFCURVE",
"333 140 OFFCURVE",
"281 140 CURVE SMOOTH",
"275 140 LINE SMOOTH",
"240 140 OFFCURVE",
"214 168 OFFCURVE",
"214 200 CURVE SMOOTH",
"214 212 LINE SMOOTH",
"214 215 OFFCURVE",
"214 217 OFFCURVE",
"215 220 CURVE",
"37 220 LINE",
"35 206 OFFCURVE",
"34 193 OFFCURVE",
"34 181 CURVE SMOOTH",
"34 54 OFFCURVE",
"128 -10 OFFCURVE",
"246 -10 CURVE SMOOTH",
"274 -10 LINE SMOOTH",
"433 -10 OFFCURVE",
"548 96 OFFCURVE",
"569 240 CURVE SMOOTH",
"601 458 OFFCURVE",
"600 470 OFFCURVE",
"600 482 CURVE SMOOTH",
"600 606 OFFCURVE",
"505 696 OFFCURVE",
"373 696 CURVE SMOOTH"
);
},
{
closed = 1;
nodes = (
"378 556 OFFCURVE",
"407 528 OFFCURVE",
"407 491 CURVE",
"400 440 LINE SMOOTH",
"394 399 OFFCURVE",
"355 365 OFFCURVE",
"315 365 CURVE SMOOTH",
"309 365 LINE SMOOTH",
"270 365 OFFCURVE",
"243 393 OFFCURVE",
"243 429 CURVE SMOOTH",
"243 434 OFFCURVE",
"245 446 OFFCURVE",
"245 447 CURVE",
"250 481 LINE SMOOTH",
"256 522 OFFCURVE",
"295 556 OFFCURVE",
"335 556 CURVE SMOOTH",
"341 556 LINE SMOOTH"
);
}
);
width = 615;
}
);
unicode = 0039;
},
{
glyphname = colon;
lastChange = "2014-09-05 18:35:56 +0000";
layers = (
{
background = {
paths = (
{
closed = 1;
nodes = (
"89 511 LINE",
"64 328 LINE",
"255 328 LINE",
"280 511 LINE"
);
},
{
closed = 1;
nodes = (
"43 183 LINE",
"18 0 LINE",
"209 0 LINE",
"234 183 LINE"
);
}
);
};
layerId = UUID0;
paths = (
{
closed = 1;
nodes = (
"89 511 LINE",
"64 328 LINE",
"255 328 LINE",
"280 511 LINE"
);
},
{
closed = 1;
nodes = (
"43 183 LINE",
"18 0 LINE",
"209 0 LINE",
"234 183 LINE"
);
}
);
width = 308;
}
);
leftKerningGroup = colon;
rightKerningGroup = colon;
unicode = 003A;
},
{
glyphname = semicolon;
lastChange = "2014-09-05 18:35:56 +0000";
layers = (
{
background = {
paths = (
{
closed = 1;
nodes = (
"43 183 LINE",
"17 0 LINE",
"101 0 LINE",
"41 -165 LINE",
"135 -165 LINE",
"211 22 LINE",
"234 183 LINE"
);
},
{
closed = 1;
nodes = (
"89 511 LINE",
"63 328 LINE",
"254 328 LINE",
"280 511 LINE"
);
}
);
};
layerId = UUID0;
paths = (
{
closed = 1;
nodes = (
"43 183 LINE",
"17 0 LINE",
"101 0 LINE",
"41 -165 LINE",
"135 -165 LINE",
"211 22 LINE",
"234 183 LINE"
);
},
{
closed = 1;
nodes = (
"89 511 LINE",
"63 328 LINE",
"254 328 LINE",
"280 511 LINE"
);
}
);
width = 307;
}
);
leftKerningGroup = colon;
rightKerningGroup = colon;
unicode = 003B;
},
{
glyphname = less;
lastChange = "2014-09-05 18:35:56 +0000";
layers = (
{
background = {
paths = (
{
closed = 1;
nodes = (
"49 324 LINE",
"30 185 LINE",
"511 -11 LINE",
"531 127 LINE",
"200 254 LINE",
"566 382 LINE",
"586 521 LINE"
);
}
);
};
layerId = UUID0;
paths = (
{
closed = 1;
nodes = (
"49 324 LINE",
"30 185 LINE",
"511 -11 LINE",
"531 127 LINE",
"200 254 LINE",
"566 382 LINE",
"586 521 LINE"
);
}
);
width = 615;
}
);
unicode = 003C;
},
{
glyphname = equal;
lastChange = "2014-09-05 18:35:56 +0000";
layers = (
{
background = {
paths = (
{
closed = 1;
nodes = (
"71 429 LINE",
"53 301 LINE",
"565 301 LINE",
"583 429 LINE"
);
},
{
closed = 1;
nodes = (
"40 209 LINE",
"22 81 LINE",
"534 81 LINE",
"552 209 LINE"
);
}
);
};
layerId = UUID0;
paths = (
{
closed = 1;
nodes = (
"71 429 LINE",
"53 301 LINE",
"565 301 LINE",
"583 429 LINE"
);
},
{
closed = 1;
nodes = (
"40 209 LINE",
"22 81 LINE",
"534 81 LINE",
"552 209 LINE"
);
}
);
width = 615;
}
);
unicode = 003D;
},
{
glyphname = greater;
lastChange = "2014-09-05 18:35:56 +0000";
layers = (
{
background = {
paths = (
{
closed = 1;
nodes = (
"74 382 LINE",
"404 254 LINE",
"39 127 LINE",
"19 -11 LINE",
"556 185 LINE",
"575 324 LINE",
"94 521 LINE"
);
}
);
};
layerId = UUID0;
paths = (
{
closed = 1;
nodes = (
"74 382 LINE",
"404 254 LINE",
"39 127 LINE",
"19 -11 LINE",
"556 185 LINE",
"575 324 LINE",
"94 521 LINE"
);
}
);
width = 615;
}
);
unicode = 003E;
},
{
glyphname = question;
lastChange = "2014-09-05 18:35:56 +0000";
layers = (
{
background = {
paths = (
{
closed = 1;
nodes = (
"332 696 LINE SMOOTH",
"193 696 OFFCURVE",
"72 616 OFFCURVE",
"52 485 CURVE SMOOTH",
"50 472 OFFCURVE",
"49 460 OFFCURVE",
"49 447 CURVE",
"233 447 LINE",
"238 496 OFFCURVE",
"245 558 OFFCURVE",
"313 558 CURVE SMOOTH",
"348 558 OFFCURVE",
"370 531 OFFCURVE",
"370 498 CURVE SMOOTH",
"369 403 OFFCURVE",
"222 359 OFFCURVE",
"210 277 CURVE SMOOTH",
"201 218 LINE",
"372 218 LINE",
"375 240 LINE SMOOTH",
"382 295 OFFCURVE",
"582 329 OFFCURVE",
"582 509 CURVE SMOOTH",
"582 621 OFFCURVE",
"485 696 OFFCURVE",
"370 696 CURVE SMOOTH"
);
},
{
closed = 1;
nodes = (
"191 183 LINE",
"166 0 LINE",
"357 0 LINE",
"382 183 LINE"
);
}
);
};
layerId = UUID0;
paths = (
{
closed = 1;
nodes = (
"332 696 LINE SMOOTH",
"193 696 OFFCURVE",
"72 616 OFFCURVE",
"52 485 CURVE SMOOTH",
"50 472 OFFCURVE",
"49 460 OFFCURVE",
"49 447 CURVE",
"233 447 LINE",
"238 496 OFFCURVE",
"245 558 OFFCURVE",
"313 558 CURVE SMOOTH",
"348 558 OFFCURVE",
"370 531 OFFCURVE",
"370 498 CURVE SMOOTH",
"369 403 OFFCURVE",
"222 359 OFFCURVE",
"210 277 CURVE SMOOTH",
"201 218 LINE",
"372 218 LINE",
"375 240 LINE SMOOTH",
"382 295 OFFCURVE",
"582 329 OFFCURVE",
"582 509 CURVE SMOOTH",
"582 621 OFFCURVE",
"485 696 OFFCURVE",
"370 696 CURVE SMOOTH"
);
},
{
closed = 1;
nodes = (
"191 183 LINE",
"166 0 LINE",
"357 0 LINE",
"382 183 LINE"
);
}
);
width = 583;
}
);
unicode = 003F;
},
{
glyphname = at;
lastChange = "2014-09-05 18:35:56 +0000";
layers = (
{
background = {
paths = (
{
closed = 1;
nodes = (
"291 697 OFFCURVE",
"75 579 OFFCURVE",
"30 262 CURVE SMOOTH",
"25 227 OFFCURVE",
"23 198 OFFCURVE",
"23 167 CURVE SMOOTH",
"23 -54 OFFCURVE",
"154 -153 OFFCURVE",
"372 -153 CURVE SMOOTH",
"415 -153 OFFCURVE",
"496 -142 OFFCURVE",
"541 -126 CURVE",
"550 -60 LINE",
"512 -78 OFFCURVE",
"426 -92 OFFCURVE",
"380 -92 CURVE SMOOTH",
"185 -92 OFFCURVE",
"96 -4 OFFCURVE",
"96 172 CURVE SMOOTH",
"96 485 OFFCURVE",
"277 636 OFFCURVE",
"517 636 CURVE SMOOTH",
"696 636 OFFCURVE",
"815 562 OFFCURVE",
"815 386 CURVE SMOOTH",
"815 237 OFFCURVE",
"761 136 OFFCURVE",
"712 136 CURVE SMOOTH",
"697 136 OFFCURVE",
"684 146 OFFCURVE",
"684 171 CURVE",
"712 369 LINE SMOOTH",
"713 372 OFFCURVE",
"713 376 OFFCURVE",
"713 379 CURVE SMOOTH",
"713 389 LINE SMOOTH",
"713 465 OFFCURVE",
"649 521 OFFCURVE",
"509 521 CURVE SMOOTH",
"478 521 LINE SMOOTH",
"332 521 OFFCURVE",
"232 449 OFFCURVE",
"232 364 CURVE",
"410 364 LINE",
"411 368 LINE SMOOTH",
"414 395 OFFCURVE",
"451 412 OFFCURVE",
"477 412 CURVE SMOOTH",
"508 412 OFFCURVE",
"531 397 OFFCURVE",
"531 366 CURVE SMOOTH",
"531 359 OFFCURVE",
"530 351 OFFCURVE",
"529 343 CURVE SMOOTH",
"527 329 LINE",
"327 329 OFFCURVE",
"187 297 OFFCURVE",
"187 149 CURVE SMOOTH",
"187 53 OFFCURVE",
"263 23 OFFCURVE",
"339 23 CURVE SMOOTH",
"416 23 OFFCURVE",
"466 61 OFFCURVE",
"504 99 CURVE",
"515 59 OFFCURVE",
"543 22 OFFCURVE",
"622 22 CURVE SMOOTH",
"725 22 OFFCURVE",
"888 103 OFFCURVE",
"888 395 CURVE SMOOTH",
"888 608 OFFCURVE",
"737 697 OFFCURVE",
"526 697 CURVE SMOOTH"
);
},
{
closed = 1;
nodes = (
"509 202 LINE SMOOTH",
"504 163 OFFCURVE",
"468 136 OFFCURVE",
"435 136 CURVE SMOOTH",
"408 136 OFFCURVE",
"385 143 OFFCURVE",
"385 172 CURVE SMOOTH",
"385 213 OFFCURVE",
"422 243 OFFCURVE",
"514 243 CURVE"
);
}
);
};
layerId = UUID0;
paths = (
{
closed = 1;
nodes = (
"291 697 OFFCURVE",
"75 579 OFFCURVE",
"30 262 CURVE SMOOTH",
"25 227 OFFCURVE",
"23 198 OFFCURVE",
"23 167 CURVE SMOOTH",
"23 -54 OFFCURVE",
"154 -153 OFFCURVE",
"372 -153 CURVE SMOOTH",
"415 -153 OFFCURVE",
"496 -142 OFFCURVE",
"541 -126 CURVE",
"550 -60 LINE",
"512 -78 OFFCURVE",
"426 -92 OFFCURVE",
"380 -92 CURVE SMOOTH",
"185 -92 OFFCURVE",
"96 -4 OFFCURVE",
"96 172 CURVE SMOOTH",
"96 485 OFFCURVE",
"277 636 OFFCURVE",
"517 636 CURVE SMOOTH",
"696 636 OFFCURVE",
"815 562 OFFCURVE",
"815 386 CURVE SMOOTH",
"815 237 OFFCURVE",
"761 136 OFFCURVE",
"712 136 CURVE SMOOTH",
"697 136 OFFCURVE",
"684 146 OFFCURVE",
"684 171 CURVE",
"712 369 LINE SMOOTH",
"713 372 OFFCURVE",
"713 376 OFFCURVE",
"713 379 CURVE SMOOTH",
"713 389 LINE SMOOTH",
"713 465 OFFCURVE",
"649 521 OFFCURVE",
"509 521 CURVE SMOOTH",
"478 521 LINE SMOOTH",
"332 521 OFFCURVE",
"232 449 OFFCURVE",
"232 364 CURVE",
"410 364 LINE",
"411 368 LINE SMOOTH",
"414 395 OFFCURVE",
"451 412 OFFCURVE",
"477 412 CURVE SMOOTH",
"508 412 OFFCURVE",
"531 397 OFFCURVE",
"531 366 CURVE SMOOTH",
"531 359 OFFCURVE",
"530 351 OFFCURVE",
"529 343 CURVE SMOOTH",
"527 329 LINE",
"327 329 OFFCURVE",
"187 297 OFFCURVE",
"187 149 CURVE SMOOTH",
"187 53 OFFCURVE",
"263 23 OFFCURVE",
"339 23 CURVE SMOOTH",
"416 23 OFFCURVE",
"466 61 OFFCURVE",
"504 99 CURVE",
"515 59 OFFCURVE",
"543 22 OFFCURVE",
"622 22 CURVE SMOOTH",
"725 22 OFFCURVE",
"888 103 OFFCURVE",
"888 395 CURVE SMOOTH",
"888 608 OFFCURVE",
"737 697 OFFCURVE",
"526 697 CURVE SMOOTH"
);
},
{
closed = 1;
nodes = (
"509 202 LINE SMOOTH",
"504 163 OFFCURVE",
"468 136 OFFCURVE",
"435 136 CURVE SMOOTH",
"408 136 OFFCURVE",
"385 143 OFFCURVE",
"385 172 CURVE SMOOTH",
"385 213 OFFCURVE",
"422 243 OFFCURVE",
"514 243 CURVE"
);
}
);
width = 907;
}
);
unicode = 0040;
},
{
glyphname = A;
lastChange = "2014-09-05 18:38:04 +0000";
layers = (
{
anchors = (
{
name = ogonek;
position = "{638, 10}";
},
{
name = top;
position = "{412, 686}";
}
);
background = {
anchors = (
{
name = ogonek;
position = "{638, 10}";
},
{
name = top;
position = "{355, 686}";
}
);
paths = (
{
closed = 1;
nodes = (
"281 686 LINE",
"-44 0 LINE",
"157 0 LINE",
"214 122 LINE",
"432 122 LINE",
"456 0 LINE",
"674 0 LINE",
"542 686 LINE"
);
},
{
closed = 1;
nodes = (
"405 267 LINE",
"283 267 LINE",
"371 475 LINE",
"376 475 LINE"
);
}
);
};
layerId = UUID0;
paths = (
{
closed = 1;
nodes = (
"281 686 LINE",
"-44 0 LINE",
"157 0 LINE",
"214 122 LINE",
"432 122 LINE",
"456 0 LINE",
"674 0 LINE",
"542 686 LINE"
);
},
{
closed = 1;
nodes = (
"405 267 LINE",
"283 267 LINE",
"371 475 LINE",
"376 475 LINE"
);
}
);
width = 709;
}
);
leftKerningGroup = A;
rightKerningGroup = A;
unicode = 0041;
},
{
glyphname = B;
lastChange = "2014-09-05 18:35:56 +0000";
layers = (
{
background = {
paths = (
{
closed = 1;
nodes = (
"113 686 LINE",
"16 0 LINE",
"398 0 LINE SMOOTH",
"533 0 OFFCURVE",
"616 109 OFFCURVE",
"616 218 CURVE SMOOTH",
"616 302 OFFCURVE",
"568 339 OFFCURVE",
"507 354 CURVE",
"508 358 LINE",
"572 377 OFFCURVE",
"646 424 OFFCURVE",
"646 540 CURVE SMOOTH",
"646 622 OFFCURVE",
"581 686 OFFCURVE",
"489 686 CURVE SMOOTH"
);
},
{
closed = 1;
nodes = (
"400 277 OFFCURVE",
"418 259 OFFCURVE",
"418 234 CURVE",
"416 209 LINE SMOOTH",
"414 181 OFFCURVE",
"385 159 OFFCURVE",
"359 159 CURVE SMOOTH",
"232 159 LINE",
"248 277 LINE",
"375 277 LINE SMOOTH"
);
},
{
closed = 1;
nodes = (
"425 540 OFFCURVE",
"443 522 OFFCURVE",
"443 497 CURVE",
"441 473 LINE SMOOTH",
"439 445 OFFCURVE",
"410 423 OFFCURVE",
"384 423 CURVE SMOOTH",
"269 423 LINE",
"285 540 LINE",
"400 540 LINE SMOOTH"
);
}
);
};
layerId = UUID0;
paths = (
{
closed = 1;
nodes = (
"113 686 LINE",
"16 0 LINE",
"398 0 LINE SMOOTH",
"533 0 OFFCURVE",
"616 109 OFFCURVE",
"616 218 CURVE SMOOTH",
"616 302 OFFCURVE",
"568 339 OFFCURVE",
"507 354 CURVE",
"508 358 LINE",
"572 377 OFFCURVE",
"646 424 OFFCURVE",
"646 540 CURVE SMOOTH",
"646 622 OFFCURVE",
"581 686 OFFCURVE",
"489 686 CURVE SMOOTH"
);
},
{
closed = 1;
nodes = (
"400 277 OFFCURVE",
"418 259 OFFCURVE",
"418 234 CURVE",
"416 209 LINE SMOOTH",
"414 181 OFFCURVE",
"385 159 OFFCURVE",
"359 159 CURVE SMOOTH",
"232 159 LINE",
"248 277 LINE",
"375 277 LINE SMOOTH"
);
},
{
closed = 1;
nodes = (
"425 540 OFFCURVE",
"443 522 OFFCURVE",
"443 497 CURVE",
"441 473 LINE SMOOTH",
"439 445 OFFCURVE",
"410 423 OFFCURVE",
"384 423 CURVE SMOOTH",
"269 423 LINE",
"285 540 LINE",
"400 540 LINE SMOOTH"
);
}
);
width = 656;
}
);
leftKerningGroup = B;
unicode = 0042;
},
{
glyphname = C;
lastChange = "2014-09-05 18:39:11 +0000";
layers = (
{
anchors = (
{
name = bottom;
position = "{342, 0}";
},
{
name = top;
position = "{422, 686}";
}
);
background = {
anchors = (
{
name = bottom;
position = "{342, 0}";
},
{
name = top;
position = "{342, 686}";
}
);
paths = (
{
closed = 1;
nodes = (
"398 696 LINE SMOOTH",
"217 696 OFFCURVE",
"70 576 OFFCURVE",
"46 396 CURVE SMOOTH",
"30 279 OFFCURVE",
"27 258 OFFCURVE",
"27 242 CURVE SMOOTH",
"27 81 OFFCURVE",
"146 -10 OFFCURVE",
"307 -10 CURVE SMOOTH",
"335 -10 LINE SMOOTH",
"515 -10 OFFCURVE",
"631 100 OFFCURVE",
"658 280 CURVE",
"470 280 LINE",
"465 247 LINE SMOOTH",
"455 183 OFFCURVE",
"419 147 OFFCURVE",
"351 147 CURVE SMOOTH",
"337 147 LINE SMOOTH",
"286 147 OFFCURVE",
"250 184 OFFCURVE",
"250 233 CURVE SMOOTH",
"250 240 LINE SMOOTH",
"250 243 OFFCURVE",
"250 245 OFFCURVE",
"251 247 CURVE",
"278 440 LINE SMOOTH",
"286 496 OFFCURVE",
"324 540 OFFCURVE",
"392 540 CURVE SMOOTH",
"397 540 LINE SMOOTH",
"448 540 OFFCURVE",
"484 509 OFFCURVE",
"484 457 CURVE SMOOTH",
"484 448 LINE SMOOTH",
"484 445 OFFCURVE",
"484 443 OFFCURVE",
"483 440 CURVE SMOOTH",
"478 405 LINE",
"675 405 LINE",
"678 424 OFFCURVE",
"679 441 OFFCURVE",
"679 460 CURVE SMOOTH",
"679 616 OFFCURVE",
"573 696 OFFCURVE",
"426 696 CURVE SMOOTH"
);
}
);
};
layerId = UUID0;
paths = (
{
closed = 1;
nodes = (
"398 696 LINE SMOOTH",
"217 696 OFFCURVE",
"70 576 OFFCURVE",
"46 396 CURVE SMOOTH",
"30 279 OFFCURVE",
"27 258 OFFCURVE",
"27 242 CURVE SMOOTH",
"27 81 OFFCURVE",
"146 -10 OFFCURVE",
"307 -10 CURVE SMOOTH",
"335 -10 LINE SMOOTH",
"515 -10 OFFCURVE",
"631 100 OFFCURVE",
"658 280 CURVE",
"470 280 LINE",
"465 247 LINE SMOOTH",
"455 183 OFFCURVE",
"419 147 OFFCURVE",
"351 147 CURVE SMOOTH",
"337 147 LINE SMOOTH",
"286 147 OFFCURVE",
"250 184 OFFCURVE",
"250 233 CURVE SMOOTH",
"250 240 LINE SMOOTH",
"250 243 OFFCURVE",
"250 245 OFFCURVE",
"251 247 CURVE",
"278 440 LINE SMOOTH",
"286 496 OFFCURVE",
"324 540 OFFCURVE",
"392 540 CURVE SMOOTH",
"397 540 LINE SMOOTH",
"448 540 OFFCURVE",
"484 509 OFFCURVE",
"484 457 CURVE SMOOTH",
"484 448 LINE SMOOTH",
"484 445 OFFCURVE",
"484 443 OFFCURVE",
"483 440 CURVE SMOOTH",
"478 405 LINE",
"675 405 LINE",
"678 424 OFFCURVE",
"679 441 OFFCURVE",
"679 460 CURVE SMOOTH",
"679 616 OFFCURVE",
"573 696 OFFCURVE",
"426 696 CURVE SMOOTH"
);
}
);
width = 684;
}
);
leftKerningGroup = C;
rightKerningGroup = C;
unicode = 0043;
},
{
glyphname = D;
lastChange = "2014-09-05 18:35:56 +0000";
layers = (
{
anchors = (
{
name = center;
position = "{349, 343}";
},
{
name = top;
position = "{349, 686}";
}
);
background = {
anchors = (
{
name = center;
position = "{349, 343}";
},
{
name = top;
position = "{349, 686}";
}
);
paths = (
{
closed = 1;
nodes = (
"113 686 LINE",
"16 0 LINE",
"325 0 LINE SMOOTH",
"520 0 OFFCURVE",
"642 134 OFFCURVE",
"667 300 CURVE SMOOTH",
"680 386 LINE SMOOTH",
"682 400 OFFCURVE",
"683 414 OFFCURVE",
"683 428 CURVE SMOOTH",
"683 574 OFFCURVE",
"574 686 OFFCURVE",
"422 686 CURVE SMOOTH"
);
},
{
closed = 1;
nodes = (
"431 530 OFFCURVE",
"467 492 OFFCURVE",
"467 443 CURVE",
"442 259 LINE SMOOTH",
"434 203 OFFCURVE",
"396 159 OFFCURVE",
"328 159 CURVE SMOOTH",
"251 159 LINE",
"303 530 LINE",
"380 530 LINE SMOOTH"
);
}
);
};
layerId = UUID0;
paths = (
{
closed = 1;
nodes = (
"113 686 LINE",
"16 0 LINE",
"325 0 LINE SMOOTH",
"520 0 OFFCURVE",
"642 134 OFFCURVE",
"667 300 CURVE SMOOTH",
"680 386 LINE SMOOTH",
"682 400 OFFCURVE",
"683 414 OFFCURVE",
"683 428 CURVE SMOOTH",
"683 574 OFFCURVE",
"574 686 OFFCURVE",
"422 686 CURVE SMOOTH"
);
},
{
closed = 1;
nodes = (
"431 530 OFFCURVE",
"467 492 OFFCURVE",
"467 443 CURVE",
"442 259 LINE SMOOTH",
"434 203 OFFCURVE",
"396 159 OFFCURVE",
"328 159 CURVE SMOOTH",
"251 159 LINE",
"303 530 LINE",
"380 530 LINE SMOOTH"
);
}
);
width = 697;
}
);
leftKerningGroup = B;
rightKerningGroup = D;
unicode = 0044;
},
{
glyphname = E;
lastChange = "2014-09-05 18:56:45 +0000";
layers = (
{
anchors = (
{
name = bottom;
position = "{300, 0}";
},
{
name = ogonek;
position = "{510, 10}";
},
{
name = top;
position = "{350, 686}";
}
);
background = {
anchors = (
{
name = bottom;
position = "{300, 0}";
},
{
name = ogonek;
position = "{540, 10}";
},
{
name = top;
position = "{300, 686}";
}
);
paths = (
{
closed = 1;
nodes = (
"113 686 LINE",
"16 0 LINE",
"531 0 LINE",
"531 164 LINE",
"245 164 LINE",
"261 275 LINE",
"539 275 LINE",
"560 428 LINE",
"282 428 LINE",
"297 528 LINE",
"586 528 LINE",
"628 686 LINE"
);
}
);
};
layerId = UUID0;
paths = (
{
closed = 1;
nodes = (
"113 686 LINE",
"16 0 LINE",
"531 0 LINE",
"531 164 LINE",
"245 164 LINE",
"261 275 LINE",
"539 275 LINE",
"560 428 LINE",
"282 428 LINE",
"297 528 LINE",
"586 528 LINE",
"628 686 LINE"
);
}
);
width = 600;
}
);
leftKerningGroup = B;
rightKerningGroup = E;
unicode = 0045;
},
{
glyphname = F;
lastChange = "2014-09-05 18:35:56 +0000";
layers = (
{
background = {
paths = (
{
closed = 1;
nodes = (
"113 686 LINE",
"16 0 LINE",
"221 0 LINE",
"257 257 LINE",
"509 257 LINE",
"531 411 LINE",
"279 411 LINE",
"295 523 LINE",
"566 523 LINE",
"609 686 LINE"
);
}
);
};
layerId = UUID0;
paths = (
{
closed = 1;
nodes = (
"113 686 LINE",
"16 0 LINE",
"221 0 LINE",
"257 257 LINE",
"509 257 LINE",
"531 411 LINE",
"279 411 LINE",
"295 523 LINE",
"566 523 LINE",
"609 686 LINE"
);
}
);
width = 563;
}
);
leftKerningGroup = B;
unicode = 0046;
},
{
glyphname = G;
lastChange = "2014-09-05 18:39:24 +0000";
layers = (
{
anchors = (
{
name = bottom;
position = "{350, 0}";
},
{
name = top;
position = "{410, 686}";
}
);
background = {
anchors = (
{
name = bottom;
position = "{350, 0}";
},
{
name = top;
position = "{350, 686}";
}
);
paths = (
{
closed = 1;
nodes = (
"407 696 LINE SMOOTH",
"199 696 OFFCURVE",
"69 562 OFFCURVE",
"46 396 CURVE SMOOTH",
"31 290 LINE SMOOTH",
"29 274 OFFCURVE",
"28 259 OFFCURVE",
"28 244 CURVE SMOOTH",
"28 100 OFFCURVE",
"125 -10 OFFCURVE",
"275 -10 CURVE SMOOTH",
"285 -10 LINE SMOOTH",
"385 -10 OFFCURVE",
"443 25 OFFCURVE",
"493 73 CURVE",
"510 0 LINE",
"622 0 LINE",
"622 29 OFFCURVE",
"624 74 OFFCURVE",
"636 144 CURVE",
"669 384 LINE",
"359 384 LINE",
"340 248 LINE",
"456 248 LINE",
"447 185 OFFCURVE",
"411 147 OFFCURVE",
"355 147 CURVE SMOOTH",
"337 147 LINE SMOOTH",
"286 147 OFFCURVE",
"250 184 OFFCURVE",
"250 233 CURVE SMOOTH",
"250 240 LINE SMOOTH",
"250 242 OFFCURVE",
"250 244 OFFCURVE",
"251 247 CURVE",
"278 440 LINE SMOOTH",
"286 496 OFFCURVE",
"328 540 OFFCURVE",
"392 540 CURVE SMOOTH",
"397 540 LINE SMOOTH",
"446 540 OFFCURVE",
"484 516 OFFCURVE",
"484 459 CURVE SMOOTH",
"484 449 LINE SMOOTH",
"484 446 OFFCURVE",
"484 442 OFFCURVE",
"483 439 CURVE",
"677 439 LINE",
"678 446 LINE SMOOTH",
"679 457 OFFCURVE",
"680 468 OFFCURVE",
"680 479 CURVE SMOOTH",
"680 607 OFFCURVE",
"573 696 OFFCURVE",
"435 696 CURVE SMOOTH"
);
}
);
};
layerId = UUID0;
paths = (
{
closed = 1;
nodes = (
"407 696 LINE SMOOTH",
"199 696 OFFCURVE",
"69 562 OFFCURVE",
"46 396 CURVE SMOOTH",
"31 290 LINE SMOOTH",
"29 274 OFFCURVE",
"28 259 OFFCURVE",
"28 244 CURVE SMOOTH",
"28 100 OFFCURVE",
"125 -10 OFFCURVE",
"275 -10 CURVE SMOOTH",
"285 -10 LINE SMOOTH",
"385 -10 OFFCURVE",
"443 25 OFFCURVE",
"493 73 CURVE",
"510 0 LINE",
"622 0 LINE",
"622 29 OFFCURVE",
"624 74 OFFCURVE",
"636 144 CURVE",
"669 384 LINE",
"359 384 LINE",
"340 248 LINE",
"456 248 LINE",
"447 185 OFFCURVE",
"411 147 OFFCURVE",
"355 147 CURVE SMOOTH",
"337 147 LINE SMOOTH",
"286 147 OFFCURVE",
"250 184 OFFCURVE",
"250 233 CURVE SMOOTH",
"250 240 LINE SMOOTH",
"250 242 OFFCURVE",
"250 244 OFFCURVE",
"251 247 CURVE",
"278 440 LINE SMOOTH",
"286 496 OFFCURVE",
"328 540 OFFCURVE",
"392 540 CURVE SMOOTH",
"397 540 LINE SMOOTH",
"446 540 OFFCURVE",
"484 516 OFFCURVE",
"484 459 CURVE SMOOTH",
"484 449 LINE SMOOTH",
"484 446 OFFCURVE",
"484 442 OFFCURVE",
"483 439 CURVE",
"677 439 LINE",
"678 446 LINE SMOOTH",
"679 457 OFFCURVE",
"680 468 OFFCURVE",
"680 479 CURVE SMOOTH",
"680 607 OFFCURVE",
"573 696 OFFCURVE",
"435 696 CURVE SMOOTH"
);
}
);
width = 699;
}
);
leftKerningGroup = C;
unicode = 0047;
},
{
glyphname = H;
lastChange = "2014-09-05 18:39:29 +0000";
layers = (
{
anchors = (
{
name = center;
position = "{349, 343}";
},
{
name = top;
position = "{409, 686}";
}
);
background = {
anchors = (
{
name = center;
position = "{349, 343}";
},
{
name = top;
position = "{349, 686}";
}
);
paths = (
{
closed = 1;
nodes = (
"485 686 LINE",
"449 433 LINE",
"287 433 LINE",
"323 686 LINE",
"113 686 LINE",
"16 0 LINE",
"227 0 LINE",
"265 267 LINE",
"427 267 LINE",
"389 0 LINE",
"599 0 LINE",
"696 686 LINE"
);
}
);
};
layerId = UUID0;
paths = (
{
closed = 1;
nodes = (
"485 686 LINE",
"449 433 LINE",
"287 433 LINE",
"323 686 LINE",
"113 686 LINE",
"16 0 LINE",
"227 0 LINE",
"265 267 LINE",
"427 267 LINE",
"389 0 LINE",
"599 0 LINE",
"696 686 LINE"
);
}
);
width = 697;
}
);
leftKerningGroup = B;
rightKerningGroup = H;
unicode = 0048;
},
{
glyphname = I;
lastChange = "2014-09-05 18:56:54 +0000";
layers = (
{
anchors = (
{
name = ogonek;
position = "{351, 10}";
},
{
name = top;
position = "{283, 686}";
}
);
background = {
anchors = (
{
name = ogonek;
position = "{401, 10}";
},
{
name = top;
position = "{223, 686}";
}
);
paths = (
{
closed = 1;
nodes = (
"92 686 LINE",
"71 539 LINE",
"152 539 LINE",
"97 148 LINE",
"16 148 LINE",
"-5 0 LINE",
"369 0 LINE",
"390 148 LINE",
"309 148 LINE",
"364 539 LINE",
"445 539 LINE",
"466 686 LINE"
);
}
);
};
layerId = UUID0;
paths = (
{
closed = 1;
nodes = (
"92 686 LINE",
"71 539 LINE",
"152 539 LINE",
"97 148 LINE",
"16 148 LINE",
"-5 0 LINE",
"369 0 LINE",
"390 148 LINE",
"309 148 LINE",
"364 539 LINE",
"445 539 LINE",
"466 686 LINE"
);
}
);
width = 446;
}
);
leftKerningGroup = I;
rightKerningGroup = I;
unicode = 0049;
},
{
glyphname = J;
lastChange = "2014-09-05 18:56:59 +0000";
layers = (
{
anchors = (
{
name = top;
position = "{422, 686}";
}
);
background = {
anchors = (
{
name = top;
position = "{272, 686}";
}
);
paths = (
{
closed = 1;
nodes = (
"339 686 LINE",
"269 186 LINE SMOOTH",
"265 158 OFFCURVE",
"244 140 OFFCURVE",
"221 140 CURVE SMOOTH",
"201 140 OFFCURVE",
"185 155 OFFCURVE",
"185 178 CURVE SMOOTH",
"185 182 OFFCURVE",
"187 199 OFFCURVE",
"190 216 CURVE SMOOTH",
"195 248 LINE",
"3 248 LINE",
"-7 189 OFFCURVE",
"-9 170 OFFCURVE",
"-9 158 CURVE SMOOTH",
"-9 147 LINE SMOOTH",
"-9 46 OFFCURVE",
"63 -10 OFFCURVE",
"186 -10 CURVE SMOOTH",
"217 -10 LINE SMOOTH",
"350 -10 OFFCURVE",
"454 55 OFFCURVE",
"473 180 CURVE",
"544 686 LINE"
);
}
);
};
layerId = UUID0;
paths = (
{
closed = 1;
nodes = (
"339 686 LINE",
"269 186 LINE SMOOTH",
"265 158 OFFCURVE",
"244 140 OFFCURVE",
"221 140 CURVE SMOOTH",
"201 140 OFFCURVE",
"185 155 OFFCURVE",
"185 178 CURVE SMOOTH",
"185 182 OFFCURVE",
"187 199 OFFCURVE",
"190 216 CURVE SMOOTH",
"195 248 LINE",
"3 248 LINE",
"-7 189 OFFCURVE",
"-9 170 OFFCURVE",
"-9 158 CURVE SMOOTH",
"-9 147 LINE SMOOTH",
"-9 46 OFFCURVE",
"63 -10 OFFCURVE",
"186 -10 CURVE SMOOTH",
"217 -10 LINE SMOOTH",
"350 -10 OFFCURVE",
"454 55 OFFCURVE",
"473 180 CURVE",
"544 686 LINE"
);
}
);
width = 543;
}
);
unicode = 004A;
},
{
glyphname = K;
lastChange = "2014-09-05 18:39:45 +0000";
layers = (
{
anchors = (
{
name = bottom;
position = "{342, 0}";
},
{
name = top;
position = "{412, 686}";
}
);
background = {
anchors = (
{
name = bottom;
position = "{342, 0}";
},
{
name = top;
position = "{342, 686}";
}
);
paths = (
{
closed = 1;
nodes = (
"513 686 LINE",
"279 415 LINE",
"317 686 LINE",
"113 686 LINE",
"16 0 LINE",
"220 0 LINE",
"242 152 LINE",
"335 248 LINE",
"419 0 LINE",
"654 0 LINE",
"497 411 LINE",
"745 686 LINE"
);
}
);
};
layerId = UUID0;
paths = (
{
closed = 1;
nodes = (
"513 686 LINE",
"279 415 LINE",
"317 686 LINE",
"113 686 LINE",
"16 0 LINE",
"220 0 LINE",
"242 152 LINE",
"335 248 LINE",
"419 0 LINE",
"654 0 LINE",
"497 411 LINE",
"745 686 LINE"
);
}
);
width = 684;
}
);
leftKerningGroup = B;
unicode = 004B;
},
{
glyphname = L;
lastChange = "2014-09-09 04:47:39 +0000";
layers = (
{
anchors = (
{
name = bottom;
position = "{270, 0}";
},
{
name = top;
position = "{270, 686}";
},
{
name = topright;
position = "{521, 686}";
}
);
background = {
anchors = (
{
name = bottom;
position = "{270, 0}";
},
{
name = top;
position = "{270, 686}";
},
{
name = topright;
position = "{581, 686}";
}
);
paths = (
{
closed = 1;
nodes = (
"113 686 LINE",
"16 0 LINE",
"497 0 LINE",
"497 168 LINE",
"252 168 LINE",
"325 686 LINE"
);
}
);
};
layerId = UUID0;
paths = (
{
closed = 1;
nodes = (
"113 686 LINE",
"16 0 LINE",
"497 0 LINE",
"497 168 LINE",
"252 168 LINE",
"325 686 LINE"
);
}
);
width = 540;
}
);
leftKerningGroup = B;
rightKerningGroup = L;
unicode = 004C;
},
{
glyphname = M;
lastChange = "2014-09-05 18:35:56 +0000";
layers = (
{
background = {
paths = (
{
closed = 1;
nodes = (
"657 686 LINE",
"508 320 LINE",
"504 320 LINE",
"457 686 LINE",
"113 686 LINE",
"16 0 LINE",
"207 0 LINE",
"269 440 LINE",
"274 440 LINE",
"331 0 LINE",
"572 0 LINE",
"754 440 LINE",
"758 440 LINE",
"696 0 LINE",
"906 0 LINE",
"1003 686 LINE"
);
}
);
};
layerId = UUID0;
paths = (
{
closed = 1;
nodes = (
"657 686 LINE",
"508 320 LINE",
"504 320 LINE",
"457 686 LINE",
"113 686 LINE",
"16 0 LINE",
"207 0 LINE",
"269 440 LINE",
"274 440 LINE",
"331 0 LINE",
"572 0 LINE",
"754 440 LINE",
"758 440 LINE",
"696 0 LINE",
"906 0 LINE",
"1003 686 LINE"
);
}
);
width = 1004;
}
);
leftKerningGroup = B;
rightKerningGroup = H;
unicode = 004D;
},
{
glyphname = N;
lastChange = "2014-09-05 18:39:52 +0000";
layers = (
{
anchors = (
{
name = bottom;
position = "{348, 0}";
},
{
name = top;
position = "{428, 686}";
}
);
background = {
anchors = (
{
name = bottom;
position = "{348, 0}";
},
{
name = top;
position = "{348, 686}";
}
);
paths = (
{
closed = 1;
nodes = (
"501 686 LINE",
"457 375 LINE",
"429 431 LINE",
"289 686 LINE",
"113 686 LINE",
"16 0 LINE",
"209 0 LINE",
"252 304 LINE",
"265 278 LINE SMOOTH",
"271 265 OFFCURVE",
"279 250 OFFCURVE",
"282 246 CURVE SMOOTH",
"418 0 LINE",
"598 0 LINE",
"695 686 LINE"
);
}
);
};
layerId = UUID0;
paths = (
{
closed = 1;
nodes = (
"501 686 LINE",
"457 375 LINE",
"429 431 LINE",
"289 686 LINE",
"113 686 LINE",
"16 0 LINE",
"209 0 LINE",
"252 304 LINE",
"265 278 LINE SMOOTH",
"271 265 OFFCURVE",
"279 250 OFFCURVE",
"282 246 CURVE SMOOTH",
"418 0 LINE",
"598 0 LINE",
"695 686 LINE"
);
}
);
width = 696;
}
);
leftKerningGroup = B;
rightKerningGroup = H;
unicode = 004E;
},
{
glyphname = O;
lastChange = "2014-09-05 18:39:57 +0000";
layers = (
{
anchors = (
{
name = top;
position = "{430, 686}";
}
);
background = {
anchors = (
{
name = top;
position = "{360, 686}";
}
);
paths = (
{
closed = 1;
nodes = (
"388 694 LINE SMOOTH",
"202 694 OFFCURVE",
"69 560 OFFCURVE",
"46 394 CURVE SMOOTH",
"29 276 OFFCURVE",
"28 277 OFFCURVE",
"28 248 CURVE SMOOTH",
"28 102 OFFCURVE",
"137 -10 OFFCURVE",
"289 -10 CURVE SMOOTH",
"345 -10 LINE SMOOTH",
"532 -10 OFFCURVE",
"663 124 OFFCURVE",
"687 290 CURVE",
"703 408 OFFCURVE",
"705 402 OFFCURVE",
"705 436 CURVE SMOOTH",
"705 582 OFFCURVE",
"596 694 OFFCURVE",
"444 694 CURVE SMOOTH"
);
},
{
closed = 1;
nodes = (
"448 540 OFFCURVE",
"484 502 OFFCURVE",
"484 454 CURVE SMOOTH",
"484 448 OFFCURVE",
"484 443 OFFCURVE",
"483 440 CURVE",
"456 247 LINE SMOOTH",
"448 191 OFFCURVE",
"410 147 OFFCURVE",
"342 147 CURVE SMOOTH",
"337 147 LINE SMOOTH",
"286 147 OFFCURVE",
"250 184 OFFCURVE",
"250 233 CURVE SMOOTH",
"250 240 LINE SMOOTH",
"250 243 OFFCURVE",
"250 245 OFFCURVE",
"251 247 CURVE",
"278 440 LINE SMOOTH",
"286 496 OFFCURVE",
"324 540 OFFCURVE",
"392 540 CURVE SMOOTH",
"397 540 LINE SMOOTH"
);
}
);
};
layerId = UUID0;
paths = (
{
closed = 1;
nodes = (
"388 694 LINE SMOOTH",
"202 694 OFFCURVE",
"69 560 OFFCURVE",
"46 394 CURVE SMOOTH",
"29 276 OFFCURVE",
"28 277 OFFCURVE",
"28 248 CURVE SMOOTH",
"28 102 OFFCURVE",
"137 -10 OFFCURVE",
"289 -10 CURVE SMOOTH",
"345 -10 LINE SMOOTH",
"532 -10 OFFCURVE",
"663 124 OFFCURVE",
"687 290 CURVE",
"703 408 OFFCURVE",
"705 402 OFFCURVE",
"705 436 CURVE SMOOTH",
"705 582 OFFCURVE",
"596 694 OFFCURVE",
"444 694 CURVE SMOOTH"
);
},
{
closed = 1;
nodes = (
"448 540 OFFCURVE",
"484 502 OFFCURVE",
"484 454 CURVE SMOOTH",
"484 448 OFFCURVE",
"484 443 OFFCURVE",
"483 440 CURVE",
"456 247 LINE SMOOTH",
"448 191 OFFCURVE",
"410 147 OFFCURVE",
"342 147 CURVE SMOOTH",
"337 147 LINE SMOOTH",
"286 147 OFFCURVE",
"250 184 OFFCURVE",
"250 233 CURVE SMOOTH",
"250 240 LINE SMOOTH",
"250 243 OFFCURVE",
"250 245 OFFCURVE",
"251 247 CURVE",
"278 440 LINE SMOOTH",
"286 496 OFFCURVE",
"324 540 OFFCURVE",
"392 540 CURVE SMOOTH",
"397 540 LINE SMOOTH"
);
}
);
width = 719;
}
);
leftKerningGroup = C;
rightKerningGroup = O;
unicode = 004F;
},
{
glyphname = P;
lastChange = "2014-09-05 18:35:56 +0000";
layers = (
{
background = {
paths = (
{
closed = 1;
nodes = (
"113 686 LINE",
"16 0 LINE",
"226 0 LINE",
"261 244 LINE",
"416 244 LINE SMOOTH",
"570 244 OFFCURVE",
"660 368 OFFCURVE",
"660 505 CURVE SMOOTH",
"660 606 OFFCURVE",
"585 686 OFFCURVE",
"478 686 CURVE SMOOTH"
);
},
{
closed = 1;
nodes = (
"429 529 OFFCURVE",
"445 503 OFFCURVE",
"445 478 CURVE",
"443 457 LINE SMOOTH",
"440 429 OFFCURVE",
"417 397 OFFCURVE",
"374 397 CURVE SMOOTH",
"282 397 LINE",
"301 529 LINE",
"393 529 LINE SMOOTH"
);
}
);
};
layerId = UUID0;
paths = (
{
closed = 1;
nodes = (
"113 686 LINE",
"16 0 LINE",
"226 0 LINE",
"261 244 LINE",
"416 244 LINE SMOOTH",
"570 244 OFFCURVE",
"660 368 OFFCURVE",
"660 505 CURVE SMOOTH",
"660 606 OFFCURVE",
"585 686 OFFCURVE",
"478 686 CURVE SMOOTH"
);
},
{
closed = 1;
nodes = (
"429 529 OFFCURVE",
"445 503 OFFCURVE",
"445 478 CURVE",
"443 457 LINE SMOOTH",
"440 429 OFFCURVE",
"417 397 OFFCURVE",
"374 397 CURVE SMOOTH",
"282 397 LINE",
"301 529 LINE",
"393 529 LINE SMOOTH"
);
}
);
width = 645;
}
);
leftKerningGroup = B;
unicode = 0050;
},
{
glyphname = Q;
lastChange = "2014-09-05 18:35:56 +0000";
layers = (
{
background = {
paths = (
{
closed = 1;
nodes = (
"388 694 LINE SMOOTH",
"206 694 OFFCURVE",
"66 560 OFFCURVE",
"45 394 CURVE SMOOTH",
"29 274 OFFCURVE",
"28 261 OFFCURVE",
"28 247 CURVE SMOOTH",
"28 118 OFFCURVE",
"110 20 OFFCURVE",
"232 -4 CURVE",
"237 -72 OFFCURVE",
"291 -162 OFFCURVE",
"443 -162 CURVE SMOOTH",
"532 -162 OFFCURVE",
"590 -140 OFFCURVE",
"630 -120 CURVE",
"645 -15 LINE",
"632 -19 LINE SMOOTH",
"605 -27 OFFCURVE",
"552 -39 OFFCURVE",
"516 -39 CURVE SMOOTH",
"468 -39 OFFCURVE",
"451 -18 OFFCURVE",
"444 6 CURVE",
"586 49 OFFCURVE",
"668 157 OFFCURVE",
"687 290 CURVE",
"703 410 OFFCURVE",
"704 393 OFFCURVE",
"704 437 CURVE SMOOTH",
"704 584 OFFCURVE",
"595 694 OFFCURVE",
"444 694 CURVE SMOOTH"
);
},
{
closed = 1;
nodes = (
"448 540 OFFCURVE",
"484 502 OFFCURVE",
"484 454 CURVE SMOOTH",
"484 448 OFFCURVE",
"484 443 OFFCURVE",
"483 440 CURVE",
"456 247 LINE SMOOTH",
"448 191 OFFCURVE",
"410 147 OFFCURVE",
"342 147 CURVE SMOOTH",
"337 147 LINE SMOOTH",
"286 147 OFFCURVE",
"250 184 OFFCURVE",
"250 233 CURVE SMOOTH",
"250 240 LINE SMOOTH",
"250 242 OFFCURVE",
"250 244 OFFCURVE",
"251 247 CURVE",
"278 440 LINE SMOOTH",
"286 496 OFFCURVE",
"324 540 OFFCURVE",
"392 540 CURVE SMOOTH",
"397 540 LINE SMOOTH"
);
}
);
};
layerId = UUID0;
paths = (
{
closed = 1;
nodes = (
"388 694 LINE SMOOTH",
"206 694 OFFCURVE",
"66 560 OFFCURVE",
"45 394 CURVE SMOOTH",
"29 274 OFFCURVE",
"28 261 OFFCURVE",
"28 247 CURVE SMOOTH",
"28 118 OFFCURVE",
"110 20 OFFCURVE",
"232 -4 CURVE",
"237 -72 OFFCURVE",
"291 -162 OFFCURVE",
"443 -162 CURVE SMOOTH",
"532 -162 OFFCURVE",
"590 -140 OFFCURVE",
"630 -120 CURVE",
"645 -15 LINE",
"632 -19 LINE SMOOTH",
"605 -27 OFFCURVE",
"552 -39 OFFCURVE",
"516 -39 CURVE SMOOTH",
"468 -39 OFFCURVE",
"451 -18 OFFCURVE",
"444 6 CURVE",
"586 49 OFFCURVE",
"668 157 OFFCURVE",
"687 290 CURVE",
"703 410 OFFCURVE",
"704 393 OFFCURVE",
"704 437 CURVE SMOOTH",
"704 584 OFFCURVE",
"595 694 OFFCURVE",
"444 694 CURVE SMOOTH"
);
},
{
closed = 1;
nodes = (
"448 540 OFFCURVE",
"484 502 OFFCURVE",
"484 454 CURVE SMOOTH",
"484 448 OFFCURVE",
"484 443 OFFCURVE",
"483 440 CURVE",
"456 247 LINE SMOOTH",
"448 191 OFFCURVE",
"410 147 OFFCURVE",
"342 147 CURVE SMOOTH",
"337 147 LINE SMOOTH",
"286 147 OFFCURVE",
"250 184 OFFCURVE",
"250 233 CURVE SMOOTH",
"250 240 LINE SMOOTH",
"250 242 OFFCURVE",
"250 244 OFFCURVE",
"251 247 CURVE",
"278 440 LINE SMOOTH",
"286 496 OFFCURVE",
"324 540 OFFCURVE",
"392 540 CURVE SMOOTH",
"397 540 LINE SMOOTH"
);
}
);
width = 718;
}
);
leftKerningGroup = C;
rightKerningGroup = O;
unicode = 0051;
},
{
glyphname = R;
lastChange = "2014-09-05 18:35:56 +0000";
layers = (
{
anchors = (
{
name = bottom;
position = "{341, 0}";
},
{
name = top;
position = "{341, 686}";
}
);
background = {
anchors = (
{
name = bottom;
position = "{341, 0}";
},
{
name = top;
position = "{341, 686}";
}
);
paths = (
{
closed = 1;
nodes = (
"112 686 LINE",
"16 0 LINE",
"221 0 LINE",
"258 266 LINE",
"316 266 LINE SMOOTH",
"376 266 OFFCURVE",
"390 225 OFFCURVE",
"390 179 CURVE SMOOTH",
"390 148 OFFCURVE",
"382 115 OFFCURVE",
"382 88 CURVE SMOOTH",
"382 16 OFFCURVE",
"428 -10 OFFCURVE",
"508 -10 CURVE SMOOTH",
"547 -10 OFFCURVE",
"591 -6 OFFCURVE",
"630 9 CURVE",
"636 50 LINE",
"605 58 OFFCURVE",
"598 89 OFFCURVE",
"598 122 CURVE SMOOTH",
"598 157 OFFCURVE",
"605 185 OFFCURVE",
"605 213 CURVE SMOOTH",
"605 278 OFFCURVE",
"580 330 OFFCURVE",
"517 349 CURVE",
"518 354 LINE",
"597 367 OFFCURVE",
"665 439 OFFCURVE",
"665 538 CURVE SMOOTH",
"665 628 OFFCURVE",
"588 686 OFFCURVE",
"497 686 CURVE SMOOTH"
);
},
{
closed = 1;
nodes = (
"423 529 OFFCURVE",
"445 512 OFFCURVE",
"444 488 CURVE SMOOTH",
"443 469 LINE",
"439 441 OFFCURVE",
"419 419 OFFCURVE",
"386 419 CURVE SMOOTH",
"280 419 LINE",
"295 529 LINE",
"401 529 LINE SMOOTH"
);
}
);
};
layerId = UUID0;
paths = (
{
closed = 1;
nodes = (
"112 686 LINE",
"16 0 LINE",
"221 0 LINE",
"258 266 LINE",
"316 266 LINE SMOOTH",
"376 266 OFFCURVE",
"390 225 OFFCURVE",
"390 179 CURVE SMOOTH",
"390 148 OFFCURVE",
"382 115 OFFCURVE",
"382 88 CURVE SMOOTH",
"382 16 OFFCURVE",
"428 -10 OFFCURVE",
"508 -10 CURVE SMOOTH",
"547 -10 OFFCURVE",
"591 -6 OFFCURVE",
"630 9 CURVE",
"636 50 LINE",
"605 58 OFFCURVE",
"598 89 OFFCURVE",
"598 122 CURVE SMOOTH",
"598 157 OFFCURVE",
"605 185 OFFCURVE",
"605 213 CURVE SMOOTH",
"605 278 OFFCURVE",
"580 330 OFFCURVE",
"517 349 CURVE",
"518 354 LINE",
"597 367 OFFCURVE",
"665 439 OFFCURVE",
"665 538 CURVE SMOOTH",
"665 628 OFFCURVE",
"588 686 OFFCURVE",
"497 686 CURVE SMOOTH"
);
},
{
closed = 1;
nodes = (
"423 529 OFFCURVE",
"445 512 OFFCURVE",
"444 488 CURVE SMOOTH",
"443 469 LINE",
"439 441 OFFCURVE",
"419 419 OFFCURVE",
"386 419 CURVE SMOOTH",
"280 419 LINE",
"295 529 LINE",
"401 529 LINE SMOOTH"
);
}
);
width = 682;
}
);
leftKerningGroup = B;
unicode = 0052;
},
{
glyphname = S;
lastChange = "2014-09-05 18:40:12 +0000";
layers = (
{
anchors = (
{
name = bottom;
position = "{326, 0}";
},
{
name = top;
position = "{366, 686}";
}
);
background = {
anchors = (
{
name = bottom;
position = "{326, 0}";
},
{
name = top;
position = "{326, 686}";
}
);
paths = (
{
closed = 1;
nodes = (
"200 696 OFFCURVE",
"63 611 OFFCURVE",
"63 443 CURVE SMOOTH",
"63 221 OFFCURVE",
"394 284 OFFCURVE",
"394 199 CURVE SMOOTH",
"394 175 OFFCURVE",
"377 151 OFFCURVE",
"293 151 CURVE SMOOTH",
"228 151 OFFCURVE",
"208 180 OFFCURVE",
"208 212 CURVE SMOOTH",
"208 220 OFFCURVE",
"209 227 OFFCURVE",
"212 234 CURVE",
"18 234 LINE",
"15 215 OFFCURVE",
"12 196 OFFCURVE",
"12 177 CURVE SMOOTH",
"12 47 OFFCURVE",
"135 -10 OFFCURVE",
"276 -10 CURVE SMOOTH",
"544 -10 OFFCURVE",
"616 132 OFFCURVE",
"616 261 CURVE SMOOTH",
"616 469 OFFCURVE",
"281 409 OFFCURVE",
"281 497 CURVE SMOOTH",
"281 524 OFFCURVE",
"310 544 OFFCURVE",
"371 544 CURVE SMOOTH",
"421 544 OFFCURVE",
"446 520 OFFCURVE",
"445 493 CURVE SMOOTH",
"444 474 LINE",
"636 474 LINE",
"640 494 OFFCURVE",
"640 506 OFFCURVE",
"640 517 CURVE SMOOTH",
"640 641 OFFCURVE",
"529 696 OFFCURVE",
"388 696 CURVE SMOOTH"
);
}
);
};
layerId = UUID0;
paths = (
{
closed = 1;
nodes = (
"200 696 OFFCURVE",
"63 611 OFFCURVE",
"63 443 CURVE SMOOTH",
"63 221 OFFCURVE",
"394 284 OFFCURVE",
"394 199 CURVE SMOOTH",
"394 175 OFFCURVE",
"377 151 OFFCURVE",
"293 151 CURVE SMOOTH",
"228 151 OFFCURVE",
"208 180 OFFCURVE",
"208 212 CURVE SMOOTH",
"208 220 OFFCURVE",
"209 227 OFFCURVE",
"212 234 CURVE",
"18 234 LINE",
"15 215 OFFCURVE",
"12 196 OFFCURVE",
"12 177 CURVE SMOOTH",
"12 47 OFFCURVE",
"135 -10 OFFCURVE",
"276 -10 CURVE SMOOTH",
"544 -10 OFFCURVE",
"616 132 OFFCURVE",
"616 261 CURVE SMOOTH",
"616 469 OFFCURVE",
"281 409 OFFCURVE",
"281 497 CURVE SMOOTH",
"281 524 OFFCURVE",
"310 544 OFFCURVE",
"371 544 CURVE SMOOTH",
"421 544 OFFCURVE",
"446 520 OFFCURVE",
"445 493 CURVE SMOOTH",
"444 474 LINE",
"636 474 LINE",
"640 494 OFFCURVE",
"640 506 OFFCURVE",
"640 517 CURVE SMOOTH",
"640 641 OFFCURVE",
"529 696 OFFCURVE",
"388 696 CURVE SMOOTH"
);
}
);
width = 651;
}
);
leftKerningGroup = S;
rightKerningGroup = S;
unicode = 0053;
},
{
glyphname = T;
lastChange = "2014-09-05 18:40:33 +0000";
layers = (
{
anchors = (
{
name = bottom;
position = "{251, 0}";
},
{
name = center;
position = "{293, 343}";
},
{
name = top;
position = "{343, 686}";
}
);
background = {
anchors = (
{
name = bottom;
position = "{293, 0}";
},
{
name = center;
position = "{293, 343}";
},
{
name = top;
position = "{293, 686}";
}
);
paths = (
{
closed = 1;
nodes = (
"70 686 LINE",
"47 521 LINE",
"221 521 LINE",
"147 0 LINE",
"355 0 LINE",
"429 521 LINE",
"603 521 LINE",
"626 686 LINE"
);
}
);
};
layerId = UUID0;
paths = (
{
closed = 1;
nodes = (
"70 686 LINE",
"47 521 LINE",
"221 521 LINE",
"147 0 LINE",
"355 0 LINE",
"429 521 LINE",
"603 521 LINE",
"626 686 LINE"
);
}
);
width = 585;
}
);
unicode = 0054;
},
{
glyphname = U;
lastChange = "2014-09-05 18:57:15 +0000";
layers = (
{
anchors = (
{
name = ogonek;
position = "{428, 10}";
},
{
name = top;
position = "{404, 686}";
}
);
background = {
anchors = (
{
name = ogonek;
position = "{618, 10}";
},
{
name = top;
position = "{344, 686}";
}
);
paths = (
{
closed = 1;
nodes = (
"480 686 LINE",
"415 221 LINE SMOOTH",
"409 177 OFFCURVE",
"379 146 OFFCURVE",
"324 146 CURVE SMOOTH",
"283 146 OFFCURVE",
"252 171 OFFCURVE",
"252 210 CURVE SMOOTH",
"252 215 OFFCURVE",
"252 218 OFFCURVE",
"253 221 CURVE",
"318 686 LINE",
"107 686 LINE",
"42 218 LINE SMOOTH",
"40 206 OFFCURVE",
"39 194 OFFCURVE",
"39 182 CURVE SMOOTH",
"39 65 OFFCURVE",
"131 -10 OFFCURVE",
"280 -10 CURVE SMOOTH",
"323 -10 LINE SMOOTH",
"504 -10 OFFCURVE",
"604 80 OFFCURVE",
"625 218 CURVE",
"690 686 LINE"
);
}
);
};
layerId = UUID0;
paths = (
{
closed = 1;
nodes = (
"480 686 LINE",
"415 221 LINE SMOOTH",
"409 177 OFFCURVE",
"379 146 OFFCURVE",
"324 146 CURVE SMOOTH",
"283 146 OFFCURVE",
"252 171 OFFCURVE",
"252 210 CURVE SMOOTH",
"252 215 OFFCURVE",
"252 218 OFFCURVE",
"253 221 CURVE",
"318 686 LINE",
"107 686 LINE",
"42 218 LINE SMOOTH",
"40 206 OFFCURVE",
"39 194 OFFCURVE",
"39 182 CURVE SMOOTH",
"39 65 OFFCURVE",
"131 -10 OFFCURVE",
"280 -10 CURVE SMOOTH",
"323 -10 LINE SMOOTH",
"504 -10 OFFCURVE",
"604 80 OFFCURVE",
"625 218 CURVE",
"690 686 LINE"
);
}
);
width = 687;
}
);
leftKerningGroup = U;
rightKerningGroup = U;
unicode = 0055;
},
{
glyphname = V;
lastChange = "2014-09-05 18:35:56 +0000";
layers = (
{
background = {
paths = (
{
closed = 1;
nodes = (
"512 686 LINE",
"333 260 LINE",
"329 260 LINE",
"269 686 LINE",
"51 686 LINE",
"159 0 LINE",
"409 0 LINE",
"714 686 LINE"
);
}
);
};
layerId = UUID0;
paths = (
{
closed = 1;
nodes = (
"512 686 LINE",
"333 260 LINE",
"329 260 LINE",
"269 686 LINE",
"51 686 LINE",
"159 0 LINE",
"409 0 LINE",
"714 686 LINE"
);
}
);
width = 655;
}
);
unicode = 0056;
},
{
glyphname = W;
lastChange = "2014-09-05 18:40:53 +0000";
layers = (
{
anchors = (
{
name = top;
position = "{571, 686}";
}
);
background = {
anchors = (
{
name = top;
position = "{511, 686}";
}
);
paths = (
{
closed = 1;
nodes = (
"881 686 LINE",
"730 305 LINE",
"726 305 LINE",
"684 686 LINE",
"469 686 LINE",
"317 305 LINE",
"313 305 LINE",
"270 686 LINE",
"53 686 LINE",
"143 0 LINE",
"385 0 LINE",
"515 329 LINE",
"521 329 LINE",
"557 0 LINE",
"795 0 LINE",
"1078 686 LINE"
);
}
);
};
layerId = UUID0;
paths = (
{
closed = 1;
nodes = (
"881 686 LINE",
"730 305 LINE",
"726 305 LINE",
"684 686 LINE",
"469 686 LINE",
"317 305 LINE",
"313 305 LINE",
"270 686 LINE",
"53 686 LINE",
"143 0 LINE",
"385 0 LINE",
"515 329 LINE",
"521 329 LINE",
"557 0 LINE",
"795 0 LINE",
"1078 686 LINE"
);
}
);
width = 1022;
}
);
unicode = 0057;
},
{
glyphname = X;
lastChange = "2014-09-05 18:35:56 +0000";
layers = (
{
background = {
paths = (
{
closed = 1;
nodes = (
"499 686 LINE",
"379 511 LINE",
"375 511 LINE",
"305 686 LINE",
"62 686 LINE",
"209 363 LINE",
"-56 0 LINE",
"169 0 LINE",
"314 213 LINE",
"318 213 LINE",
"404 0 LINE",
"648 0 LINE",
"484 362 LINE",
"724 686 LINE"
);
}
);
};
layerId = UUID0;
paths = (
{
closed = 1;
nodes = (
"499 686 LINE",
"379 511 LINE",
"375 511 LINE",
"305 686 LINE",
"62 686 LINE",
"209 363 LINE",
"-56 0 LINE",
"169 0 LINE",
"314 213 LINE",
"318 213 LINE",
"404 0 LINE",
"648 0 LINE",
"484 362 LINE",
"724 686 LINE"
);
}
);
width = 672;
}
);
unicode = 0058;
},
{
glyphname = Y;
lastChange = "2014-09-05 18:41:00 +0000";
layers = (
{
anchors = (
{
name = top;
position = "{392, 686}";
}
);
background = {
anchors = (
{
name = top;
position = "{322, 686}";
}
);
paths = (
{
closed = 1;
nodes = (
"493 686 LINE",
"356 461 LINE",
"351 461 LINE",
"280 686 LINE",
"44 686 LINE",
"212 262 LINE",
"175 0 LINE",
"384 0 LINE",
"421 262 LINE",
"708 686 LINE"
);
}
);
};
layerId = UUID0;
paths = (
{
closed = 1;
nodes = (
"493 686 LINE",
"356 461 LINE",
"351 461 LINE",
"280 686 LINE",
"44 686 LINE",
"212 262 LINE",
"175 0 LINE",
"384 0 LINE",
"421 262 LINE",
"708 686 LINE"
);
}
);
width = 644;
}
);
leftKerningGroup = Y;
rightKerningGroup = Y;
unicode = 0059;
},
{
glyphname = Z;
lastChange = "2014-09-05 18:41:07 +0000";
layers = (
{
anchors = (
{
name = top;
position = "{334, 686}";
}
);
background = {
anchors = (
{
name = top;
position = "{304, 686}";
}
);
paths = (
{
closed = 1;
nodes = (
"93 686 LINE",
"70 526 LINE",
"315 526 LINE",
"-18 61 LINE",
"-27 0 LINE",
"543 0 LINE",
"566 161 LINE",
"294 161 LINE",
"623 625 LINE",
"632 686 LINE"
);
}
);
};
layerId = UUID0;
paths = (
{
closed = 1;
nodes = (
"93 686 LINE",
"70 526 LINE",
"315 526 LINE",
"-18 61 LINE",
"-27 0 LINE",
"543 0 LINE",
"566 161 LINE",
"294 161 LINE",
"623 625 LINE",
"632 686 LINE"
);
}
);
width = 607;
}
);
leftKerningGroup = Z;
rightKerningGroup = Z;
unicode = 005A;
},
{
glyphname = bracketleft;
lastChange = "2014-09-05 18:35:56 +0000";
layers = (
{
background = {
paths = (
{
closed = 1;
nodes = (
"112 686 LINE",
"-7 -161 LINE",
"230 -161 LINE",
"242 -78 LINE",
"154 -78 LINE",
"249 603 LINE",
"337 603 LINE",
"349 686 LINE"
);
}
);
};
layerId = UUID0;
paths = (
{
closed = 1;
nodes = (
"112 686 LINE",
"-7 -161 LINE",
"230 -161 LINE",
"242 -78 LINE",
"154 -78 LINE",
"249 603 LINE",
"337 603 LINE",
"349 686 LINE"
);
}
);
width = 318;
}
);
unicode = 005B;
},
{
glyphname = backslash;
lastChange = "2014-09-05 18:35:56 +0000";
layers = (
{
background = {
paths = (
{
closed = 1;
nodes = (
"68 686 LINE",
"436 -171 LINE",
"568 -171 LINE",
"199 686 LINE"
);
}
);
};
layerId = UUID0;
paths = (
{
closed = 1;
nodes = (
"68 686 LINE",
"436 -171 LINE",
"568 -171 LINE",
"199 686 LINE"
);
}
);
width = 648;
}
);
unicode = 005C;
},
{
glyphname = bracketright;
lastChange = "2014-09-05 18:35:56 +0000";
layers = (
{
background = {
paths = (
{
closed = 1;
nodes = (
"79 686 LINE",
"67 603 LINE",
"155 603 LINE",
"60 -78 LINE",
"-28 -78 LINE",
"-40 -161 LINE",
"197 -161 LINE",
"316 686 LINE"
);
}
);
};
layerId = UUID0;
paths = (
{
closed = 1;
nodes = (
"79 686 LINE",
"67 603 LINE",
"155 603 LINE",
"60 -78 LINE",
"-28 -78 LINE",
"-40 -161 LINE",
"197 -161 LINE",
"316 686 LINE"
);
}
);
width = 317;
}
);
unicode = 005D;
},
{
glyphname = asciicircum;
lastChange = "2014-09-05 18:35:56 +0000";
layers = (
{
background = {
paths = (
{
closed = 1;
nodes = (
"265 511 LINE",
"-2 0 LINE",
"137 0 LINE",
"314 350 LINE",
"392 0 LINE",
"530 0 LINE",
"404 511 LINE"
);
}
);
};
layerId = UUID0;
paths = (
{
closed = 1;
nodes = (
"265 511 LINE",
"-2 0 LINE",
"137 0 LINE",
"314 350 LINE",
"392 0 LINE",
"530 0 LINE",
"404 511 LINE"
);
}
);
width = 600;
}
);
unicode = 005E;
},
{
glyphname = underscore;
lastChange = "2014-09-05 18:35:56 +0000";
layers = (
{
background = {
paths = (
{
closed = 1;
nodes = (
"30 -65 LINE",
"22 -127 LINE",
"521 -127 LINE",
"530 -65 LINE"
);
}
);
};
layerId = UUID0;
paths = (
{
closed = 1;
nodes = (
"30 -65 LINE",
"22 -127 LINE",
"521 -127 LINE",
"530 -65 LINE"
);
}
);
width = 662;
}
);
unicode = 005F;
},
{
glyphname = grave;
lastChange = "2014-09-05 18:56:14 +0000";
layers = (
{
anchors = (
{
name = _top;
position = "{203, 511}";
}
);
background = {
anchors = (
{
name = _top;
position = "{163, 511}";
}
);
paths = (
{
closed = 1;
nodes = (
"54 720 LINE",
"51 717 LINE",
"157 575 LINE",
"275 575 LINE",
"205 720 LINE"
);
}
);
};
layerId = UUID0;
paths = (
{
closed = 1;
nodes = (
"54 720 LINE",
"51 717 LINE",
"157 575 LINE",
"275 575 LINE",
"205 720 LINE"
);
}
);
width = 333;
}
);
unicode = 0060;
},
{
glyphname = a;
lastChange = "2014-09-05 18:41:12 +0000";
layers = (
{
anchors = (
{
name = ogonek;
position = "{565, 10}";
},
{
name = top;
position = "{354, 511}";
}
);
background = {
anchors = (
{
name = ogonek;
position = "{565, 10}";
},
{
name = top;
position = "{314, 511}";
}
);
paths = (
{
closed = 1;
nodes = (
"86 521 OFFCURVE",
"17 337 OFFCURVE",
"17 193 CURVE SMOOTH",
"17 81 OFFCURVE",
"64 -10 OFFCURVE",
"188 -10 CURVE SMOOTH",
"245 -10 OFFCURVE",
"302 24 OFFCURVE",
"337 68 CURVE",
"353 0 OFFCURVE",
"413 -10 OFFCURVE",
"473 -10 CURVE SMOOTH",
"505 -10 OFFCURVE",
"547 -2 OFFCURVE",
"576 13 CURVE",
"591 123 LINE",
"580 116 OFFCURVE",
"567 110 OFFCURVE",
"554 110 CURVE SMOOTH",
"535 110 OFFCURVE",
"528 122 OFFCURVE",
"528 137 CURVE SMOOTH",
"528 169 OFFCURVE",
"553 344 OFFCURVE",
"581 511 CURVE",
"432 511 LINE",
"398 450 LINE",
"393 450 LINE",
"364 497 OFFCURVE",
"310 521 OFFCURVE",
"257 521 CURVE SMOOTH"
);
},
{
closed = 1;
nodes = (
"337 396 OFFCURVE",
"359 377 OFFCURVE",
"359 338 CURVE SMOOTH",
"359 329 OFFCURVE",
"353 290 OFFCURVE",
"348 253 CURVE SMOOTH",
"338 181 LINE SMOOTH",
"332 142 OFFCURVE",
"309 111 OFFCURVE",
"266 111 CURVE SMOOTH",
"235 111 OFFCURVE",
"213 135 OFFCURVE",
"213 170 CURVE SMOOTH",
"213 174 OFFCURVE",
"213 178 OFFCURVE",
"234 326 CURVE SMOOTH",
"239 365 OFFCURVE",
"269 396 OFFCURVE",
"306 396 CURVE SMOOTH"
);
}
);
};
layerId = UUID0;
paths = (
{
closed = 1;
nodes = (
"86 521 OFFCURVE",
"17 337 OFFCURVE",
"17 193 CURVE SMOOTH",
"17 81 OFFCURVE",
"64 -10 OFFCURVE",
"188 -10 CURVE SMOOTH",
"245 -10 OFFCURVE",
"302 24 OFFCURVE",
"337 68 CURVE",
"353 0 OFFCURVE",
"413 -10 OFFCURVE",
"473 -10 CURVE SMOOTH",
"505 -10 OFFCURVE",
"547 -2 OFFCURVE",
"576 13 CURVE",
"591 123 LINE",
"580 116 OFFCURVE",
"567 110 OFFCURVE",
"554 110 CURVE SMOOTH",
"535 110 OFFCURVE",
"528 122 OFFCURVE",
"528 137 CURVE SMOOTH",
"528 169 OFFCURVE",
"553 344 OFFCURVE",
"581 511 CURVE",
"432 511 LINE",
"398 450 LINE",
"393 450 LINE",
"364 497 OFFCURVE",
"310 521 OFFCURVE",
"257 521 CURVE SMOOTH"
);
},
{
closed = 1;
nodes = (
"337 396 OFFCURVE",
"359 377 OFFCURVE",
"359 338 CURVE SMOOTH",
"359 329 OFFCURVE",
"353 290 OFFCURVE",
"348 253 CURVE SMOOTH",
"338 181 LINE SMOOTH",
"332 142 OFFCURVE",
"309 111 OFFCURVE",
"266 111 CURVE SMOOTH",
"235 111 OFFCURVE",
"213 135 OFFCURVE",
"213 170 CURVE SMOOTH",
"213 174 OFFCURVE",
"213 178 OFFCURVE",
"234 326 CURVE SMOOTH",
"239 365 OFFCURVE",
"269 396 OFFCURVE",
"306 396 CURVE SMOOTH"
);
}
);
width = 628;
}
);
leftKerningGroup = a;
rightKerningGroup = a;
unicode = 0061;
},
{
glyphname = b;
lastChange = "2014-09-05 18:35:56 +0000";
layers = (
{
background = {
paths = (
{
closed = 1;
nodes = (
"109 720 LINE",
"9 0 LINE",
"78 0 LINE",
"156 75 LINE",
"187 20 OFFCURVE",
"240 -10 OFFCURVE",
"312 -10 CURVE SMOOTH",
"495 -10 OFFCURVE",
"572 162 OFFCURVE",
"572 326 CURVE SMOOTH",
"572 457 OFFCURVE",
"504 521 OFFCURVE",
"411 521 CURVE SMOOTH",
"341 521 OFFCURVE",
"294 482 OFFCURVE",
"270 458 CURVE",
"307 720 LINE"
);
},
{
closed = 1;
nodes = (
"354 396 OFFCURVE",
"376 377 OFFCURVE",
"376 338 CURVE SMOOTH",
"376 329 OFFCURVE",
"370 290 OFFCURVE",
"365 253 CURVE SMOOTH",
"355 181 LINE SMOOTH",
"349 142 OFFCURVE",
"326 111 OFFCURVE",
"283 111 CURVE SMOOTH",
"252 111 OFFCURVE",
"230 135 OFFCURVE",
"230 170 CURVE SMOOTH",
"230 174 OFFCURVE",
"230 178 OFFCURVE",
"251 326 CURVE SMOOTH",
"256 365 OFFCURVE",
"286 396 OFFCURVE",
"323 396 CURVE SMOOTH"
);
}
);
};
layerId = UUID0;
paths = (
{
closed = 1;
nodes = (
"109 720 LINE",
"9 0 LINE",
"78 0 LINE",
"156 75 LINE",
"187 20 OFFCURVE",
"240 -10 OFFCURVE",
"312 -10 CURVE SMOOTH",
"495 -10 OFFCURVE",
"572 162 OFFCURVE",
"572 326 CURVE SMOOTH",
"572 457 OFFCURVE",
"504 521 OFFCURVE",
"411 521 CURVE SMOOTH",
"341 521 OFFCURVE",
"294 482 OFFCURVE",
"270 458 CURVE",
"307 720 LINE"
);
},
{
closed = 1;
nodes = (
"354 396 OFFCURVE",
"376 377 OFFCURVE",
"376 338 CURVE SMOOTH",
"376 329 OFFCURVE",
"370 290 OFFCURVE",
"365 253 CURVE SMOOTH",
"355 181 LINE SMOOTH",
"349 142 OFFCURVE",
"326 111 OFFCURVE",
"283 111 CURVE SMOOTH",
"252 111 OFFCURVE",
"230 135 OFFCURVE",
"230 170 CURVE SMOOTH",
"230 174 OFFCURVE",
"230 178 OFFCURVE",
"251 326 CURVE SMOOTH",
"256 365 OFFCURVE",
"286 396 OFFCURVE",
"323 396 CURVE SMOOTH"
);
}
);
width = 599;
}
);
rightKerningGroup = b;
unicode = 0062;
},
{
glyphname = c;
lastChange = "2014-09-05 18:41:23 +0000";
layers = (
{
anchors = (
{
name = bottom;
position = "{284, 0}";
},
{
name = top;
position = "{324, 511}";
}
);
background = {
anchors = (
{
name = bottom;
position = "{284, 0}";
},
{
name = top;
position = "{284, 511}";
}
);
paths = (
{
closed = 1;
nodes = (
"123 521 OFFCURVE",
"16 374 OFFCURVE",
"16 198 CURVE SMOOTH",
"16 89 OFFCURVE",
"94 -10 OFFCURVE",
"264 -10 CURVE SMOOTH",
"409 -10 OFFCURVE",
"512 68 OFFCURVE",
"533 207 CURVE",
"375 207 LINE",
"371 181 LINE SMOOTH",
"366 150 OFFCURVE",
"343 111 OFFCURVE",
"288 111 CURVE SMOOTH",
"245 111 OFFCURVE",
"221 136 OFFCURVE",
"221 171 CURVE SMOOTH",
"221 187 OFFCURVE",
"230 260 OFFCURVE",
"243 330 CURVE",
"248 369 OFFCURVE",
"275 400 OFFCURVE",
"322 400 CURVE SMOOTH",
"357 400 OFFCURVE",
"381 374 OFFCURVE",
"381 339 CURVE SMOOTH",
"381 333 OFFCURVE",
"378 318 OFFCURVE",
"378 304 CURVE",
"546 304 LINE",
"548 316 OFFCURVE",
"549 328 OFFCURVE",
"549 340 CURVE SMOOTH",
"549 411 OFFCURVE",
"513 521 OFFCURVE",
"326 521 CURVE SMOOTH"
);
}
);
};
layerId = UUID0;
paths = (
{
closed = 1;
nodes = (
"123 521 OFFCURVE",
"16 374 OFFCURVE",
"16 198 CURVE SMOOTH",
"16 89 OFFCURVE",
"94 -10 OFFCURVE",
"264 -10 CURVE SMOOTH",
"409 -10 OFFCURVE",
"512 68 OFFCURVE",
"533 207 CURVE",
"375 207 LINE",
"371 181 LINE SMOOTH",
"366 150 OFFCURVE",
"343 111 OFFCURVE",
"288 111 CURVE SMOOTH",
"245 111 OFFCURVE",
"221 136 OFFCURVE",
"221 171 CURVE SMOOTH",
"221 187 OFFCURVE",
"230 260 OFFCURVE",
"243 330 CURVE",
"248 369 OFFCURVE",
"275 400 OFFCURVE",
"322 400 CURVE SMOOTH",
"357 400 OFFCURVE",
"381 374 OFFCURVE",
"381 339 CURVE SMOOTH",
"381 333 OFFCURVE",
"378 318 OFFCURVE",
"378 304 CURVE",
"546 304 LINE",
"548 316 OFFCURVE",
"549 328 OFFCURVE",
"549 340 CURVE SMOOTH",
"549 411 OFFCURVE",
"513 521 OFFCURVE",
"326 521 CURVE SMOOTH"
);
}
);
width = 568;
}
);
leftKerningGroup = c;
rightKerningGroup = c;
unicode = 0063;
},
{
glyphname = d;
lastChange = "2014-09-08 21:30:58 +0000";
layers = (
{
anchors = (
{
name = center;
position = "{320, 256}";
},
{
name = topright;
position = "{756, 686}";
}
);
background = {
anchors = (
{
name = center;
position = "{320, 256}";
},
{
name = topright;
position = "{655, 511}";
}
);
paths = (
{
closed = 1;
nodes = (
"413 720 LINE",
"376 458 LINE",
"360 493 OFFCURVE",
"324 521 OFFCURVE",
"253 521 CURVE SMOOTH",
"137 521 OFFCURVE",
"18 413 OFFCURVE",
"18 193 CURVE SMOOTH",
"18 56 OFFCURVE",
"89 -10 OFFCURVE",
"197 -10 CURVE SMOOTH",
"271 -10 OFFCURVE",
"310 24 OFFCURVE",
"342 59 CURVE",
"360 -1 OFFCURVE",
"418 -10 OFFCURVE",
"475 -10 CURVE SMOOTH",
"507 -10 OFFCURVE",
"549 -2 OFFCURVE",
"578 13 CURVE",
"593 123 LINE",
"582 116 OFFCURVE",
"569 110 OFFCURVE",
"556 110 CURVE SMOOTH",
"533 110 OFFCURVE",
"531 127 OFFCURVE",
"531 146 CURVE",
"530 158 OFFCURVE",
"551 302 OFFCURVE",
"571 442 CURVE SMOOTH",
"611 720 LINE"
);
},
{
closed = 1;
nodes = (
"336 396 OFFCURVE",
"358 377 OFFCURVE",
"358 338 CURVE SMOOTH",
"358 329 OFFCURVE",
"352 290 OFFCURVE",
"347 253 CURVE SMOOTH",
"337 181 LINE SMOOTH",
"331 142 OFFCURVE",
"308 111 OFFCURVE",
"265 111 CURVE SMOOTH",
"234 111 OFFCURVE",
"212 135 OFFCURVE",
"212 170 CURVE SMOOTH",
"212 174 OFFCURVE",
"212 178 OFFCURVE",
"233 326 CURVE SMOOTH",
"238 365 OFFCURVE",
"268 396 OFFCURVE",
"305 396 CURVE SMOOTH"
);
}
);
};
layerId = UUID0;
paths = (
{
closed = 1;
nodes = (
"413 720 LINE",
"376 458 LINE",
"360 493 OFFCURVE",
"324 521 OFFCURVE",
"253 521 CURVE SMOOTH",
"137 521 OFFCURVE",
"18 413 OFFCURVE",
"18 193 CURVE SMOOTH",
"18 56 OFFCURVE",
"89 -10 OFFCURVE",
"197 -10 CURVE SMOOTH",
"271 -10 OFFCURVE",
"310 24 OFFCURVE",
"342 59 CURVE",
"360 -1 OFFCURVE",
"418 -10 OFFCURVE",
"475 -10 CURVE SMOOTH",
"507 -10 OFFCURVE",
"549 -2 OFFCURVE",
"578 13 CURVE",
"593 123 LINE",
"582 116 OFFCURVE",
"569 110 OFFCURVE",
"556 110 CURVE SMOOTH",
"533 110 OFFCURVE",
"531 127 OFFCURVE",
"531 146 CURVE",
"530 158 OFFCURVE",
"551 302 OFFCURVE",
"571 442 CURVE SMOOTH",
"611 720 LINE"
);
},
{
closed = 1;
nodes = (
"336 396 OFFCURVE",
"358 377 OFFCURVE",
"358 338 CURVE SMOOTH",
"358 329 OFFCURVE",
"352 290 OFFCURVE",
"347 253 CURVE SMOOTH",
"337 181 LINE SMOOTH",
"331 142 OFFCURVE",
"308 111 OFFCURVE",
"265 111 CURVE SMOOTH",
"234 111 OFFCURVE",
"212 135 OFFCURVE",
"212 170 CURVE SMOOTH",
"212 174 OFFCURVE",
"212 178 OFFCURVE",
"233 326 CURVE SMOOTH",
"238 365 OFFCURVE",
"268 396 OFFCURVE",
"305 396 CURVE SMOOTH"
);
}
);
width = 639;
}
);
leftKerningGroup = d;
unicode = 0064;
},
{
glyphname = e;
lastChange = "2014-09-05 18:57:33 +0000";
layers = (
{
anchors = (
{
name = bottom;
position = "{300, 0}";
},
{
name = ogonek;
position = "{360, 10}";
},
{
name = top;
position = "{340, 511}";
}
);
background = {
anchors = (
{
name = bottom;
position = "{300, 0}";
},
{
name = ogonek;
position = "{540, 10}";
},
{
name = top;
position = "{300, 511}";
}
);
paths = (
{
closed = 1;
nodes = (
"332 521 LINE SMOOTH",
"148 521 OFFCURVE",
"16 401 OFFCURVE",
"16 200 CURVE SMOOTH",
"16 67 OFFCURVE",
"120 -10 OFFCURVE",
"264 -10 CURVE SMOOTH",
"279 -10 LINE SMOOTH",
"436 -10 OFFCURVE",
"541 79 OFFCURVE",
"557 192 CURVE",
"374 192 LINE",
"367 143 OFFCURVE",
"338 111 OFFCURVE",
"290 111 CURVE SMOOTH",
"251 111 OFFCURVE",
"222 131 OFFCURVE",
"222 170 CURVE",
"221 175 OFFCURVE",
"224 191 OFFCURVE",
"226 204 CURVE SMOOTH",
"230 229 LINE",
"563 229 LINE",
"568 266 OFFCURVE",
"571 288 OFFCURVE",
"572 303 CURVE SMOOTH",
"574 330 LINE",
"574 443 OFFCURVE",
"500 521 OFFCURVE",
"357 521 CURVE SMOOTH"
);
},
{
closed = 1;
nodes = (
"358 400 OFFCURVE",
"382 374 OFFCURVE",
"382 339 CURVE SMOOTH",
"382 327 OFFCURVE",
"380 320 OFFCURVE",
"380 316 CURVE",
"242 316 LINE",
"244 330 LINE SMOOTH",
"249 369 OFFCURVE",
"283 400 OFFCURVE",
"323 400 CURVE SMOOTH"
);
}
);
};
layerId = UUID0;
paths = (
{
closed = 1;
nodes = (
"332 521 LINE SMOOTH",
"148 521 OFFCURVE",
"16 401 OFFCURVE",
"16 200 CURVE SMOOTH",
"16 67 OFFCURVE",
"120 -10 OFFCURVE",
"264 -10 CURVE SMOOTH",
"279 -10 LINE SMOOTH",
"436 -10 OFFCURVE",
"541 79 OFFCURVE",
"557 192 CURVE",
"374 192 LINE",
"367 143 OFFCURVE",
"338 111 OFFCURVE",
"290 111 CURVE SMOOTH",
"251 111 OFFCURVE",
"222 131 OFFCURVE",
"222 170 CURVE",
"221 175 OFFCURVE",
"224 191 OFFCURVE",
"226 204 CURVE SMOOTH",
"230 229 LINE",
"563 229 LINE",
"568 266 OFFCURVE",
"571 288 OFFCURVE",
"572 303 CURVE SMOOTH",
"574 330 LINE",
"574 443 OFFCURVE",
"500 521 OFFCURVE",
"357 521 CURVE SMOOTH"
);
},
{
closed = 1;
nodes = (
"358 400 OFFCURVE",
"382 374 OFFCURVE",
"382 339 CURVE SMOOTH",
"382 327 OFFCURVE",
"380 320 OFFCURVE",
"380 316 CURVE",
"242 316 LINE",
"244 330 LINE SMOOTH",
"249 369 OFFCURVE",
"283 400 OFFCURVE",
"323 400 CURVE SMOOTH"
);
}
);
width = 600;
}
);
leftKerningGroup = c;
rightKerningGroup = e;
unicode = 0065;
},
{
glyphname = f;
lastChange = "2014-09-05 18:35:56 +0000";
layers = (
{
background = {
paths = (
{
closed = 1;
nodes = (
"229 728 OFFCURVE",
"144 689 OFFCURVE",
"129 577 CURVE SMOOTH",
"120 511 LINE",
"56 511 LINE",
"36 369 LINE",
"100 369 LINE",
"49 4 LINE",
"42 -36 OFFCURVE",
"26 -65 OFFCURVE",
"-18 -65 CURVE SMOOTH",
"-35 -65 OFFCURVE",
"-62 -60 OFFCURVE",
"-78 -53 CURVE",
"-94 -165 LINE",
"-62 -181 OFFCURVE",
"1 -187 OFFCURVE",
"37 -187 CURVE SMOOTH",
"143 -187 OFFCURVE",
"228 -136 OFFCURVE",
"243 -26 CURVE SMOOTH",
"298 369 LINE",
"418 369 LINE",
"438 511 LINE",
"318 511 LINE",
"326 559 OFFCURVE",
"325 606 OFFCURVE",
"388 606 CURVE SMOOTH",
"407 606 OFFCURVE",
"432 601 OFFCURVE",
"449 596 CURVE",
"464 706 LINE",
"433 722 OFFCURVE",
"368 728 OFFCURVE",
"334 728 CURVE SMOOTH"
);
}
);
};
layerId = UUID0;
paths = (
{
closed = 1;
nodes = (
"229 728 OFFCURVE",
"144 689 OFFCURVE",
"129 577 CURVE SMOOTH",
"120 511 LINE",
"56 511 LINE",
"36 369 LINE",
"100 369 LINE",
"49 4 LINE",
"42 -36 OFFCURVE",
"26 -65 OFFCURVE",
"-18 -65 CURVE SMOOTH",
"-35 -65 OFFCURVE",
"-62 -60 OFFCURVE",
"-78 -53 CURVE",
"-94 -165 LINE",
"-62 -181 OFFCURVE",
"1 -187 OFFCURVE",
"37 -187 CURVE SMOOTH",
"143 -187 OFFCURVE",
"228 -136 OFFCURVE",
"243 -26 CURVE SMOOTH",
"298 369 LINE",
"418 369 LINE",
"438 511 LINE",
"318 511 LINE",
"326 559 OFFCURVE",
"325 606 OFFCURVE",
"388 606 CURVE SMOOTH",
"407 606 OFFCURVE",
"432 601 OFFCURVE",
"449 596 CURVE",
"464 706 LINE",
"433 722 OFFCURVE",
"368 728 OFFCURVE",
"334 728 CURVE SMOOTH"
);
}
);
width = 418;
}
);
leftKerningGroup = f;
unicode = 0066;
},
{
glyphname = g;
lastChange = "2014-09-05 18:41:37 +0000";
layers = (
{
anchors = (
{
name = top;
position = "{330, 511}";
}
);
background = {
anchors = (
{
name = top;
position = "{300, 511}";
}
);
paths = (
{
closed = 1;
nodes = (
"92 521 OFFCURVE",
"18 355 OFFCURVE",
"18 216 CURVE SMOOTH",
"18 112 OFFCURVE",
"64 19 OFFCURVE",
"179 19 CURVE SMOOTH",
"234 19 OFFCURVE",
"284 43 OFFCURVE",
"321 82 CURVE",
"312 7 LINE",
"307 -21 OFFCURVE",
"298 -63 OFFCURVE",
"252 -63 CURVE SMOOTH",
"211 -63 OFFCURVE",
"196 -36 OFFCURVE",
"196 -19 CURVE",
"-3 -19 LINE",
"-3 -147 OFFCURVE",
"121 -186 OFFCURVE",
"245 -186 CURVE SMOOTH",
"381 -186 OFFCURVE",
"491 -116 OFFCURVE",
"513 40 CURVE SMOOTH",
"579 511 LINE",
"509 511 LINE",
"430 436 LINE",
"398 495 OFFCURVE",
"340 521 OFFCURVE",
"275 521 CURVE SMOOTH"
);
},
{
closed = 1;
nodes = (
"334 400 OFFCURVE",
"356 381 OFFCURVE",
"356 342 CURVE SMOOTH",
"356 325 OFFCURVE",
"347 270 OFFCURVE",
"339 214 CURVE SMOOTH",
"334 175 OFFCURVE",
"310 144 OFFCURVE",
"267 144 CURVE SMOOTH",
"236 144 OFFCURVE",
"214 168 OFFCURVE",
"214 203 CURVE SMOOTH",
"214 207 OFFCURVE",
"217 239 OFFCURVE",
"222 270 CURVE SMOOTH",
"231 330 LINE SMOOTH",
"237 371 OFFCURVE",
"267 400 OFFCURVE",
"303 400 CURVE SMOOTH"
);
}
);
};
layerId = UUID0;
paths = (
{
closed = 1;
nodes = (
"92 521 OFFCURVE",
"18 355 OFFCURVE",
"18 216 CURVE SMOOTH",
"18 112 OFFCURVE",
"64 19 OFFCURVE",
"179 19 CURVE SMOOTH",
"234 19 OFFCURVE",
"284 43 OFFCURVE",
"321 82 CURVE",
"312 7 LINE",
"307 -21 OFFCURVE",
"298 -63 OFFCURVE",
"252 -63 CURVE SMOOTH",
"211 -63 OFFCURVE",
"196 -36 OFFCURVE",
"196 -19 CURVE",
"-3 -19 LINE",
"-3 -147 OFFCURVE",
"121 -186 OFFCURVE",
"245 -186 CURVE SMOOTH",
"381 -186 OFFCURVE",
"491 -116 OFFCURVE",
"513 40 CURVE SMOOTH",
"579 511 LINE",
"509 511 LINE",
"430 436 LINE",
"398 495 OFFCURVE",
"340 521 OFFCURVE",
"275 521 CURVE SMOOTH"
);
},
{
closed = 1;
nodes = (
"334 400 OFFCURVE",
"356 381 OFFCURVE",
"356 342 CURVE SMOOTH",
"356 325 OFFCURVE",
"347 270 OFFCURVE",
"339 214 CURVE SMOOTH",
"334 175 OFFCURVE",
"310 144 OFFCURVE",
"267 144 CURVE SMOOTH",
"236 144 OFFCURVE",
"214 168 OFFCURVE",
"214 203 CURVE SMOOTH",
"214 207 OFFCURVE",
"217 239 OFFCURVE",
"222 270 CURVE SMOOTH",
"231 330 LINE SMOOTH",
"237 371 OFFCURVE",
"267 400 OFFCURVE",
"303 400 CURVE SMOOTH"
);
}
);
width = 600;
}
);
unicode = 0067;
},
{
glyphname = h;
lastChange = "2014-09-05 18:41:42 +0000";
layers = (
{
anchors = (
{
name = center;
position = "{299, 256}";
},
{
name = top;
position = "{214, 686}";
}
);
background = {
anchors = (
{
name = center;
position = "{299, 256}";
},
{
name = top;
position = "{299, 511}";
}
);
paths = (
{
closed = 1;
nodes = (
"109 720 LINE",
"9 0 LINE",
"206 0 LINE",
"251 320 LINE SMOOTH",
"256 353 OFFCURVE",
"277 380 OFFCURVE",
"312 380 CURVE SMOOTH",
"343 380 OFFCURVE",
"358 358 OFFCURVE",
"358 333 CURVE SMOOTH",
"358 313 OFFCURVE",
"356 323 OFFCURVE",
"312 0 CURVE",
"510 0 LINE",
"553 313 OFFCURVE",
"563 360 OFFCURVE",
"563 380 CURVE SMOOTH",
"563 392 LINE SMOOTH",
"563 428 OFFCURVE",
"548 521 OFFCURVE",
"420 521 CURVE SMOOTH",
"335 521 OFFCURVE",
"288 478 OFFCURVE",
"269 451 CURVE",
"307 720 LINE"
);
}
);
};
layerId = UUID0;
paths = (
{
closed = 1;
nodes = (
"109 720 LINE",
"9 0 LINE",
"206 0 LINE",
"251 320 LINE SMOOTH",
"256 353 OFFCURVE",
"277 380 OFFCURVE",
"312 380 CURVE SMOOTH",
"343 380 OFFCURVE",
"358 358 OFFCURVE",
"358 333 CURVE SMOOTH",
"358 313 OFFCURVE",
"356 323 OFFCURVE",
"312 0 CURVE",
"510 0 LINE",
"553 313 OFFCURVE",
"563 360 OFFCURVE",
"563 380 CURVE SMOOTH",
"563 392 LINE SMOOTH",
"563 428 OFFCURVE",
"548 521 OFFCURVE",
"420 521 CURVE SMOOTH",
"335 521 OFFCURVE",
"288 478 OFFCURVE",
"269 451 CURVE",
"307 720 LINE"
);
}
);
width = 597;
}
);
rightKerningGroup = h;
unicode = 0068;
},
{
glyphname = i;
lastChange = "2014-09-05 18:35:56 +0000";
layers = (
{
background = {
paths = (
{
closed = 1;
nodes = (
"80 511 LINE",
"9 0 LINE",
"205 0 LINE",
"277 511 LINE"
);
},
{
closed = 1;
nodes = (
"109 720 LINE",
"89 577 LINE",
"286 577 LINE",
"306 720 LINE"
);
}
);
};
layerId = UUID0;
paths = (
{
closed = 1;
nodes = (
"80 511 LINE",
"9 0 LINE",
"205 0 LINE",
"277 511 LINE"
);
},
{
closed = 1;
nodes = (
"109 720 LINE",
"89 577 LINE",
"286 577 LINE",
"306 720 LINE"
);
}
);
width = 296;
}
);
leftKerningGroup = i;
rightKerningGroup = i;
unicode = 0069;
},
{
glyphname = j;
lastChange = "2014-09-05 18:35:56 +0000";
layers = (
{
background = {
paths = (
{
closed = 1;
nodes = (
"80 511 LINE",
"9 4 LINE SMOOTH",
"1 -55 OFFCURVE",
"-28 -65 OFFCURVE",
"-56 -65 CURVE SMOOTH",
"-71 -65 OFFCURVE",
"-101 -60 OFFCURVE",
"-116 -53 CURVE",
"-132 -165 LINE",
"-100 -178 OFFCURVE",
"-37 -187 OFFCURVE",
"-2 -187 CURVE SMOOTH",
"107 -187 OFFCURVE",
"188 -134 OFFCURVE",
"203 -26 CURVE SMOOTH",
"279 511 LINE"
);
},
{
closed = 1;
nodes = (
"109 720 LINE",
"89 577 LINE",
"288 577 LINE",
"308 720 LINE"
);
}
);
};
layerId = UUID0;
paths = (
{
closed = 1;
nodes = (
"80 511 LINE",
"9 4 LINE SMOOTH",
"1 -55 OFFCURVE",
"-28 -65 OFFCURVE",
"-56 -65 CURVE SMOOTH",
"-71 -65 OFFCURVE",
"-101 -60 OFFCURVE",
"-116 -53 CURVE",
"-132 -165 LINE",
"-100 -178 OFFCURVE",
"-37 -187 OFFCURVE",
"-2 -187 CURVE SMOOTH",
"107 -187 OFFCURVE",
"188 -134 OFFCURVE",
"203 -26 CURVE SMOOTH",
"279 511 LINE"
);
},
{
closed = 1;
nodes = (
"109 720 LINE",
"89 577 LINE",
"288 577 LINE",
"308 720 LINE"
);
}
);
width = 298;
}
);
leftKerningGroup = i;
rightKerningGroup = i;
unicode = 006A;
},
{
glyphname = k;
lastChange = "2014-09-05 18:35:56 +0000";
layers = (
{
anchors = (
{
name = bottom;
position = "{301, 0}";
}
);
background = {
anchors = (
{
name = bottom;
position = "{301, 0}";
}
);
paths = (
{
closed = 1;
nodes = (
"109 720 LINE",
"9 0 LINE",
"206 0 LINE",
"222 114 LINE",
"262 145 LINE",
"332 0 LINE",
"565 0 LINE",
"422 280 LINE",
"634 511 LINE",
"408 511 LINE",
"251 321 LINE",
"307 720 LINE"
);
}
);
};
layerId = UUID0;
paths = (
{
closed = 1;
nodes = (
"109 720 LINE",
"9 0 LINE",
"206 0 LINE",
"222 114 LINE",
"262 145 LINE",
"332 0 LINE",
"565 0 LINE",
"422 280 LINE",
"634 511 LINE",
"408 511 LINE",
"251 321 LINE",
"307 720 LINE"
);
}
);
width = 601;
}
);
unicode = 006B;
},
{
glyphname = l;
lastChange = "2014-09-09 04:47:57 +0000";
layers = (
{
anchors = (
{
name = bottom;
position = "{108, 0}";
},
{
name = top;
position = "{203, 686}";
},
{
name = topright;
position = "{461, 686}";
}
);
background = {
anchors = (
{
name = bottom;
position = "{149, 0}";
},
{
name = top;
position = "{149, 511}";
},
{
name = topright;
position = "{277, 511}";
}
);
paths = (
{
closed = 1;
nodes = (
"109 720 LINE",
"9 0 LINE",
"206 0 LINE",
"307 720 LINE"
);
}
);
};
layerId = UUID0;
paths = (
{
closed = 1;
nodes = (
"109 720 LINE",
"9 0 LINE",
"206 0 LINE",
"307 720 LINE"
);
}
);
width = 297;
}
);
leftKerningGroup = l;
rightKerningGroup = l;
unicode = 006C;
},
{
glyphname = m;
lastChange = "2014-09-05 18:35:56 +0000";
layers = (
{
background = {
paths = (
{
closed = 1;
nodes = (
"613 521 OFFCURVE",
"568 488 OFFCURVE",
"535 443 CURVE",
"516 490 OFFCURVE",
"478 521 OFFCURVE",
"402 521 CURVE SMOOTH",
"313 521 OFFCURVE",
"256 463 OFFCURVE",
"238 437 CURVE",
"228 511 LINE",
"80 511 LINE",
"8 0 LINE",
"202 0 LINE",
"247 324 LINE SMOOTH",
"251 357 OFFCURVE",
"273 379 OFFCURVE",
"303 379 CURVE SMOOTH",
"326 379 OFFCURVE",
"344 361 OFFCURVE",
"344 334 CURVE SMOOTH",
"344 310 OFFCURVE",
"318 154 OFFCURVE",
"298 0 CURVE",
"492 0 LINE",
"537 324 LINE SMOOTH",
"541 357 OFFCURVE",
"563 379 OFFCURVE",
"593 379 CURVE SMOOTH",
"616 379 OFFCURVE",
"634 361 OFFCURVE",
"634 334 CURVE SMOOTH",
"634 310 OFFCURVE",
"608 154 OFFCURVE",
"588 0 CURVE",
"782 0 LINE",
"793 67 OFFCURVE",
"800 129 OFFCURVE",
"808 184 CURVE SMOOTH",
"818 254 LINE SMOOTH",
"828 322 OFFCURVE",
"835 380 OFFCURVE",
"835 392 CURVE SMOOTH",
"835 465 OFFCURVE",
"788 521 OFFCURVE",
"692 521 CURVE SMOOTH"
);
}
);
};
layerId = UUID0;
paths = (
{
closed = 1;
nodes = (
"613 521 OFFCURVE",
"568 488 OFFCURVE",
"535 443 CURVE",
"516 490 OFFCURVE",
"478 521 OFFCURVE",
"402 521 CURVE SMOOTH",
"313 521 OFFCURVE",
"256 463 OFFCURVE",
"238 437 CURVE",
"228 511 LINE",
"80 511 LINE",
"8 0 LINE",
"202 0 LINE",
"247 324 LINE SMOOTH",
"251 357 OFFCURVE",
"273 379 OFFCURVE",
"303 379 CURVE SMOOTH",
"326 379 OFFCURVE",
"344 361 OFFCURVE",
"344 334 CURVE SMOOTH",
"344 310 OFFCURVE",
"318 154 OFFCURVE",
"298 0 CURVE",
"492 0 LINE",
"537 324 LINE SMOOTH",
"541 357 OFFCURVE",
"563 379 OFFCURVE",
"593 379 CURVE SMOOTH",
"616 379 OFFCURVE",
"634 361 OFFCURVE",
"634 334 CURVE SMOOTH",
"634 310 OFFCURVE",
"608 154 OFFCURVE",
"588 0 CURVE",
"782 0 LINE",
"793 67 OFFCURVE",
"800 129 OFFCURVE",
"808 184 CURVE SMOOTH",
"818 254 LINE SMOOTH",
"828 322 OFFCURVE",
"835 380 OFFCURVE",
"835 392 CURVE SMOOTH",
"835 465 OFFCURVE",
"788 521 OFFCURVE",
"692 521 CURVE SMOOTH"
);
}
);
width = 869;
}
);
leftKerningGroup = m;
rightKerningGroup = h;
unicode = 006D;
},
{
glyphname = n;
lastChange = "2014-09-05 18:42:06 +0000";
layers = (
{
anchors = (
{
name = bottom;
position = "{299, 0}";
},
{
name = top;
position = "{369, 511}";
}
);
background = {
anchors = (
{
name = bottom;
position = "{299, 0}";
},
{
name = top;
position = "{299, 511}";
}
);
paths = (
{
closed = 1;
nodes = (
"303 521 OFFCURVE",
"254 458 OFFCURVE",
"238 437 CURVE",
"229 511 LINE",
"80 511 LINE",
"8 0 LINE",
"206 0 LINE",
"251 320 LINE SMOOTH",
"256 353 OFFCURVE",
"277 380 OFFCURVE",
"312 380 CURVE SMOOTH",
"343 380 OFFCURVE",
"358 358 OFFCURVE",
"358 330 CURVE SMOOTH",
"358 306 OFFCURVE",
"332 151 OFFCURVE",
"312 0 CURVE",
"510 0 LINE",
"521 68 OFFCURVE",
"528 130 OFFCURVE",
"536 185 CURVE SMOOTH",
"546 255 LINE SMOOTH",
"556 324 OFFCURVE",
"563 380 OFFCURVE",
"563 392 CURVE SMOOTH",
"563 465 OFFCURVE",
"515 521 OFFCURVE",
"419 521 CURVE SMOOTH"
);
}
);
};
layerId = UUID0;
paths = (
{
closed = 1;
nodes = (
"303 521 OFFCURVE",
"254 458 OFFCURVE",
"238 437 CURVE",
"229 511 LINE",
"80 511 LINE",
"8 0 LINE",
"206 0 LINE",
"251 320 LINE SMOOTH",
"256 353 OFFCURVE",
"277 380 OFFCURVE",
"312 380 CURVE SMOOTH",
"343 380 OFFCURVE",
"358 358 OFFCURVE",
"358 330 CURVE SMOOTH",
"358 306 OFFCURVE",
"332 151 OFFCURVE",
"312 0 CURVE",
"510 0 LINE",
"521 68 OFFCURVE",
"528 130 OFFCURVE",
"536 185 CURVE SMOOTH",
"546 255 LINE SMOOTH",
"556 324 OFFCURVE",
"563 380 OFFCURVE",
"563 392 CURVE SMOOTH",
"563 465 OFFCURVE",
"515 521 OFFCURVE",
"419 521 CURVE SMOOTH"
);
}
);
width = 597;
}
);
leftKerningGroup = m;
rightKerningGroup = h;
unicode = 006E;
},
{
glyphname = o;
lastChange = "2014-09-05 18:42:09 +0000";
layers = (
{
anchors = (
{
name = top;
position = "{357, 511}";
}
);
background = {
anchors = (
{
name = top;
position = "{307, 511}";
}
);
paths = (
{
closed = 1;
nodes = (
"323 521 LINE SMOOTH",
"111 521 OFFCURVE",
"16 354 OFFCURVE",
"16 205 CURVE SMOOTH",
"16 77 OFFCURVE",
"102 -10 OFFCURVE",
"265 -10 CURVE SMOOTH",
"280 -10 LINE SMOOTH",
"461 -10 OFFCURVE",
"587 123 OFFCURVE",
"587 305 CURVE SMOOTH",
"587 435 OFFCURVE",
"500 521 OFFCURVE",
"340 521 CURVE SMOOTH"
);
},
{
closed = 1;
nodes = (
"359 400 OFFCURVE",
"382 370 OFFCURVE",
"382 339 CURVE",
"381 331 OFFCURVE",
"376 291 OFFCURVE",
"371 254 CURVE SMOOTH",
"360 181 LINE SMOOTH",
"354 142 OFFCURVE",
"324 111 OFFCURVE",
"281 111 CURVE SMOOTH",
"246 111 OFFCURVE",
"221 136 OFFCURVE",
"221 171 CURVE SMOOTH",
"221 181 OFFCURVE",
"231 256 OFFCURVE",
"243 330 CURVE SMOOTH",
"249 369 OFFCURVE",
"281 400 OFFCURVE",
"322 400 CURVE SMOOTH"
);
}
);
};
layerId = UUID0;
paths = (
{
closed = 1;
nodes = (
"323 521 LINE SMOOTH",
"111 521 OFFCURVE",
"16 354 OFFCURVE",
"16 205 CURVE SMOOTH",
"16 77 OFFCURVE",
"102 -10 OFFCURVE",
"265 -10 CURVE SMOOTH",
"280 -10 LINE SMOOTH",
"461 -10 OFFCURVE",
"587 123 OFFCURVE",
"587 305 CURVE SMOOTH",
"587 435 OFFCURVE",
"500 521 OFFCURVE",
"340 521 CURVE SMOOTH"
);
},
{
closed = 1;
nodes = (
"359 400 OFFCURVE",
"382 370 OFFCURVE",
"382 339 CURVE",
"381 331 OFFCURVE",
"376 291 OFFCURVE",
"371 254 CURVE SMOOTH",
"360 181 LINE SMOOTH",
"354 142 OFFCURVE",
"324 111 OFFCURVE",
"281 111 CURVE SMOOTH",
"246 111 OFFCURVE",
"221 136 OFFCURVE",
"221 171 CURVE SMOOTH",
"221 181 OFFCURVE",
"231 256 OFFCURVE",
"243 330 CURVE SMOOTH",
"249 369 OFFCURVE",
"281 400 OFFCURVE",
"322 400 CURVE SMOOTH"
);
}
);
width = 613;
}
);
leftKerningGroup = c;
rightKerningGroup = o;
unicode = 006F;
},
{
glyphname = p;
lastChange = "2014-09-05 18:35:56 +0000";
layers = (
{
background = {
paths = (
{
closed = 1;
nodes = (
"324 521 OFFCURVE",
"281 487 OFFCURVE",
"248 452 CURVE",
"238 511 LINE",
"80 511 LINE",
"-16 -181 LINE",
"181 -181 LINE",
"214 53 LINE",
"230 18 OFFCURVE",
"276 -10 OFFCURVE",
"337 -10 CURVE SMOOTH",
"507 -10 OFFCURVE",
"572 178 OFFCURVE",
"572 319 CURVE SMOOTH",
"572 455 OFFCURVE",
"494 521 OFFCURVE",
"387 521 CURVE SMOOTH"
);
},
{
closed = 1;
nodes = (
"356 400 OFFCURVE",
"378 381 OFFCURVE",
"378 342 CURVE SMOOTH",
"378 333 OFFCURVE",
"372 294 OFFCURVE",
"367 257 CURVE SMOOTH",
"357 185 LINE SMOOTH",
"351 146 OFFCURVE",
"328 115 OFFCURVE",
"285 115 CURVE SMOOTH",
"254 115 OFFCURVE",
"232 139 OFFCURVE",
"232 174 CURVE SMOOTH",
"232 178 OFFCURVE",
"232 182 OFFCURVE",
"253 330 CURVE SMOOTH",
"258 369 OFFCURVE",
"288 400 OFFCURVE",
"325 400 CURVE SMOOTH"
);
}
);
};
layerId = UUID0;
paths = (
{
closed = 1;
nodes = (
"324 521 OFFCURVE",
"281 487 OFFCURVE",
"248 452 CURVE",
"238 511 LINE",
"80 511 LINE",
"-16 -181 LINE",
"181 -181 LINE",
"214 53 LINE",
"230 18 OFFCURVE",
"276 -10 OFFCURVE",
"337 -10 CURVE SMOOTH",
"507 -10 OFFCURVE",
"572 178 OFFCURVE",
"572 319 CURVE SMOOTH",
"572 455 OFFCURVE",
"494 521 OFFCURVE",
"387 521 CURVE SMOOTH"
);
},
{
closed = 1;
nodes = (
"356 400 OFFCURVE",
"378 381 OFFCURVE",
"378 342 CURVE SMOOTH",
"378 333 OFFCURVE",
"372 294 OFFCURVE",
"367 257 CURVE SMOOTH",
"357 185 LINE SMOOTH",
"351 146 OFFCURVE",
"328 115 OFFCURVE",
"285 115 CURVE SMOOTH",
"254 115 OFFCURVE",
"232 139 OFFCURVE",
"232 174 CURVE SMOOTH",
"232 178 OFFCURVE",
"232 182 OFFCURVE",
"253 330 CURVE SMOOTH",
"258 369 OFFCURVE",
"288 400 OFFCURVE",
"325 400 CURVE SMOOTH"
);
}
);
width = 599;
}
);
leftKerningGroup = m;
rightKerningGroup = b;
unicode = 0070;
},
{
glyphname = q;
lastChange = "2014-09-05 18:35:56 +0000";
layers = (
{
background = {
paths = (
{
closed = 1;
nodes = (
"85 520 OFFCURVE",
"16 337 OFFCURVE",
"16 184 CURVE SMOOTH",
"16 53 OFFCURVE",
"84 -11 OFFCURVE",
"177 -11 CURVE SMOOTH",
"246 -11 OFFCURVE",
"294 28 OFFCURVE",
"318 52 CURVE",
"285 -180 LINE",
"483 -180 LINE",
"580 511 LINE",
"510 511 LINE",
"425 443 LINE",
"394 498 OFFCURVE",
"344 520 OFFCURVE",
"276 520 CURVE SMOOTH"
);
},
{
closed = 1;
nodes = (
"335 399 OFFCURVE",
"357 380 OFFCURVE",
"357 341 CURVE SMOOTH",
"357 332 OFFCURVE",
"351 293 OFFCURVE",
"346 256 CURVE SMOOTH",
"336 184 LINE SMOOTH",
"330 145 OFFCURVE",
"307 114 OFFCURVE",
"264 114 CURVE SMOOTH",
"233 114 OFFCURVE",
"211 138 OFFCURVE",
"211 173 CURVE SMOOTH",
"211 177 OFFCURVE",
"211 181 OFFCURVE",
"232 329 CURVE SMOOTH",
"237 368 OFFCURVE",
"267 399 OFFCURVE",
"304 399 CURVE SMOOTH"
);
}
);
};
layerId = UUID0;
paths = (
{
closed = 1;
nodes = (
"85 520 OFFCURVE",
"16 337 OFFCURVE",
"16 184 CURVE SMOOTH",
"16 53 OFFCURVE",
"84 -11 OFFCURVE",
"177 -11 CURVE SMOOTH",
"246 -11 OFFCURVE",
"294 28 OFFCURVE",
"318 52 CURVE",
"285 -180 LINE",
"483 -180 LINE",
"580 511 LINE",
"510 511 LINE",
"425 443 LINE",
"394 498 OFFCURVE",
"344 520 OFFCURVE",
"276 520 CURVE SMOOTH"
);
},
{
closed = 1;
nodes = (
"335 399 OFFCURVE",
"357 380 OFFCURVE",
"357 341 CURVE SMOOTH",
"357 332 OFFCURVE",
"351 293 OFFCURVE",
"346 256 CURVE SMOOTH",
"336 184 LINE SMOOTH",
"330 145 OFFCURVE",
"307 114 OFFCURVE",
"264 114 CURVE SMOOTH",
"233 114 OFFCURVE",
"211 138 OFFCURVE",
"211 173 CURVE SMOOTH",
"211 177 OFFCURVE",
"211 181 OFFCURVE",
"232 329 CURVE SMOOTH",
"237 368 OFFCURVE",
"267 399 OFFCURVE",
"304 399 CURVE SMOOTH"
);
}
);
width = 599;
}
);
leftKerningGroup = d;
unicode = 0071;
},
{
glyphname = r;
lastChange = "2014-09-05 18:42:24 +0000";
layers = (
{
anchors = (
{
name = bottom;
position = "{105, 0}";
},
{
name = top;
position = "{212, 511}";
}
);
background = {
anchors = (
{
name = bottom;
position = "{252, 0}";
},
{
name = top;
position = "{252, 511}";
}
);
paths = (
{
closed = 1;
nodes = (
"305 521 OFFCURVE",
"247 452 OFFCURVE",
"239 437 CURVE",
"228 511 LINE",
"80 511 LINE",
"8 0 LINE",
"201 0 LINE",
"247 328 LINE SMOOTH",
"251 356 OFFCURVE",
"269 378 OFFCURVE",
"297 378 CURVE SMOOTH",
"317 378 OFFCURVE",
"332 367 OFFCURVE",
"332 336 CURVE SMOOTH",
"332 328 OFFCURVE",
"329 316 OFFCURVE",
"329 304 CURVE",
"491 304 LINE",
"498 342 OFFCURVE",
"508 384 OFFCURVE",
"508 410 CURVE SMOOTH",
"508 478 OFFCURVE",
"466 521 OFFCURVE",
"386 521 CURVE SMOOTH"
);
}
);
};
layerId = UUID0;
paths = (
{
closed = 1;
nodes = (
"305 521 OFFCURVE",
"247 452 OFFCURVE",
"239 437 CURVE",
"228 511 LINE",
"80 511 LINE",
"8 0 LINE",
"201 0 LINE",
"247 328 LINE SMOOTH",
"251 356 OFFCURVE",
"269 378 OFFCURVE",
"297 378 CURVE SMOOTH",
"317 378 OFFCURVE",
"332 367 OFFCURVE",
"332 336 CURVE SMOOTH",
"332 328 OFFCURVE",
"329 316 OFFCURVE",
"329 304 CURVE",
"491 304 LINE",
"498 342 OFFCURVE",
"508 384 OFFCURVE",
"508 410 CURVE SMOOTH",
"508 478 OFFCURVE",
"466 521 OFFCURVE",
"386 521 CURVE SMOOTH"
);
}
);
width = 504;
}
);
leftKerningGroup = m;
unicode = 0072;
},
{
glyphname = s;
lastChange = "2014-09-05 18:43:06 +0000";
layers = (
{
anchors = (
{
name = bottom;
position = "{280, 0}";
},
{
name = top;
position = "{310, 511}";
}
);
background = {
anchors = (
{
name = bottom;
position = "{280, 0}";
},
{
name = top;
position = "{280, 511}";
}
);
paths = (
{
closed = 1;
nodes = (
"313 521 LINE SMOOTH",
"192 521 OFFCURVE",
"44 465 OFFCURVE",
"44 322 CURVE SMOOTH",
"44 143 OFFCURVE",
"335 212 OFFCURVE",
"335 145 CURVE SMOOTH",
"335 112 OFFCURVE",
"264 111 OFFCURVE",
"245 111 CURVE SMOOTH",
"213 111 OFFCURVE",
"166 120 OFFCURVE",
"166 156 CURVE SMOOTH",
"166 163 LINE",
"166 164 OFFCURVE",
"166 166 OFFCURVE",
"167 167 CURVE",
"5 167 LINE",
"2 155 OFFCURVE",
"1 140 OFFCURVE",
"1 127 CURVE SMOOTH",
"1 32 OFFCURVE",
"87 -10 OFFCURVE",
"230 -10 CURVE SMOOTH",
"240 -10 LINE SMOOTH",
"440 -10 OFFCURVE",
"516 83 OFFCURVE",
"516 199 CURVE SMOOTH",
"516 382 OFFCURVE",
"222 306 OFFCURVE",
"222 371 CURVE SMOOTH",
"222 403 OFFCURVE",
"281 403 OFFCURVE",
"300 403 CURVE SMOOTH",
"328 403 OFFCURVE",
"364 396 OFFCURVE",
"364 363 CURVE SMOOTH",
"364 358 LINE",
"528 358 LINE",
"527 358 OFFCURVE",
"535 374 OFFCURVE",
"535 397 CURVE SMOOTH",
"535 482 OFFCURVE",
"426 521 OFFCURVE",
"321 521 CURVE SMOOTH"
);
}
);
};
layerId = UUID0;
paths = (
{
closed = 1;
nodes = (
"313 521 LINE SMOOTH",
"192 521 OFFCURVE",
"44 465 OFFCURVE",
"44 322 CURVE SMOOTH",
"44 143 OFFCURVE",
"335 212 OFFCURVE",
"335 145 CURVE SMOOTH",
"335 112 OFFCURVE",
"264 111 OFFCURVE",
"245 111 CURVE SMOOTH",
"213 111 OFFCURVE",
"166 120 OFFCURVE",
"166 156 CURVE SMOOTH",
"166 163 LINE",
"166 164 OFFCURVE",
"166 166 OFFCURVE",
"167 167 CURVE",
"5 167 LINE",
"2 155 OFFCURVE",
"1 140 OFFCURVE",
"1 127 CURVE SMOOTH",
"1 32 OFFCURVE",
"87 -10 OFFCURVE",
"230 -10 CURVE SMOOTH",
"240 -10 LINE SMOOTH",
"440 -10 OFFCURVE",
"516 83 OFFCURVE",
"516 199 CURVE SMOOTH",
"516 382 OFFCURVE",
"222 306 OFFCURVE",
"222 371 CURVE SMOOTH",
"222 403 OFFCURVE",
"281 403 OFFCURVE",
"300 403 CURVE SMOOTH",
"328 403 OFFCURVE",
"364 396 OFFCURVE",
"364 363 CURVE SMOOTH",
"364 358 LINE",
"528 358 LINE",
"527 358 OFFCURVE",
"535 374 OFFCURVE",
"535 397 CURVE SMOOTH",
"535 482 OFFCURVE",
"426 521 OFFCURVE",
"321 521 CURVE SMOOTH"
);
}
);
width = 559;
}
);
leftKerningGroup = s;
rightKerningGroup = s;
unicode = 0073;
},
{
glyphname = t;
lastChange = "2014-09-09 03:36:11 +0000";
layers = (
{
anchors = (
{
name = bottom;
position = "{210, 0}";
},
{
name = center;
position = "{173, 256}";
},
{
name = topright;
position = "{592, 686}";
}
);
background = {
anchors = (
{
name = bottom;
position = "{210, 0}";
},
{
name = center;
position = "{210, 256}";
},
{
name = topright;
position = "{435, 511}";
}
);
paths = (
{
closed = 1;
nodes = (
"133 674 LINE",
"110 511 LINE",
"54 511 LINE",
"34 369 LINE",
"90 369 LINE",
"55 120 OFFCURVE",
"54 124 OFFCURVE",
"54 102 CURVE SMOOTH",
"54 16 OFFCURVE",
"120 -11 OFFCURVE",
"219 -11 CURVE SMOOTH",
"253 -11 OFFCURVE",
"322 -2 OFFCURVE",
"356 11 CURVE",
"372 123 LINE",
"355 116 OFFCURVE",
"324 111 OFFCURVE",
"309 111 CURVE SMOOTH",
"280 111 OFFCURVE",
"259 118 OFFCURVE",
"259 161 CURVE SMOOTH",
"259 167 OFFCURVE",
"259 173 OFFCURVE",
"288 369 CURVE",
"408 369 LINE",
"428 511 LINE",
"308 511 LINE",
"342 674 LINE"
);
}
);
};
layerId = UUID0;
paths = (
{
closed = 1;
nodes = (
"133 674 LINE",
"110 511 LINE",
"54 511 LINE",
"34 369 LINE",
"90 369 LINE",
"55 120 OFFCURVE",
"54 124 OFFCURVE",
"54 102 CURVE SMOOTH",
"54 16 OFFCURVE",
"120 -11 OFFCURVE",
"219 -11 CURVE SMOOTH",
"253 -11 OFFCURVE",
"322 -2 OFFCURVE",
"356 11 CURVE",
"372 123 LINE",
"355 116 OFFCURVE",
"324 111 OFFCURVE",
"309 111 CURVE SMOOTH",
"280 111 OFFCURVE",
"259 118 OFFCURVE",
"259 161 CURVE SMOOTH",
"259 167 OFFCURVE",
"259 173 OFFCURVE",
"288 369 CURVE",
"408 369 LINE",
"428 511 LINE",
"308 511 LINE",
"342 674 LINE"
);
}
);
width = 419;
}
);
unicode = 0074;
},
{
glyphname = u;
lastChange = "2014-09-05 18:43:13 +0000";
layers = (
{
anchors = (
{
name = ogonek;
position = "{564, 10}";
},
{
name = top;
position = "{328, 511}";
}
);
background = {
anchors = (
{
name = ogonek;
position = "{564, 10}";
},
{
name = top;
position = "{314, 511}";
}
);
paths = (
{
closed = 1;
nodes = (
"381 511 LINE",
"336 191 LINE SMOOTH",
"331 158 OFFCURVE",
"310 131 OFFCURVE",
"275 131 CURVE SMOOTH",
"244 131 OFFCURVE",
"229 153 OFFCURVE",
"229 181 CURVE SMOOTH",
"229 188 OFFCURVE",
"239 272 OFFCURVE",
"252 352 CURVE",
"275 511 LINE",
"77 511 LINE",
"49 338 OFFCURVE",
"24 156 OFFCURVE",
"24 119 CURVE SMOOTH",
"24 46 OFFCURVE",
"72 -10 OFFCURVE",
"168 -10 CURVE SMOOTH",
"264 -10 OFFCURVE",
"317 48 OFFCURVE",
"335 71 CURVE",
"346 20 OFFCURVE",
"382 -10 OFFCURVE",
"471 -10 CURVE SMOOTH",
"521 -10 OFFCURVE",
"554 0 OFFCURVE",
"575 13 CURVE",
"590 120 LINE",
"576 114 OFFCURVE",
"566 111 OFFCURVE",
"554 111 CURVE SMOOTH",
"541 111 OFFCURVE",
"527 120 OFFCURVE",
"527 140 CURVE SMOOTH",
"527 158 OFFCURVE",
"553 336 OFFCURVE",
"579 511 CURVE"
);
}
);
};
layerId = UUID0;
paths = (
{
closed = 1;
nodes = (
"381 511 LINE",
"336 191 LINE SMOOTH",
"331 158 OFFCURVE",
"310 131 OFFCURVE",
"275 131 CURVE SMOOTH",
"244 131 OFFCURVE",
"229 153 OFFCURVE",
"229 181 CURVE SMOOTH",
"229 188 OFFCURVE",
"239 272 OFFCURVE",
"252 352 CURVE",
"275 511 LINE",
"77 511 LINE",
"49 338 OFFCURVE",
"24 156 OFFCURVE",
"24 119 CURVE SMOOTH",
"24 46 OFFCURVE",
"72 -10 OFFCURVE",
"168 -10 CURVE SMOOTH",
"264 -10 OFFCURVE",
"317 48 OFFCURVE",
"335 71 CURVE",
"346 20 OFFCURVE",
"382 -10 OFFCURVE",
"471 -10 CURVE SMOOTH",
"521 -10 OFFCURVE",
"554 0 OFFCURVE",
"575 13 CURVE",
"590 120 LINE",
"576 114 OFFCURVE",
"566 111 OFFCURVE",
"554 111 CURVE SMOOTH",
"541 111 OFFCURVE",
"527 120 OFFCURVE",
"527 140 CURVE SMOOTH",
"527 158 OFFCURVE",
"553 336 OFFCURVE",
"579 511 CURVE"
);
}
);
width = 627;
}
);
leftKerningGroup = u;
rightKerningGroup = u;
unicode = 0075;
},
{
glyphname = v;
lastChange = "2014-09-05 18:35:56 +0000";
layers = (
{
background = {
paths = (
{
closed = 1;
nodes = (
"395 511 LINE",
"279 219 LINE",
"272 219 LINE",
"238 511 LINE",
"27 511 LINE",
"121 0 LINE",
"350 0 LINE",
"588 511 LINE"
);
}
);
};
layerId = UUID0;
paths = (
{
closed = 1;
nodes = (
"395 511 LINE",
"279 219 LINE",
"272 219 LINE",
"238 511 LINE",
"27 511 LINE",
"121 0 LINE",
"350 0 LINE",
"588 511 LINE"
);
}
);
width = 558;
}
);
unicode = 0076;
},
{
glyphname = w;
lastChange = "2014-09-05 18:43:20 +0000";
layers = (
{
anchors = (
{
name = top;
position = "{464, 511}";
}
);
background = {
anchors = (
{
name = top;
position = "{428, 511}";
}
);
paths = (
{
closed = 1;
nodes = (
"689 511 LINE",
"596 253 LINE",
"588 253 LINE",
"564 511 LINE",
"364 511 LINE",
"267 253 LINE",
"260 253 LINE",
"239 511 LINE",
"33 511 LINE",
"107 0 LINE",
"335 0 LINE",
"413 213 LINE",
"421 213 LINE",
"440 0 LINE",
"664 0 LINE",
"881 511 LINE"
);
}
);
};
layerId = UUID0;
paths = (
{
closed = 1;
nodes = (
"689 511 LINE",
"596 253 LINE",
"588 253 LINE",
"564 511 LINE",
"364 511 LINE",
"267 253 LINE",
"260 253 LINE",
"239 511 LINE",
"33 511 LINE",
"107 0 LINE",
"335 0 LINE",
"413 213 LINE",
"421 213 LINE",
"440 0 LINE",
"664 0 LINE",
"881 511 LINE"
);
}
);
width = 855;
}
);
unicode = 0077;
},
{
glyphname = x;
lastChange = "2014-09-05 18:35:56 +0000";
layers = (
{
background = {
paths = (
{
closed = 1;
nodes = (
"395 511 LINE",
"317 393 LINE",
"313 393 LINE",
"267 511 LINE",
"40 511 LINE",
"159 270 LINE",
"-48 0 LINE",
"164 0 LINE",
"261 143 LINE",
"265 143 LINE",
"321 0 LINE",
"548 0 LINE",
"418 265 LINE",
"608 511 LINE"
);
}
);
};
layerId = UUID0;
paths = (
{
closed = 1;
nodes = (
"395 511 LINE",
"317 393 LINE",
"313 393 LINE",
"267 511 LINE",
"40 511 LINE",
"159 270 LINE",
"-48 0 LINE",
"164 0 LINE",
"261 143 LINE",
"265 143 LINE",
"321 0 LINE",
"548 0 LINE",
"418 265 LINE",
"608 511 LINE"
);
}
);
width = 583;
}
);
unicode = 0078;
},
{
glyphname = y;
lastChange = "2014-09-05 18:43:26 +0000";
layers = (
{
anchors = (
{
name = top;
position = "{314, 511}";
}
);
background = {
anchors = (
{
name = top;
position = "{276, 511}";
}
);
paths = (
{
closed = 1;
nodes = (
"391 511 LINE",
"286 246 LINE",
"278 246 LINE",
"237 511 LINE",
"26 511 LINE",
"144 15 LINE",
"136 -10 OFFCURVE",
"117 -57 OFFCURVE",
"56 -57 CURVE SMOOTH",
"28 -57 OFFCURVE",
"-4 -50 OFFCURVE",
"-17 -43 CURVE",
"-34 -172 LINE",
"-15 -183 OFFCURVE",
"18 -187 OFFCURVE",
"61 -187 CURVE SMOOTH",
"183 -187 OFFCURVE",
"283 -91 OFFCURVE",
"347 36 CURVE SMOOTH",
"586 511 LINE"
);
}
);
};
layerId = UUID0;
paths = (
{
closed = 1;
nodes = (
"391 511 LINE",
"286 246 LINE",
"278 246 LINE",
"237 511 LINE",
"26 511 LINE",
"144 15 LINE",
"136 -10 OFFCURVE",
"117 -57 OFFCURVE",
"56 -57 CURVE SMOOTH",
"28 -57 OFFCURVE",
"-4 -50 OFFCURVE",
"-17 -43 CURVE",
"-34 -172 LINE",
"-15 -183 OFFCURVE",
"18 -187 OFFCURVE",
"61 -187 CURVE SMOOTH",
"183 -187 OFFCURVE",
"283 -91 OFFCURVE",
"347 36 CURVE SMOOTH",
"586 511 LINE"
);
}
);
width = 552;
}
);
leftKerningGroup = y;
rightKerningGroup = y;
unicode = 0079;
},
{
glyphname = z;
lastChange = "2014-09-05 18:35:56 +0000";
layers = (
{
anchors = (
{
name = top;
position = "{249, 511}";
}
);
background = {
anchors = (
{
name = top;
position = "{249, 511}";
}
);
paths = (
{
closed = 1;
nodes = (
"63 511 LINE",
"46 387 LINE",
"223 387 LINE",
"-10 63 LINE",
"-18 0 LINE",
"433 0 LINE",
"450 124 LINE",
"253 124 LINE",
"488 451 LINE",
"496 511 LINE"
);
}
);
};
layerId = UUID0;
paths = (
{
closed = 1;
nodes = (
"63 511 LINE",
"46 387 LINE",
"223 387 LINE",
"-10 63 LINE",
"-18 0 LINE",
"433 0 LINE",
"450 124 LINE",
"253 124 LINE",
"488 451 LINE",
"496 511 LINE"
);
}
);
width = 497;
}
);
leftKerningGroup = z;
rightKerningGroup = z;
unicode = 007A;
},
{
glyphname = braceleft;
lastChange = "2014-09-05 18:35:56 +0000";
layers = (
{
background = {
paths = (
{
closed = 1;
nodes = (
"294 686 LINE SMOOTH",
"226 686 OFFCURVE",
"148 651 OFFCURVE",
"137 574 CURVE SMOOTH",
"107 360 LINE SMOOTH",
"101 320 OFFCURVE",
"56 303 OFFCURVE",
"22 303 CURVE",
"11 224 LINE",
"48 224 OFFCURVE",
"81 211 OFFCURVE",
"81 178 CURVE SMOOTH",
"81 149 OFFCURVE",
"49 -29 OFFCURVE",
"49 -63 CURVE SMOOTH",
"49 -130 OFFCURVE",
"112 -159 OFFCURVE",
"175 -159 CURVE SMOOTH",
"256 -159 LINE",
"266 -91 LINE",
"238 -91 OFFCURVE",
"196 -87 OFFCURVE",
"196 -54 CURVE SMOOTH",
"196 -22 OFFCURVE",
"215 131 OFFCURVE",
"215 175 CURVE SMOOTH",
"215 228 OFFCURVE",
"188 259 OFFCURVE",
"128 259 CURVE",
"129 268 LINE",
"196 268 OFFCURVE",
"233 306 OFFCURVE",
"245 371 CURVE SMOOTH",
"284 577 LINE SMOOTH",
"291 614 OFFCURVE",
"338 618 OFFCURVE",
"365 618 CURVE",
"375 686 LINE"
);
}
);
};
layerId = UUID0;
paths = (
{
closed = 1;
nodes = (
"294 686 LINE SMOOTH",
"226 686 OFFCURVE",
"148 651 OFFCURVE",
"137 574 CURVE SMOOTH",
"107 360 LINE SMOOTH",
"101 320 OFFCURVE",
"56 303 OFFCURVE",
"22 303 CURVE",
"11 224 LINE",
"48 224 OFFCURVE",
"81 211 OFFCURVE",
"81 178 CURVE SMOOTH",
"81 149 OFFCURVE",
"49 -29 OFFCURVE",
"49 -63 CURVE SMOOTH",
"49 -130 OFFCURVE",
"112 -159 OFFCURVE",
"175 -159 CURVE SMOOTH",
"256 -159 LINE",
"266 -91 LINE",
"238 -91 OFFCURVE",
"196 -87 OFFCURVE",
"196 -54 CURVE SMOOTH",
"196 -22 OFFCURVE",
"215 131 OFFCURVE",
"215 175 CURVE SMOOTH",
"215 228 OFFCURVE",
"188 259 OFFCURVE",
"128 259 CURVE",
"129 268 LINE",
"196 268 OFFCURVE",
"233 306 OFFCURVE",
"245 371 CURVE SMOOTH",
"284 577 LINE SMOOTH",
"291 614 OFFCURVE",
"338 618 OFFCURVE",
"365 618 CURVE",
"375 686 LINE"
);
}
);
width = 342;
}
);
unicode = 007B;
},
{
glyphname = bar;
lastChange = "2014-09-05 18:35:56 +0000";
layers = (
{
background = {
paths = (
{
closed = 1;
nodes = (
"81 720 LINE",
"81 -199 LINE",
"201 -199 LINE",
"201 720 LINE"
);
}
);
};
layerId = UUID0;
paths = (
{
closed = 1;
nodes = (
"81 720 LINE",
"81 -199 LINE",
"201 -199 LINE",
"201 720 LINE"
);
}
);
width = 291;
}
);
unicode = 007C;
},
{
glyphname = braceright;
lastChange = "2014-09-05 18:35:56 +0000";
layers = (
{
background = {
paths = (
{
closed = 1;
nodes = (
"77 686 LINE",
"67 618 LINE",
"94 618 OFFCURVE",
"138 615 OFFCURVE",
"138 580 CURVE SMOOTH",
"138 562 OFFCURVE",
"118 379 OFFCURVE",
"118 351 CURVE SMOOTH",
"118 298 OFFCURVE",
"145 268 OFFCURVE",
"205 268 CURVE",
"204 259 LINE",
"137 259 OFFCURVE",
"100 221 OFFCURVE",
"88 156 CURVE SMOOTH",
"50 -49 LINE SMOOTH",
"43 -87 OFFCURVE",
"-4 -91 OFFCURVE",
"-31 -91 CURVE",
"-41 -159 LINE",
"39 -159 LINE SMOOTH",
"107 -159 OFFCURVE",
"185 -124 OFFCURVE",
"196 -47 CURVE SMOOTH",
"226 169 LINE SMOOTH",
"231 209 OFFCURVE",
"274 224 OFFCURVE",
"310 224 CURVE",
"322 303 LINE",
"287 303 OFFCURVE",
"252 317 OFFCURVE",
"252 352 CURVE",
"253 359 OFFCURVE",
"255 385 OFFCURVE",
"260 418 CURVE SMOOTH",
"276 522 LINE SMOOTH",
"281 555 OFFCURVE",
"283 582 OFFCURVE",
"284 590 CURVE",
"284 657 OFFCURVE",
"221 686 OFFCURVE",
"158 686 CURVE SMOOTH"
);
}
);
};
layerId = UUID0;
paths = (
{
closed = 1;
nodes = (
"77 686 LINE",
"67 618 LINE",
"94 618 OFFCURVE",
"138 615 OFFCURVE",
"138 580 CURVE SMOOTH",
"138 562 OFFCURVE",
"118 379 OFFCURVE",
"118 351 CURVE SMOOTH",
"118 298 OFFCURVE",
"145 268 OFFCURVE",
"205 268 CURVE",
"204 259 LINE",
"137 259 OFFCURVE",
"100 221 OFFCURVE",
"88 156 CURVE SMOOTH",
"50 -49 LINE SMOOTH",
"43 -87 OFFCURVE",
"-4 -91 OFFCURVE",
"-31 -91 CURVE",
"-41 -159 LINE",
"39 -159 LINE SMOOTH",
"107 -159 OFFCURVE",
"185 -124 OFFCURVE",
"196 -47 CURVE SMOOTH",
"226 169 LINE SMOOTH",
"231 209 OFFCURVE",
"274 224 OFFCURVE",
"310 224 CURVE",
"322 303 LINE",
"287 303 OFFCURVE",
"252 317 OFFCURVE",
"252 352 CURVE",
"253 359 OFFCURVE",
"255 385 OFFCURVE",
"260 418 CURVE SMOOTH",
"276 522 LINE SMOOTH",
"281 555 OFFCURVE",
"283 582 OFFCURVE",
"284 590 CURVE",
"284 657 OFFCURVE",
"221 686 OFFCURVE",
"158 686 CURVE SMOOTH"
);
}
);
width = 341;
}
);
unicode = 007D;
},
{
glyphname = asciitilde;
lastChange = "2014-09-05 18:35:56 +0000";
layers = (
{
background = {
paths = (
{
closed = 1;
nodes = (
"590 372 OFFCURVE",
"525 328 OFFCURVE",
"450 328 CURVE SMOOTH",
"362 328 OFFCURVE",
"307 394 OFFCURVE",
"221 394 CURVE SMOOTH",
"143 394 OFFCURVE",
"81 348 OFFCURVE",
"47 316 CURVE",
"29 190 LINE",
"63 222 OFFCURVE",
"125 268 OFFCURVE",
"203 268 CURVE SMOOTH",
"291 268 OFFCURVE",
"346 202 OFFCURVE",
"432 202 CURVE SMOOTH",
"507 202 OFFCURVE",
"572 246 OFFCURVE",
"606 280 CURVE",
"624 406 LINE"
);
}
);
};
layerId = UUID0;
paths = (
{
closed = 1;
nodes = (
"590 372 OFFCURVE",
"525 328 OFFCURVE",
"450 328 CURVE SMOOTH",
"362 328 OFFCURVE",
"307 394 OFFCURVE",
"221 394 CURVE SMOOTH",
"143 394 OFFCURVE",
"81 348 OFFCURVE",
"47 316 CURVE",
"29 190 LINE",
"63 222 OFFCURVE",
"125 268 OFFCURVE",
"203 268 CURVE SMOOTH",
"291 268 OFFCURVE",
"346 202 OFFCURVE",
"432 202 CURVE SMOOTH",
"507 202 OFFCURVE",
"572 246 OFFCURVE",
"606 280 CURVE",
"624 406 LINE"
);
}
);
width = 649;
}
);
unicode = 007E;
},
{
glyphname = exclamdown;
lastChange = "2014-09-05 18:35:56 +0000";
layers = (
{
background = {
paths = (
{
closed = 1;
nodes = (
"83 278 LINE",
"-37 -177 LINE",
"210 -177 LINE",
"210 278 LINE"
);
},
{
closed = 1;
nodes = (
"83 511 LINE",
"57 328 LINE",
"248 328 LINE",
"274 511 LINE"
);
}
);
};
layerId = UUID0;
paths = (
{
closed = 1;
nodes = (
"83 278 LINE",
"-37 -177 LINE",
"210 -177 LINE",
"210 278 LINE"
);
},
{
closed = 1;
nodes = (
"83 511 LINE",
"57 328 LINE",
"248 328 LINE",
"274 511 LINE"
);
}
);
width = 303;
}
);
unicode = 00A1;
},
{
glyphname = cent;
lastChange = "2014-09-05 18:35:56 +0000";
layers = (
{
background = {
paths = (
{
closed = 1;
nodes = (
"290 694 LINE",
"290 603 LINE",
"122 579 OFFCURVE",
"35 443 OFFCURVE",
"35 284 CURVE SMOOTH",
"35 191 OFFCURVE",
"93 102 OFFCURVE",
"218 81 CURVE",
"191 -10 LINE",
"322 -10 LINE",
"322 78 LINE",
"446 91 OFFCURVE",
"533 166 OFFCURVE",
"552 293 CURVE",
"394 293 LINE",
"390 267 LINE SMOOTH",
"385 236 OFFCURVE",
"362 197 OFFCURVE",
"307 197 CURVE SMOOTH",
"264 197 OFFCURVE",
"240 222 OFFCURVE",
"240 257 CURVE SMOOTH",
"240 273 OFFCURVE",
"249 346 OFFCURVE",
"262 416 CURVE",
"267 455 OFFCURVE",
"294 486 OFFCURVE",
"341 486 CURVE SMOOTH",
"376 486 OFFCURVE",
"400 460 OFFCURVE",
"400 425 CURVE SMOOTH",
"400 419 OFFCURVE",
"397 404 OFFCURVE",
"397 390 CURVE",
"565 390 LINE",
"567 402 OFFCURVE",
"568 414 OFFCURVE",
"568 426 CURVE SMOOTH",
"568 491 OFFCURVE",
"538 585 OFFCURVE",
"395 604 CURVE",
"419 694 LINE"
);
}
);
};
layerId = UUID0;
paths = (
{
closed = 1;
nodes = (
"290 694 LINE",
"290 603 LINE",
"122 579 OFFCURVE",
"35 443 OFFCURVE",
"35 284 CURVE SMOOTH",
"35 191 OFFCURVE",
"93 102 OFFCURVE",
"218 81 CURVE",
"191 -10 LINE",
"322 -10 LINE",
"322 78 LINE",
"446 91 OFFCURVE",
"533 166 OFFCURVE",
"552 293 CURVE",
"394 293 LINE",
"390 267 LINE SMOOTH",
"385 236 OFFCURVE",
"362 197 OFFCURVE",
"307 197 CURVE SMOOTH",
"264 197 OFFCURVE",
"240 222 OFFCURVE",
"240 257 CURVE SMOOTH",
"240 273 OFFCURVE",
"249 346 OFFCURVE",
"262 416 CURVE",
"267 455 OFFCURVE",
"294 486 OFFCURVE",
"341 486 CURVE SMOOTH",
"376 486 OFFCURVE",
"400 460 OFFCURVE",
"400 425 CURVE SMOOTH",
"400 419 OFFCURVE",
"397 404 OFFCURVE",
"397 390 CURVE",
"565 390 LINE",
"567 402 OFFCURVE",
"568 414 OFFCURVE",
"568 426 CURVE SMOOTH",
"568 491 OFFCURVE",
"538 585 OFFCURVE",
"395 604 CURVE",
"419 694 LINE"
);
}
);
width = 580;
}
);
unicode = 00A2;
},
{
glyphname = sterling;
lastChange = "2014-09-05 18:35:56 +0000";
layers = (
{
background = {
paths = (
{
closed = 1;
nodes = (
"281 700 OFFCURVE",
"174 609 OFFCURVE",
"157 493 CURVE SMOOTH",
"145 413 LINE",
"51 413 LINE",
"32 266 LINE",
"125 266 LINE",
"108 147 LINE",
"44 147 LINE",
"24 0 LINE",
"546 0 LINE",
"567 147 LINE",
"285 147 LINE",
"322 266 LINE",
"419 266 LINE",
"439 413 LINE",
"343 413 LINE",
"355 494 LINE SMOOTH",
"360 526 OFFCURVE",
"381 552 OFFCURVE",
"421 552 CURVE SMOOTH",
"450 552 OFFCURVE",
"471 530 OFFCURVE",
"471 501 CURVE SMOOTH",
"471 494 OFFCURVE",
"470 485 OFFCURVE",
"469 478 CURVE SMOOTH",
"467 466 LINE",
"666 466 LINE",
"669 484 LINE SMOOTH",
"670 495 OFFCURVE",
"672 506 OFFCURVE",
"672 517 CURVE SMOOTH",
"672 620 OFFCURVE",
"574 700 OFFCURVE",
"442 700 CURVE SMOOTH"
);
}
);
};
layerId = UUID0;
paths = (
{
closed = 1;
nodes = (
"281 700 OFFCURVE",
"174 609 OFFCURVE",
"157 493 CURVE SMOOTH",
"145 413 LINE",
"51 413 LINE",
"32 266 LINE",
"125 266 LINE",
"108 147 LINE",
"44 147 LINE",
"24 0 LINE",
"546 0 LINE",
"567 147 LINE",
"285 147 LINE",
"322 266 LINE",
"419 266 LINE",
"439 413 LINE",
"343 413 LINE",
"355 494 LINE SMOOTH",
"360 526 OFFCURVE",
"381 552 OFFCURVE",
"421 552 CURVE SMOOTH",
"450 552 OFFCURVE",
"471 530 OFFCURVE",
"471 501 CURVE SMOOTH",
"471 494 OFFCURVE",
"470 485 OFFCURVE",
"469 478 CURVE SMOOTH",
"467 466 LINE",
"666 466 LINE",
"669 484 LINE SMOOTH",
"670 495 OFFCURVE",
"672 506 OFFCURVE",
"672 517 CURVE SMOOTH",
"672 620 OFFCURVE",
"574 700 OFFCURVE",
"442 700 CURVE SMOOTH"
);
}
);
width = 668;
}
);
unicode = 00A3;
},
{
glyphname = currency;
lastChange = "2014-09-05 18:35:56 +0000";
layers = (
{
background = {
paths = (
{
closed = 1;
nodes = (
"475 545 LINE",
"452 569 OFFCURVE",
"401 587 OFFCURVE",
"345 587 CURVE SMOOTH",
"292 587 OFFCURVE",
"232 570 OFFCURVE",
"199 543 CURVE",
"150 600 LINE",
"78 537 LINE",
"128 479 LINE",
"85 441 OFFCURVE",
"59 365 OFFCURVE",
"59 302 CURVE SMOOTH",
"59 261 OFFCURVE",
"69 224 OFFCURVE",
"88 199 CURVE",
"22 141 LINE",
"75 80 LINE",
"140 137 LINE",
"168 108 OFFCURVE",
"219 91 OFFCURVE",
"275 91 CURVE SMOOTH",
"332 91 OFFCURVE",
"389 108 OFFCURVE",
"424 139 CURVE",
"474 81 LINE",
"542 141 LINE",
"494 197 LINE",
"537 241 OFFCURVE",
"561 313 OFFCURVE",
"561 381 CURVE SMOOTH",
"561 422 OFFCURVE",
"552 458 OFFCURVE",
"536 479 CURVE",
"600 535 LINE",
"541 603 LINE"
);
},
{
closed = 1;
nodes = (
"399 477 OFFCURVE",
"440 426 OFFCURVE",
"440 362 CURVE SMOOTH",
"440 279 OFFCURVE",
"375 201 OFFCURVE",
"291 201 CURVE SMOOTH",
"224 201 OFFCURVE",
"180 250 OFFCURVE",
"180 317 CURVE SMOOTH",
"180 402 OFFCURVE",
"249 477 OFFCURVE",
"330 477 CURVE SMOOTH"
);
}
);
};
layerId = UUID0;
paths = (
{
closed = 1;
nodes = (
"475 545 LINE",
"452 569 OFFCURVE",
"401 587 OFFCURVE",
"345 587 CURVE SMOOTH",
"292 587 OFFCURVE",
"232 570 OFFCURVE",
"199 543 CURVE",
"150 600 LINE",
"78 537 LINE",
"128 479 LINE",
"85 441 OFFCURVE",
"59 365 OFFCURVE",
"59 302 CURVE SMOOTH",
"59 261 OFFCURVE",
"69 224 OFFCURVE",
"88 199 CURVE",
"22 141 LINE",
"75 80 LINE",
"140 137 LINE",
"168 108 OFFCURVE",
"219 91 OFFCURVE",
"275 91 CURVE SMOOTH",
"332 91 OFFCURVE",
"389 108 OFFCURVE",
"424 139 CURVE",
"474 81 LINE",
"542 141 LINE",
"494 197 LINE",
"537 241 OFFCURVE",
"561 313 OFFCURVE",
"561 381 CURVE SMOOTH",
"561 422 OFFCURVE",
"552 458 OFFCURVE",
"536 479 CURVE",
"600 535 LINE",
"541 603 LINE"
);
},
{
closed = 1;
nodes = (
"399 477 OFFCURVE",
"440 426 OFFCURVE",
"440 362 CURVE SMOOTH",
"440 279 OFFCURVE",
"375 201 OFFCURVE",
"291 201 CURVE SMOOTH",
"224 201 OFFCURVE",
"180 250 OFFCURVE",
"180 317 CURVE SMOOTH",
"180 402 OFFCURVE",
"249 477 OFFCURVE",
"330 477 CURVE SMOOTH"
);
}
);
width = 607;
}
);
unicode = 00A4;
},
{
glyphname = yen;
lastChange = "2014-09-05 18:35:56 +0000";
layers = (
{
background = {
paths = (
{
closed = 1;
nodes = (
"526 686 LINE",
"389 461 LINE",
"384 461 LINE",
"313 686 LINE",
"77 686 LINE",
"168 457 LINE",
"91 457 LINE",
"77 364 LINE",
"204 364 LINE",
"224 317 LINE",
"71 317 LINE",
"58 224 LINE",
"240 224 LINE",
"208 0 LINE",
"417 0 LINE",
"449 224 LINE",
"637 224 LINE",
"650 317 LINE",
"491 317 LINE",
"523 364 LINE",
"656 364 LINE",
"670 457 LINE",
"586 457 LINE",
"741 686 LINE"
);
}
);
};
layerId = UUID0;
paths = (
{
closed = 1;
nodes = (
"526 686 LINE",
"389 461 LINE",
"384 461 LINE",
"313 686 LINE",
"77 686 LINE",
"168 457 LINE",
"91 457 LINE",
"77 364 LINE",
"204 364 LINE",
"224 317 LINE",
"71 317 LINE",
"58 224 LINE",
"240 224 LINE",
"208 0 LINE",
"417 0 LINE",
"449 224 LINE",
"637 224 LINE",
"650 317 LINE",
"491 317 LINE",
"523 364 LINE",
"656 364 LINE",
"670 457 LINE",
"586 457 LINE",
"741 686 LINE"
);
}
);
width = 712;
}
);
unicode = 00A5;
},
{
glyphname = brokenbar;
lastChange = "2014-09-05 18:35:56 +0000";
layers = (
{
background = {
paths = (
{
closed = 1;
nodes = (
"116 686 LINE",
"77 412 LINE",
"227 412 LINE",
"266 686 LINE"
);
},
{
closed = 1;
nodes = (
"58 274 LINE",
"19 0 LINE",
"169 0 LINE",
"208 274 LINE"
);
}
);
};
layerId = UUID0;
paths = (
{
closed = 1;
nodes = (
"116 686 LINE",
"77 412 LINE",
"227 412 LINE",
"266 686 LINE"
);
},
{
closed = 1;
nodes = (
"58 274 LINE",
"19 0 LINE",
"169 0 LINE",
"208 274 LINE"
);
}
);
width = 270;
}
);
unicode = 00A6;
},
{
glyphname = section;
lastChange = "2014-09-05 18:35:56 +0000";
layers = (
{
background = {
paths = (
{
closed = 1;
nodes = (
"230 696 OFFCURVE",
"77 649 OFFCURVE",
"77 507 CURVE SMOOTH",
"77 466 OFFCURVE",
"94 423 OFFCURVE",
"126 402 CURVE",
"66 366 OFFCURVE",
"24 319 OFFCURVE",
"24 232 CURVE SMOOTH",
"24 61 OFFCURVE",
"304 54 OFFCURVE",
"304 -26 CURVE SMOOTH",
"304 -63 OFFCURVE",
"266 -67 OFFCURVE",
"242 -67 CURVE SMOOTH",
"205 -67 OFFCURVE",
"172 -57 OFFCURVE",
"172 -25 CURVE",
"8 -25 LINE",
"7 -32 OFFCURVE",
"6 -38 OFFCURVE",
"6 -41 CURVE SMOOTH",
"6 -51 LINE SMOOTH",
"6 -155 OFFCURVE",
"128 -185 OFFCURVE",
"222 -185 CURVE SMOOTH",
"329 -185 OFFCURVE",
"481 -138 OFFCURVE",
"481 4 CURVE SMOOTH",
"481 45 OFFCURVE",
"465 88 OFFCURVE",
"433 109 CURVE",
"474 132 OFFCURVE",
"535 190 OFFCURVE",
"535 280 CURVE SMOOTH",
"535 449 OFFCURVE",
"254 457 OFFCURVE",
"254 537 CURVE SMOOTH",
"254 573 OFFCURVE",
"297 578 OFFCURVE",
"322 578 CURVE SMOOTH",
"357 578 OFFCURVE",
"387 564 OFFCURVE",
"387 533 CURVE",
"551 533 LINE",
"552 542 OFFCURVE",
"553 548 OFFCURVE",
"553 552 CURVE SMOOTH",
"553 563 LINE SMOOTH",
"553 666 OFFCURVE",
"430 696 OFFCURVE",
"337 696 CURVE SMOOTH"
);
},
{
closed = 1;
nodes = (
"266 319 OFFCURVE",
"380 284 OFFCURVE",
"380 220 CURVE SMOOTH",
"380 187 OFFCURVE",
"358 170 OFFCURVE",
"343 164 CURVE",
"296 187 OFFCURVE",
"183 223 OFFCURVE",
"183 286 CURVE SMOOTH",
"183 309 OFFCURVE",
"198 334 OFFCURVE",
"221 343 CURVE"
);
}
);
};
layerId = UUID0;
paths = (
{
closed = 1;
nodes = (
"230 696 OFFCURVE",
"77 649 OFFCURVE",
"77 507 CURVE SMOOTH",
"77 466 OFFCURVE",
"94 423 OFFCURVE",
"126 402 CURVE",
"66 366 OFFCURVE",
"24 319 OFFCURVE",
"24 232 CURVE SMOOTH",
"24 61 OFFCURVE",
"304 54 OFFCURVE",
"304 -26 CURVE SMOOTH",
"304 -63 OFFCURVE",
"266 -67 OFFCURVE",
"242 -67 CURVE SMOOTH",
"205 -67 OFFCURVE",
"172 -57 OFFCURVE",
"172 -25 CURVE",
"8 -25 LINE",
"7 -32 OFFCURVE",
"6 -38 OFFCURVE",
"6 -41 CURVE SMOOTH",
"6 -51 LINE SMOOTH",
"6 -155 OFFCURVE",
"128 -185 OFFCURVE",
"222 -185 CURVE SMOOTH",
"329 -185 OFFCURVE",
"481 -138 OFFCURVE",
"481 4 CURVE SMOOTH",
"481 45 OFFCURVE",
"465 88 OFFCURVE",
"433 109 CURVE",
"474 132 OFFCURVE",
"535 190 OFFCURVE",
"535 280 CURVE SMOOTH",
"535 449 OFFCURVE",
"254 457 OFFCURVE",
"254 537 CURVE SMOOTH",
"254 573 OFFCURVE",
"297 578 OFFCURVE",
"322 578 CURVE SMOOTH",
"357 578 OFFCURVE",
"387 564 OFFCURVE",
"387 533 CURVE",
"551 533 LINE",
"552 542 OFFCURVE",
"553 548 OFFCURVE",
"553 552 CURVE SMOOTH",
"553 563 LINE SMOOTH",
"553 666 OFFCURVE",
"430 696 OFFCURVE",
"337 696 CURVE SMOOTH"
);
},
{
closed = 1;
nodes = (
"266 319 OFFCURVE",
"380 284 OFFCURVE",
"380 220 CURVE SMOOTH",
"380 187 OFFCURVE",
"358 170 OFFCURVE",
"343 164 CURVE",
"296 187 OFFCURVE",
"183 223 OFFCURVE",
"183 286 CURVE SMOOTH",
"183 309 OFFCURVE",
"198 334 OFFCURVE",
"221 343 CURVE"
);
}
);
width = 568;
}
);
unicode = 00A7;
},
{
glyphname = dieresis;
lastChange = "2014-09-05 18:38:41 +0000";
layers = (
{
anchors = (
{
name = _top;
position = "{203, 511}";
}
);
background = {
anchors = (
{
name = _top;
position = "{222.5, 511}";
}
);
paths = (
{
closed = 1;
nodes = (
"267 750 LINE",
"246 603 LINE",
"398 603 LINE",
"419 750 LINE"
);
},
{
closed = 1;
nodes = (
"47 750 LINE",
"26 603 LINE",
"178 603 LINE",
"199 750 LINE"
);
}
);
};
layerId = UUID0;
paths = (
{
closed = 1;
nodes = (
"267 750 LINE",
"246 603 LINE",
"398 603 LINE",
"419 750 LINE"
);
},
{
closed = 1;
nodes = (
"47 750 LINE",
"26 603 LINE",
"178 603 LINE",
"199 750 LINE"
);
}
);
width = 440;
}
);
unicode = 00A8;
},
{
glyphname = copyright;
lastChange = "2014-09-05 18:35:56 +0000";
layers = (
{
background = {
paths = (
{
closed = 1;
nodes = (
"198 696 OFFCURVE",
"41 539 OFFCURVE",
"41 344 CURVE SMOOTH",
"41 147 OFFCURVE",
"198 -10 OFFCURVE",
"395 -10 CURVE SMOOTH",
"590 -10 OFFCURVE",
"749 147 OFFCURVE",
"749 344 CURVE SMOOTH",
"749 539 OFFCURVE",
"590 696 OFFCURVE",
"395 696 CURVE SMOOTH"
);
},
{
closed = 1;
nodes = (
"388 555 LINE SMOOTH",
"288 555 OFFCURVE",
"202 483 OFFCURVE",
"202 375 CURVE SMOOTH",
"202 311 LINE SMOOTH",
"202 196 OFFCURVE",
"287 131 OFFCURVE",
"392 131 CURVE SMOOTH",
"409 131 LINE SMOOTH",
"505 131 OFFCURVE",
"578 197 OFFCURVE",
"578 305 CURVE",
"466 305 LINE",
"466 285 LINE SMOOTH",
"466 246 OFFCURVE",
"439 225 OFFCURVE",
"406 225 CURVE SMOOTH",
"397 225 LINE SMOOTH",
"364 225 OFFCURVE",
"337 252 OFFCURVE",
"337 285 CURVE SMOOTH",
"337 401 LINE SMOOTH",
"337 434 OFFCURVE",
"364 461 OFFCURVE",
"397 461 CURVE SMOOTH",
"433 461 OFFCURVE",
"460 438 OFFCURVE",
"460 401 CURVE SMOOTH",
"460 380 LINE",
"578 380 LINE",
"578 497 OFFCURVE",
"502 555 OFFCURVE",
"404 555 CURVE SMOOTH"
);
},
{
closed = 1;
nodes = (
"563 632 OFFCURVE",
"673 518 OFFCURVE",
"673 344 CURVE SMOOTH",
"673 168 OFFCURVE",
"563 55 OFFCURVE",
"395 55 CURVE SMOOTH",
"224 55 OFFCURVE",
"117 168 OFFCURVE",
"117 344 CURVE SMOOTH",
"117 518 OFFCURVE",
"224 632 OFFCURVE",
"395 632 CURVE SMOOTH"
);
}
);
};
layerId = UUID0;
paths = (
{
closed = 1;
nodes = (
"198 696 OFFCURVE",
"41 539 OFFCURVE",
"41 344 CURVE SMOOTH",
"41 147 OFFCURVE",
"198 -10 OFFCURVE",
"395 -10 CURVE SMOOTH",
"590 -10 OFFCURVE",
"749 147 OFFCURVE",
"749 344 CURVE SMOOTH",
"749 539 OFFCURVE",
"590 696 OFFCURVE",
"395 696 CURVE SMOOTH"
);
},
{
closed = 1;
nodes = (
"388 555 LINE SMOOTH",
"288 555 OFFCURVE",
"202 483 OFFCURVE",
"202 375 CURVE SMOOTH",
"202 311 LINE SMOOTH",
"202 196 OFFCURVE",
"287 131 OFFCURVE",
"392 131 CURVE SMOOTH",
"409 131 LINE SMOOTH",
"505 131 OFFCURVE",
"578 197 OFFCURVE",
"578 305 CURVE",
"466 305 LINE",
"466 285 LINE SMOOTH",
"466 246 OFFCURVE",
"439 225 OFFCURVE",
"406 225 CURVE SMOOTH",
"397 225 LINE SMOOTH",
"364 225 OFFCURVE",
"337 252 OFFCURVE",
"337 285 CURVE SMOOTH",
"337 401 LINE SMOOTH",
"337 434 OFFCURVE",
"364 461 OFFCURVE",
"397 461 CURVE SMOOTH",
"433 461 OFFCURVE",
"460 438 OFFCURVE",
"460 401 CURVE SMOOTH",
"460 380 LINE",
"578 380 LINE",
"578 497 OFFCURVE",
"502 555 OFFCURVE",
"404 555 CURVE SMOOTH"
);
},
{
closed = 1;
nodes = (
"563 632 OFFCURVE",
"673 518 OFFCURVE",
"673 344 CURVE SMOOTH",
"673 168 OFFCURVE",
"563 55 OFFCURVE",
"395 55 CURVE SMOOTH",
"224 55 OFFCURVE",
"117 168 OFFCURVE",
"117 344 CURVE SMOOTH",
"117 518 OFFCURVE",
"224 632 OFFCURVE",
"395 632 CURVE SMOOTH"
);
}
);
width = 775;
}
);
unicode = 00A9;
},
{
glyphname = ordfeminine;
lastChange = "2014-09-05 18:35:56 +0000";
layers = (
{
background = {
paths = (
{
closed = 1;
nodes = (
"104 696 OFFCURVE",
"63 586 OFFCURVE",
"63 498 CURVE SMOOTH",
"63 430 OFFCURVE",
"91 376 OFFCURVE",
"166 376 CURVE SMOOTH",
"201 376 OFFCURVE",
"235 396 OFFCURVE",
"256 423 CURVE",
"267 382 OFFCURVE",
"301 376 OFFCURVE",
"338 376 CURVE SMOOTH",
"357 376 OFFCURVE",
"381 381 OFFCURVE",
"400 390 CURVE",
"409 456 LINE",
"402 452 OFFCURVE",
"395 448 OFFCURVE",
"387 448 CURVE SMOOTH",
"376 448 OFFCURVE",
"371 454 OFFCURVE",
"371 465 CURVE SMOOTH",
"371 471 OFFCURVE",
"375 504 OFFCURVE",
"381 543 CURVE SMOOTH",
"403 690 LINE",
"313 690 LINE",
"293 653 LINE",
"289 653 LINE",
"270 681 OFFCURVE",
"240 696 OFFCURVE",
"208 696 CURVE SMOOTH"
);
},
{
closed = 1;
nodes = (
"256 621 OFFCURVE",
"269 609 OFFCURVE",
"269 586 CURVE SMOOTH",
"269 579 OFFCURVE",
"265 557 OFFCURVE",
"262 534 CURVE SMOOTH",
"256 491 LINE SMOOTH",
"253 468 OFFCURVE",
"240 449 OFFCURVE",
"213 449 CURVE SMOOTH",
"194 449 OFFCURVE",
"181 464 OFFCURVE",
"181 484 CURVE SMOOTH",
"181 488 LINE SMOOTH",
"181 493 OFFCURVE",
"184 512 OFFCURVE",
"194 578 CURVE SMOOTH",
"197 602 OFFCURVE",
"214 621 OFFCURVE",
"237 621 CURVE SMOOTH"
);
}
);
};
layerId = UUID0;
paths = (
{
closed = 1;
nodes = (
"104 696 OFFCURVE",
"63 586 OFFCURVE",
"63 498 CURVE SMOOTH",
"63 430 OFFCURVE",
"91 376 OFFCURVE",
"166 376 CURVE SMOOTH",
"201 376 OFFCURVE",
"235 396 OFFCURVE",
"256 423 CURVE",
"267 382 OFFCURVE",
"301 376 OFFCURVE",
"338 376 CURVE SMOOTH",
"357 376 OFFCURVE",
"381 381 OFFCURVE",
"400 390 CURVE",
"409 456 LINE",
"402 452 OFFCURVE",
"395 448 OFFCURVE",
"387 448 CURVE SMOOTH",
"376 448 OFFCURVE",
"371 454 OFFCURVE",
"371 465 CURVE SMOOTH",
"371 471 OFFCURVE",
"375 504 OFFCURVE",
"381 543 CURVE SMOOTH",
"403 690 LINE",
"313 690 LINE",
"293 653 LINE",
"289 653 LINE",
"270 681 OFFCURVE",
"240 696 OFFCURVE",
"208 696 CURVE SMOOTH"
);
},
{
closed = 1;
nodes = (
"256 621 OFFCURVE",
"269 609 OFFCURVE",
"269 586 CURVE SMOOTH",
"269 579 OFFCURVE",
"265 557 OFFCURVE",
"262 534 CURVE SMOOTH",
"256 491 LINE SMOOTH",
"253 468 OFFCURVE",
"240 449 OFFCURVE",
"213 449 CURVE SMOOTH",
"194 449 OFFCURVE",
"181 464 OFFCURVE",
"181 484 CURVE SMOOTH",
"181 488 LINE SMOOTH",
"181 493 OFFCURVE",
"184 512 OFFCURVE",
"194 578 CURVE SMOOTH",
"197 602 OFFCURVE",
"214 621 OFFCURVE",
"237 621 CURVE SMOOTH"
);
}
);
width = 418;
}
);
unicode = 00AA;
},
{
glyphname = guillemetleft;
lastChange = "2014-09-05 18:35:56 +0000";
layers = (
{
background = {
paths = (
{
closed = 1;
nodes = (
"362 511 LINE",
"218 337 LINE",
"313 163 LINE",
"387 163 LINE",
"327 337 LINE",
"436 511 LINE"
);
},
{
closed = 1;
nodes = (
"181 511 LINE",
"37 337 LINE",
"132 163 LINE",
"206 163 LINE",
"146 337 LINE",
"255 511 LINE"
);
}
);
};
layerId = UUID0;
paths = (
{
closed = 1;
nodes = (
"362 511 LINE",
"218 337 LINE",
"313 163 LINE",
"387 163 LINE",
"327 337 LINE",
"436 511 LINE"
);
},
{
closed = 1;
nodes = (
"181 511 LINE",
"37 337 LINE",
"132 163 LINE",
"206 163 LINE",
"146 337 LINE",
"255 511 LINE"
);
}
);
width = 442;
}
);
leftKerningGroup = guillemotleft;
rightKerningGroup = guillemotleft;
unicode = 00AB;
},
{
glyphname = logicalnot;
lastChange = "2014-09-05 18:35:56 +0000";
layers = (
{
background = {
paths = (
{
closed = 1;
nodes = (
"58 484 LINE",
"37 334 LINE",
"425 334 LINE",
"401 158 LINE",
"551 158 LINE",
"596 484 LINE"
);
}
);
};
layerId = UUID0;
paths = (
{
closed = 1;
nodes = (
"58 484 LINE",
"37 334 LINE",
"425 334 LINE",
"401 158 LINE",
"551 158 LINE",
"596 484 LINE"
);
}
);
width = 621;
}
);
unicode = 00AC;
},
{
glyphname = softhyphen;
lastChange = "2014-09-05 18:35:56 +0000";
layers = (
{
background = {
paths = (
{
closed = 1;
nodes = (
"57 354 LINE",
"35 196 LINE",
"288 196 LINE",
"311 354 LINE"
);
}
);
};
layerId = UUID0;
paths = (
{
closed = 1;
nodes = (
"57 354 LINE",
"35 196 LINE",
"288 196 LINE",
"311 354 LINE"
);
}
);
width = 351;
}
);
leftKerningGroup = hyphen;
rightKerningGroup = hyphen;
unicode = 00AD;
},
{
glyphname = registered;
lastChange = "2014-09-05 18:35:56 +0000";
layers = (
{
background = {
paths = (
{
closed = 1;
nodes = (
"198 696 OFFCURVE",
"41 539 OFFCURVE",
"41 344 CURVE SMOOTH",
"41 147 OFFCURVE",
"198 -10 OFFCURVE",
"395 -10 CURVE SMOOTH",
"590 -10 OFFCURVE",
"749 147 OFFCURVE",
"749 344 CURVE SMOOTH",
"749 539 OFFCURVE",
"590 696 OFFCURVE",
"395 696 CURVE SMOOTH"
);
},
{
closed = 1;
nodes = (
"563 632 OFFCURVE",
"673 518 OFFCURVE",
"673 344 CURVE SMOOTH",
"673 168 OFFCURVE",
"563 55 OFFCURVE",
"395 55 CURVE SMOOTH",
"224 55 OFFCURVE",
"117 168 OFFCURVE",
"117 344 CURVE SMOOTH",
"117 518 OFFCURVE",
"224 632 OFFCURVE",
"395 632 CURVE SMOOTH"
);
},
{
closed = 1;
nodes = (
"230 547 LINE",
"230 135 LINE",
"353 135 LINE",
"353 303 LINE",
"387 303 LINE SMOOTH",
"439 303 OFFCURVE",
"441 245 OFFCURVE",
"441 207 CURVE SMOOTH",
"441 148 OFFCURVE",
"472 129 OFFCURVE",
"525 129 CURVE SMOOTH",
"548 129 OFFCURVE",
"576 132 OFFCURVE",
"597 141 CURVE",
"597 165 LINE",
"568 173 OFFCURVE",
"567 214 OFFCURVE",
"567 239 CURVE SMOOTH",
"567 290 OFFCURVE",
"547 336 OFFCURVE",
"500 351 CURVE",
"501 354 LINE",
"544 362 OFFCURVE",
"575 401 OFFCURVE",
"575 445 CURVE SMOOTH",
"575 507 OFFCURVE",
"520 547 OFFCURVE",
"461 547 CURVE SMOOTH"
);
},
{
closed = 1;
nodes = (
"433 459 OFFCURVE",
"446 446 OFFCURVE",
"446 429 CURVE SMOOTH",
"446 419 LINE SMOOTH",
"446 402 OFFCURVE",
"433 389 OFFCURVE",
"416 389 CURVE SMOOTH",
"353 389 LINE",
"353 459 LINE",
"416 459 LINE SMOOTH"
);
}
);
};
layerId = UUID0;
paths = (
{
closed = 1;
nodes = (
"198 696 OFFCURVE",
"41 539 OFFCURVE",
"41 344 CURVE SMOOTH",
"41 147 OFFCURVE",
"198 -10 OFFCURVE",
"395 -10 CURVE SMOOTH",
"590 -10 OFFCURVE",
"749 147 OFFCURVE",
"749 344 CURVE SMOOTH",
"749 539 OFFCURVE",
"590 696 OFFCURVE",
"395 696 CURVE SMOOTH"
);
},
{
closed = 1;
nodes = (
"563 632 OFFCURVE",
"673 518 OFFCURVE",
"673 344 CURVE SMOOTH",
"673 168 OFFCURVE",
"563 55 OFFCURVE",
"395 55 CURVE SMOOTH",
"224 55 OFFCURVE",
"117 168 OFFCURVE",
"117 344 CURVE SMOOTH",
"117 518 OFFCURVE",
"224 632 OFFCURVE",
"395 632 CURVE SMOOTH"
);
},
{
closed = 1;
nodes = (
"230 547 LINE",
"230 135 LINE",
"353 135 LINE",
"353 303 LINE",
"387 303 LINE SMOOTH",
"439 303 OFFCURVE",
"441 245 OFFCURVE",
"441 207 CURVE SMOOTH",
"441 148 OFFCURVE",
"472 129 OFFCURVE",
"525 129 CURVE SMOOTH",
"548 129 OFFCURVE",
"576 132 OFFCURVE",
"597 141 CURVE",
"597 165 LINE",
"568 173 OFFCURVE",
"567 214 OFFCURVE",
"567 239 CURVE SMOOTH",
"567 290 OFFCURVE",
"547 336 OFFCURVE",
"500 351 CURVE",
"501 354 LINE",
"544 362 OFFCURVE",
"575 401 OFFCURVE",
"575 445 CURVE SMOOTH",
"575 507 OFFCURVE",
"520 547 OFFCURVE",
"461 547 CURVE SMOOTH"
);
},
{
closed = 1;
nodes = (
"433 459 OFFCURVE",
"446 446 OFFCURVE",
"446 429 CURVE SMOOTH",
"446 419 LINE SMOOTH",
"446 402 OFFCURVE",
"433 389 OFFCURVE",
"416 389 CURVE SMOOTH",
"353 389 LINE",
"353 459 LINE",
"416 459 LINE SMOOTH"
);
}
);
width = 775;
}
);
unicode = 00AE;
},
{
glyphname = macron;
lastChange = "2014-09-05 18:38:55 +0000";
layers = (
{
anchors = (
{
name = _top;
position = "{220, 511}";
}
);
background = {
anchors = (
{
name = _top;
position = "{230, 511}";
}
);
paths = (
{
closed = 1;
nodes = (
"71 736 LINE",
"71 662 LINE",
"389 662 LINE",
"389 736 LINE"
);
}
);
};
layerId = UUID0;
paths = (
{
closed = 1;
nodes = (
"71 736 LINE",
"71 662 LINE",
"389 662 LINE",
"389 736 LINE"
);
}
);
width = 460;
}
);
unicode = 00AF;
},
{
glyphname = degree;
lastChange = "2014-09-05 18:35:56 +0000";
layers = (
{
background = {
paths = (
{
closed = 1;
nodes = (
"144 696 OFFCURVE",
"61 616 OFFCURVE",
"61 525 CURVE SMOOTH",
"61 452 OFFCURVE",
"115 396 OFFCURVE",
"191 396 CURVE SMOOTH",
"284 396 OFFCURVE",
"364 481 OFFCURVE",
"364 566 CURVE SMOOTH",
"364 638 OFFCURVE",
"309 696 OFFCURVE",
"234 696 CURVE SMOOTH"
);
},
{
closed = 1;
nodes = (
"251 607 OFFCURVE",
"274 585 OFFCURVE",
"274 554 CURVE SMOOTH",
"274 515 OFFCURVE",
"240 483 OFFCURVE",
"203 483 CURVE SMOOTH",
"171 483 OFFCURVE",
"148 507 OFFCURVE",
"148 538 CURVE SMOOTH",
"148 575 OFFCURVE",
"185 607 OFFCURVE",
"219 607 CURVE SMOOTH"
);
}
);
};
layerId = UUID0;
paths = (
{
closed = 1;
nodes = (
"144 696 OFFCURVE",
"61 616 OFFCURVE",
"61 525 CURVE SMOOTH",
"61 452 OFFCURVE",
"115 396 OFFCURVE",
"191 396 CURVE SMOOTH",
"284 396 OFFCURVE",
"364 481 OFFCURVE",
"364 566 CURVE SMOOTH",
"364 638 OFFCURVE",
"309 696 OFFCURVE",
"234 696 CURVE SMOOTH"
);
},
{
closed = 1;
nodes = (
"251 607 OFFCURVE",
"274 585 OFFCURVE",
"274 554 CURVE SMOOTH",
"274 515 OFFCURVE",
"240 483 OFFCURVE",
"203 483 CURVE SMOOTH",
"171 483 OFFCURVE",
"148 507 OFFCURVE",
"148 538 CURVE SMOOTH",
"148 575 OFFCURVE",
"185 607 OFFCURVE",
"219 607 CURVE SMOOTH"
);
}
);
width = 354;
}
);
unicode = 00B0;
},
{
glyphname = plusminus;
lastChange = "2014-09-05 18:35:56 +0000";
layers = (
{
background = {
paths = (
{
closed = 1;
nodes = (
"274 512 LINE",
"259 400 LINE",
"67 400 LINE",
"49 272 LINE",
"241 272 LINE",
"225 160 LINE",
"353 160 LINE",
"369 272 LINE",
"561 272 LINE",
"579 400 LINE",
"387 400 LINE",
"402 512 LINE"
);
},
{
closed = 1;
nodes = (
"29 128 LINE",
"11 0 LINE",
"523 0 LINE",
"541 128 LINE"
);
}
);
};
layerId = UUID0;
paths = (
{
closed = 1;
nodes = (
"274 512 LINE",
"259 400 LINE",
"67 400 LINE",
"49 272 LINE",
"241 272 LINE",
"225 160 LINE",
"353 160 LINE",
"369 272 LINE",
"561 272 LINE",
"579 400 LINE",
"387 400 LINE",
"402 512 LINE"
);
},
{
closed = 1;
nodes = (
"29 128 LINE",
"11 0 LINE",
"523 0 LINE",
"541 128 LINE"
);
}
);
width = 615;
}
);
unicode = 00B1;
},
{
glyphname = twosuperior;
lastChange = "2014-09-05 18:35:56 +0000";
layers = (
{
background = {
paths = (
{
closed = 1;
nodes = (
"247 804 LINE SMOOTH",
"127 804 OFFCURVE",
"91 716 OFFCURVE",
"91 668 CURVE",
"186 668 LINE",
"188 683 LINE SMOOTH",
"191 704 OFFCURVE",
"211 720 OFFCURVE",
"232 720 CURVE SMOOTH",
"239 720 LINE SMOOTH",
"258 720 OFFCURVE",
"270 708 OFFCURVE",
"270 689 CURVE SMOOTH",
"270 666 OFFCURVE",
"258 645 OFFCURVE",
"233 626 CURVE SMOOTH",
"114 534 LINE SMOOTH",
"79 507 OFFCURVE",
"62 482 OFFCURVE",
"58 441 CURVE SMOOTH",
"56 422 LINE",
"343 422 LINE",
"355 512 LINE",
"214 512 LINE",
"288 563 OFFCURVE",
"381 604 OFFCURVE",
"381 702 CURVE SMOOTH",
"381 763 OFFCURVE",
"337 804 OFFCURVE",
"264 804 CURVE SMOOTH"
);
}
);
};
layerId = UUID0;
paths = (
{
closed = 1;
nodes = (
"247 804 LINE SMOOTH",
"127 804 OFFCURVE",
"91 716 OFFCURVE",
"91 668 CURVE",
"186 668 LINE",
"188 683 LINE SMOOTH",
"191 704 OFFCURVE",
"211 720 OFFCURVE",
"232 720 CURVE SMOOTH",
"239 720 LINE SMOOTH",
"258 720 OFFCURVE",
"270 708 OFFCURVE",
"270 689 CURVE SMOOTH",
"270 666 OFFCURVE",
"258 645 OFFCURVE",
"233 626 CURVE SMOOTH",
"114 534 LINE SMOOTH",
"79 507 OFFCURVE",
"62 482 OFFCURVE",
"58 441 CURVE SMOOTH",
"56 422 LINE",
"343 422 LINE",
"355 512 LINE",
"214 512 LINE",
"288 563 OFFCURVE",
"381 604 OFFCURVE",
"381 702 CURVE SMOOTH",
"381 763 OFFCURVE",
"337 804 OFFCURVE",
"264 804 CURVE SMOOTH"
);
}
);
width = 369;
}
);
unicode = 00B2;
},
{
glyphname = threesuperior;
lastChange = "2014-09-05 18:35:56 +0000";
layers = (
{
background = {
paths = (
{
closed = 1;
nodes = (
"239 801 LINE SMOOTH",
"157 801 OFFCURVE",
"89 756 OFFCURVE",
"89 687 CURVE",
"179 687 LINE",
"182 706 OFFCURVE",
"200 721 OFFCURVE",
"221 721 CURVE SMOOTH",
"231 721 LINE SMOOTH",
"250 721 OFFCURVE",
"262 707 OFFCURVE",
"262 690 CURVE SMOOTH",
"262 655 OFFCURVE",
"240 644 OFFCURVE",
"220 644 CURVE SMOOTH",
"173 644 LINE",
"163 578 LINE",
"218 578 LINE SMOOTH",
"237 578 OFFCURVE",
"251 569 OFFCURVE",
"251 546 CURVE SMOOTH",
"251 515 OFFCURVE",
"233 493 OFFCURVE",
"201 493 CURVE SMOOTH",
"187 493 LINE SMOOTH",
"154 493 OFFCURVE",
"150 511 OFFCURVE",
"150 531 CURVE",
"55 531 LINE",
"52 515 OFFCURVE",
"52 510 OFFCURVE",
"52 506 CURVE SMOOTH",
"52 453 OFFCURVE",
"94 413 OFFCURVE",
"178 413 CURVE SMOOTH",
"200 413 LINE SMOOTH",
"275 413 OFFCURVE",
"356 450 OFFCURVE",
"356 539 CURVE SMOOTH",
"356 577 OFFCURVE",
"340 603 OFFCURVE",
"307 616 CURVE",
"342 631 OFFCURVE",
"371 669 OFFCURVE",
"371 712 CURVE SMOOTH",
"371 763 OFFCURVE",
"327 801 OFFCURVE",
"255 801 CURVE SMOOTH"
);
}
);
};
layerId = UUID0;
paths = (
{
closed = 1;
nodes = (
"239 801 LINE SMOOTH",
"157 801 OFFCURVE",
"89 756 OFFCURVE",
"89 687 CURVE",
"179 687 LINE",
"182 706 OFFCURVE",
"200 721 OFFCURVE",
"221 721 CURVE SMOOTH",
"231 721 LINE SMOOTH",
"250 721 OFFCURVE",
"262 707 OFFCURVE",
"262 690 CURVE SMOOTH",
"262 655 OFFCURVE",
"240 644 OFFCURVE",
"220 644 CURVE SMOOTH",
"173 644 LINE",
"163 578 LINE",
"218 578 LINE SMOOTH",
"237 578 OFFCURVE",
"251 569 OFFCURVE",
"251 546 CURVE SMOOTH",
"251 515 OFFCURVE",
"233 493 OFFCURVE",
"201 493 CURVE SMOOTH",
"187 493 LINE SMOOTH",
"154 493 OFFCURVE",
"150 511 OFFCURVE",
"150 531 CURVE",
"55 531 LINE",
"52 515 OFFCURVE",
"52 510 OFFCURVE",
"52 506 CURVE SMOOTH",
"52 453 OFFCURVE",
"94 413 OFFCURVE",
"178 413 CURVE SMOOTH",
"200 413 LINE SMOOTH",
"275 413 OFFCURVE",
"356 450 OFFCURVE",
"356 539 CURVE SMOOTH",
"356 577 OFFCURVE",
"340 603 OFFCURVE",
"307 616 CURVE",
"342 631 OFFCURVE",
"371 669 OFFCURVE",
"371 712 CURVE SMOOTH",
"371 763 OFFCURVE",
"327 801 OFFCURVE",
"255 801 CURVE SMOOTH"
);
}
);
width = 354;
}
);
unicode = 00B3;
},
{
glyphname = acute;
lastChange = "2014-09-05 18:56:22 +0000";
layers = (
{
anchors = (
{
name = _top;
position = "{103, 511}";
}
);
background = {
anchors = (
{
name = _top;
position = "{163, 511}";
}
);
paths = (
{
closed = 1;
nodes = (
"143 720 LINE",
"31 575 LINE",
"149 575 LINE",
"295 717 LINE",
"294 720 LINE"
);
}
);
};
layerId = UUID0;
paths = (
{
closed = 1;
nodes = (
"143 720 LINE",
"31 575 LINE",
"149 575 LINE",
"295 717 LINE",
"294 720 LINE"
);
}
);
width = 333;
}
);
unicode = 00B4;
},
{
glyphname = paragraph;
lastChange = "2014-09-05 18:35:56 +0000";
layers = (
{
background = {
paths = (
{
closed = 1;
nodes = (
"294 686 LINE SMOOTH",
"163 686 OFFCURVE",
"46 571 OFFCURVE",
"46 437 CURVE SMOOTH",
"46 337 OFFCURVE",
"119 256 OFFCURVE",
"224 253 CURVE",
"166 -161 LINE",
"254 -161 LINE",
"362 607 LINE",
"438 607 LINE",
"330 -161 LINE",
"418 -161 LINE",
"526 607 LINE",
"592 607 LINE",
"603 686 LINE"
);
}
);
};
layerId = UUID0;
paths = (
{
closed = 1;
nodes = (
"294 686 LINE SMOOTH",
"163 686 OFFCURVE",
"46 571 OFFCURVE",
"46 437 CURVE SMOOTH",
"46 337 OFFCURVE",
"119 256 OFFCURVE",
"224 253 CURVE",
"166 -161 LINE",
"254 -161 LINE",
"362 607 LINE",
"438 607 LINE",
"330 -161 LINE",
"418 -161 LINE",
"526 607 LINE",
"592 607 LINE",
"603 686 LINE"
);
}
);
width = 582;
}
);
unicode = 00B6;
},
{
glyphname = periodcentered;
lastChange = "2014-09-05 18:35:56 +0000";
layers = (
{
background = {
paths = (
{
closed = 1;
nodes = (
"60 380 LINE",
"35 197 LINE",
"226 197 LINE",
"251 380 LINE"
);
}
);
};
layerId = UUID0;
paths = (
{
closed = 1;
nodes = (
"60 380 LINE",
"35 197 LINE",
"226 197 LINE",
"251 380 LINE"
);
}
);
width = 287;
}
);
unicode = 00B7;
},
{
glyphname = cedilla;
lastChange = "2014-09-05 18:35:56 +0000";
layers = (
{
anchors = (
{
name = _bottom;
position = "{165, 0}";
}
);
background = {
anchors = (
{
name = _bottom;
position = "{165, 0}";
}
);
paths = (
{
closed = 1;
nodes = (
"160 -17 LINE",
"152 -76 LINE",
"170 -76 LINE SMOOTH",
"195 -76 OFFCURVE",
"204 -85 OFFCURVE",
"204 -100 CURVE SMOOTH",
"204 -129 OFFCURVE",
"186 -139 OFFCURVE",
"159 -139 CURVE SMOOTH",
"115 -139 OFFCURVE",
"89 -120 OFFCURVE",
"79 -107 CURVE",
"39 -161 LINE",
"66 -185 OFFCURVE",
"113 -197 OFFCURVE",
"160 -197 CURVE SMOOTH",
"202 -197 OFFCURVE",
"291 -180 OFFCURVE",
"291 -100 CURVE SMOOTH",
"291 -92 LINE SMOOTH",
"291 -32 OFFCURVE",
"235 -17 OFFCURVE",
"181 -17 CURVE SMOOTH"
);
}
);
};
layerId = UUID0;
paths = (
{
closed = 1;
nodes = (
"160 -17 LINE",
"152 -76 LINE",
"170 -76 LINE SMOOTH",
"195 -76 OFFCURVE",
"204 -85 OFFCURVE",
"204 -100 CURVE SMOOTH",
"204 -129 OFFCURVE",
"186 -139 OFFCURVE",
"159 -139 CURVE SMOOTH",
"115 -139 OFFCURVE",
"89 -120 OFFCURVE",
"79 -107 CURVE",
"39 -161 LINE",
"66 -185 OFFCURVE",
"113 -197 OFFCURVE",
"160 -197 CURVE SMOOTH",
"202 -197 OFFCURVE",
"291 -180 OFFCURVE",
"291 -100 CURVE SMOOTH",
"291 -92 LINE SMOOTH",
"291 -32 OFFCURVE",
"235 -17 OFFCURVE",
"181 -17 CURVE SMOOTH"
);
}
);
width = 334;
}
);
unicode = 00B8;
},
{
glyphname = onesuperior;
lastChange = "2014-09-05 18:35:56 +0000";
layers = (
{
background = {
paths = (
{
closed = 1;
nodes = (
"261 796 LINE",
"216 769 OFFCURVE",
"151 741 OFFCURVE",
"102 738 CURVE",
"93 676 LINE",
"175 676 LINE",
"151 504 LINE",
"69 504 LINE",
"57 422 LINE",
"322 422 LINE",
"334 504 LINE",
"256 504 LINE",
"297 796 LINE"
);
}
);
};
layerId = UUID0;
paths = (
{
closed = 1;
nodes = (
"261 796 LINE",
"216 769 OFFCURVE",
"151 741 OFFCURVE",
"102 738 CURVE",
"93 676 LINE",
"175 676 LINE",
"151 504 LINE",
"69 504 LINE",
"57 422 LINE",
"322 422 LINE",
"334 504 LINE",
"256 504 LINE",
"297 796 LINE"
);
}
);
width = 335;
}
);
unicode = 00B9;
},
{
glyphname = ordmasculine;
lastChange = "2014-09-05 18:35:56 +0000";
layers = (
{
background = {
paths = (
{
closed = 1;
nodes = (
"244 696 LINE SMOOTH",
"117 696 OFFCURVE",
"60 597 OFFCURVE",
"60 507 CURVE SMOOTH",
"60 430 OFFCURVE",
"112 378 OFFCURVE",
"209 378 CURVE SMOOTH",
"218 378 LINE SMOOTH",
"327 378 OFFCURVE",
"402 458 OFFCURVE",
"402 567 CURVE SMOOTH",
"402 644 OFFCURVE",
"350 696 OFFCURVE",
"254 696 CURVE SMOOTH"
);
},
{
closed = 1;
nodes = (
"266 624 OFFCURVE",
"279 606 OFFCURVE",
"279 587 CURVE SMOOTH",
"279 582 OFFCURVE",
"275 559 OFFCURVE",
"272 536 CURVE SMOOTH",
"266 492 LINE SMOOTH",
"263 469 OFFCURVE",
"245 450 OFFCURVE",
"219 450 CURVE SMOOTH",
"198 450 OFFCURVE",
"183 466 OFFCURVE",
"183 486 CURVE SMOOTH",
"183 489 OFFCURVE",
"185 513 OFFCURVE",
"189 536 CURVE SMOOTH",
"196 582 LINE SMOOTH",
"199 605 OFFCURVE",
"218 624 OFFCURVE",
"243 624 CURVE SMOOTH"
);
}
);
};
layerId = UUID0;
paths = (
{
closed = 1;
nodes = (
"244 696 LINE SMOOTH",
"117 696 OFFCURVE",
"60 597 OFFCURVE",
"60 507 CURVE SMOOTH",
"60 430 OFFCURVE",
"112 378 OFFCURVE",
"209 378 CURVE SMOOTH",
"218 378 LINE SMOOTH",
"327 378 OFFCURVE",
"402 458 OFFCURVE",
"402 567 CURVE SMOOTH",
"402 644 OFFCURVE",
"350 696 OFFCURVE",
"254 696 CURVE SMOOTH"
);
},
{
closed = 1;
nodes = (
"266 624 OFFCURVE",
"279 606 OFFCURVE",
"279 587 CURVE SMOOTH",
"279 582 OFFCURVE",
"275 559 OFFCURVE",
"272 536 CURVE SMOOTH",
"266 492 LINE SMOOTH",
"263 469 OFFCURVE",
"245 450 OFFCURVE",
"219 450 CURVE SMOOTH",
"198 450 OFFCURVE",
"183 466 OFFCURVE",
"183 486 CURVE SMOOTH",
"183 489 OFFCURVE",
"185 513 OFFCURVE",
"189 536 CURVE SMOOTH",
"196 582 LINE SMOOTH",
"199 605 OFFCURVE",
"218 624 OFFCURVE",
"243 624 CURVE SMOOTH"
);
}
);
width = 395;
}
);
unicode = 00BA;
},
{
glyphname = guillemetright;
lastChange = "2014-09-05 18:35:56 +0000";
layers = (
{
background = {
paths = (
{
closed = 1;
nodes = (
"249 511 LINE",
"310 337 LINE",
"200 163 LINE",
"274 163 LINE",
"419 337 LINE",
"323 511 LINE"
);
},
{
closed = 1;
nodes = (
"68 511 LINE",
"129 337 LINE",
"19 163 LINE",
"93 163 LINE",
"238 337 LINE",
"142 511 LINE"
);
}
);
};
layerId = UUID0;
paths = (
{
closed = 1;
nodes = (
"249 511 LINE",
"310 337 LINE",
"200 163 LINE",
"274 163 LINE",
"419 337 LINE",
"323 511 LINE"
);
},
{
closed = 1;
nodes = (
"68 511 LINE",
"129 337 LINE",
"19 163 LINE",
"93 163 LINE",
"238 337 LINE",
"142 511 LINE"
);
}
);
width = 443;
}
);
leftKerningGroup = guillemotright;
rightKerningGroup = guillemotright;
unicode = 00BB;
},
{
glyphname = onequarter;
lastChange = "2014-09-05 18:35:56 +0000";
layers = (
{
background = {
paths = (
{
closed = 1;
nodes = (
"620 686 LINE",
"103 0 LINE",
"192 0 LINE",
"706 686 LINE"
);
},
{
closed = 1;
nodes = (
"243 685 LINE",
"198 658 OFFCURVE",
"133 630 OFFCURVE",
"83 627 CURVE",
"75 565 LINE",
"157 565 LINE",
"133 393 LINE",
"51 393 LINE",
"39 311 LINE",
"304 311 LINE",
"316 393 LINE",
"238 393 LINE",
"279 685 LINE"
);
},
{
closed = 1;
nodes = (
"529 375 LINE",
"510 322 OFFCURVE",
"449 209 OFFCURVE",
"415 162 CURVE",
"404 81 LINE",
"555 81 LINE",
"543 0 LINE",
"644 0 LINE",
"656 81 LINE",
"709 81 LINE",
"720 161 LINE",
"667 161 LINE",
"692 339 LINE",
"647 339 LINE",
"636 309 OFFCURVE",
"595 242 OFFCURVE",
"574 216 CURVE",
"566 161 LINE",
"485 161 LINE",
"529 207 OFFCURVE",
"608 317 OFFCURVE",
"624 375 CURVE"
);
}
);
};
layerId = UUID0;
paths = (
{
closed = 1;
nodes = (
"620 686 LINE",
"103 0 LINE",
"192 0 LINE",
"706 686 LINE"
);
},
{
closed = 1;
nodes = (
"243 685 LINE",
"198 658 OFFCURVE",
"133 630 OFFCURVE",
"83 627 CURVE",
"75 565 LINE",
"157 565 LINE",
"133 393 LINE",
"51 393 LINE",
"39 311 LINE",
"304 311 LINE",
"316 393 LINE",
"238 393 LINE",
"279 685 LINE"
);
},
{
closed = 1;
nodes = (
"529 375 LINE",
"510 322 OFFCURVE",
"449 209 OFFCURVE",
"415 162 CURVE",
"404 81 LINE",
"555 81 LINE",
"543 0 LINE",
"644 0 LINE",
"656 81 LINE",
"709 81 LINE",
"720 161 LINE",
"667 161 LINE",
"692 339 LINE",
"647 339 LINE",
"636 309 OFFCURVE",
"595 242 OFFCURVE",
"574 216 CURVE",
"566 161 LINE",
"485 161 LINE",
"529 207 OFFCURVE",
"608 317 OFFCURVE",
"624 375 CURVE"
);
}
);
width = 765;
}
);
unicode = 00BC;
},
{
glyphname = onehalf;
lastChange = "2014-09-05 18:35:56 +0000";
layers = (
{
background = {
paths = (
{
closed = 1;
nodes = (
"617 686 LINE",
"100 0 LINE",
"189 0 LINE",
"703 686 LINE"
);
},
{
closed = 1;
nodes = (
"240 686 LINE",
"195 659 OFFCURVE",
"130 631 OFFCURVE",
"81 628 CURVE",
"72 566 LINE",
"154 566 LINE",
"130 394 LINE",
"48 394 LINE",
"36 312 LINE",
"301 312 LINE",
"313 394 LINE",
"235 394 LINE",
"276 686 LINE"
);
},
{
closed = 1;
nodes = (
"600 382 LINE SMOOTH",
"480 382 OFFCURVE",
"444 294 OFFCURVE",
"444 246 CURVE",
"539 246 LINE",
"541 261 LINE SMOOTH",
"544 282 OFFCURVE",
"564 298 OFFCURVE",
"585 298 CURVE SMOOTH",
"592 298 LINE SMOOTH",
"611 298 OFFCURVE",
"623 286 OFFCURVE",
"623 267 CURVE SMOOTH",
"623 244 OFFCURVE",
"611 223 OFFCURVE",
"586 204 CURVE SMOOTH",
"467 112 LINE SMOOTH",
"432 85 OFFCURVE",
"415 60 OFFCURVE",
"411 19 CURVE SMOOTH",
"409 0 LINE",
"696 0 LINE",
"708 90 LINE",
"567 90 LINE",
"641 141 OFFCURVE",
"734 182 OFFCURVE",
"734 280 CURVE SMOOTH",
"734 341 OFFCURVE",
"690 382 OFFCURVE",
"617 382 CURVE SMOOTH"
);
}
);
};
layerId = UUID0;
paths = (
{
closed = 1;
nodes = (
"617 686 LINE",
"100 0 LINE",
"189 0 LINE",
"703 686 LINE"
);
},
{
closed = 1;
nodes = (
"240 686 LINE",
"195 659 OFFCURVE",
"130 631 OFFCURVE",
"81 628 CURVE",
"72 566 LINE",
"154 566 LINE",
"130 394 LINE",
"48 394 LINE",
"36 312 LINE",
"301 312 LINE",
"313 394 LINE",
"235 394 LINE",
"276 686 LINE"
);
},
{
closed = 1;
nodes = (
"600 382 LINE SMOOTH",
"480 382 OFFCURVE",
"444 294 OFFCURVE",
"444 246 CURVE",
"539 246 LINE",
"541 261 LINE SMOOTH",
"544 282 OFFCURVE",
"564 298 OFFCURVE",
"585 298 CURVE SMOOTH",
"592 298 LINE SMOOTH",
"611 298 OFFCURVE",
"623 286 OFFCURVE",
"623 267 CURVE SMOOTH",
"623 244 OFFCURVE",
"611 223 OFFCURVE",
"586 204 CURVE SMOOTH",
"467 112 LINE SMOOTH",
"432 85 OFFCURVE",
"415 60 OFFCURVE",
"411 19 CURVE SMOOTH",
"409 0 LINE",
"696 0 LINE",
"708 90 LINE",
"567 90 LINE",
"641 141 OFFCURVE",
"734 182 OFFCURVE",
"734 280 CURVE SMOOTH",
"734 341 OFFCURVE",
"690 382 OFFCURVE",
"617 382 CURVE SMOOTH"
);
}
);
width = 765;
}
);
unicode = 00BD;
},
{
glyphname = threequarters;
lastChange = "2014-09-05 18:35:56 +0000";
layers = (
{
background = {
paths = (
{
closed = 1;
nodes = (
"612 686 LINE",
"96 0 LINE",
"185 0 LINE",
"698 686 LINE"
);
},
{
closed = 1;
nodes = (
"230 693 LINE SMOOTH",
"148 693 OFFCURVE",
"80 648 OFFCURVE",
"80 579 CURVE",
"170 579 LINE",
"173 598 OFFCURVE",
"191 613 OFFCURVE",
"212 613 CURVE SMOOTH",
"222 613 LINE SMOOTH",
"241 613 OFFCURVE",
"253 599 OFFCURVE",
"253 582 CURVE SMOOTH",
"253 547 OFFCURVE",
"231 536 OFFCURVE",
"211 536 CURVE SMOOTH",
"164 536 LINE",
"154 470 LINE",
"209 470 LINE SMOOTH",
"228 470 OFFCURVE",
"242 461 OFFCURVE",
"242 438 CURVE SMOOTH",
"242 407 OFFCURVE",
"224 385 OFFCURVE",
"192 385 CURVE SMOOTH",
"178 385 LINE SMOOTH",
"145 385 OFFCURVE",
"141 403 OFFCURVE",
"141 423 CURVE",
"46 423 LINE",
"43 407 OFFCURVE",
"43 402 OFFCURVE",
"43 398 CURVE SMOOTH",
"43 345 OFFCURVE",
"85 305 OFFCURVE",
"169 305 CURVE SMOOTH",
"191 305 LINE SMOOTH",
"266 305 OFFCURVE",
"347 342 OFFCURVE",
"347 431 CURVE SMOOTH",
"347 469 OFFCURVE",
"331 495 OFFCURVE",
"298 508 CURVE",
"333 523 OFFCURVE",
"362 561 OFFCURVE",
"362 604 CURVE SMOOTH",
"362 655 OFFCURVE",
"318 693 OFFCURVE",
"246 693 CURVE SMOOTH"
);
},
{
closed = 1;
nodes = (
"522 375 LINE",
"503 322 OFFCURVE",
"440 211 OFFCURVE",
"408 162 CURVE",
"396 81 LINE",
"547 81 LINE",
"536 0 LINE",
"637 0 LINE",
"648 81 LINE",
"701 81 LINE",
"712 161 LINE",
"659 161 LINE",
"684 339 LINE",
"639 339 LINE",
"628 309 OFFCURVE",
"587 242 OFFCURVE",
"566 216 CURVE",
"558 161 LINE",
"477 161 LINE",
"522 206 OFFCURVE",
"601 318 OFFCURVE",
"617 375 CURVE"
);
}
);
};
layerId = UUID0;
paths = (
{
closed = 1;
nodes = (
"612 686 LINE",
"96 0 LINE",
"185 0 LINE",
"698 686 LINE"
);
},
{
closed = 1;
nodes = (
"230 693 LINE SMOOTH",
"148 693 OFFCURVE",
"80 648 OFFCURVE",
"80 579 CURVE",
"170 579 LINE",
"173 598 OFFCURVE",
"191 613 OFFCURVE",
"212 613 CURVE SMOOTH",
"222 613 LINE SMOOTH",
"241 613 OFFCURVE",
"253 599 OFFCURVE",
"253 582 CURVE SMOOTH",
"253 547 OFFCURVE",
"231 536 OFFCURVE",
"211 536 CURVE SMOOTH",
"164 536 LINE",
"154 470 LINE",
"209 470 LINE SMOOTH",
"228 470 OFFCURVE",
"242 461 OFFCURVE",
"242 438 CURVE SMOOTH",
"242 407 OFFCURVE",
"224 385 OFFCURVE",
"192 385 CURVE SMOOTH",
"178 385 LINE SMOOTH",
"145 385 OFFCURVE",
"141 403 OFFCURVE",
"141 423 CURVE",
"46 423 LINE",
"43 407 OFFCURVE",
"43 402 OFFCURVE",
"43 398 CURVE SMOOTH",
"43 345 OFFCURVE",
"85 305 OFFCURVE",
"169 305 CURVE SMOOTH",
"191 305 LINE SMOOTH",
"266 305 OFFCURVE",
"347 342 OFFCURVE",
"347 431 CURVE SMOOTH",
"347 469 OFFCURVE",
"331 495 OFFCURVE",
"298 508 CURVE",
"333 523 OFFCURVE",
"362 561 OFFCURVE",
"362 604 CURVE SMOOTH",
"362 655 OFFCURVE",
"318 693 OFFCURVE",
"246 693 CURVE SMOOTH"
);
},
{
closed = 1;
nodes = (
"522 375 LINE",
"503 322 OFFCURVE",
"440 211 OFFCURVE",
"408 162 CURVE",
"396 81 LINE",
"547 81 LINE",
"536 0 LINE",
"637 0 LINE",
"648 81 LINE",
"701 81 LINE",
"712 161 LINE",
"659 161 LINE",
"684 339 LINE",
"639 339 LINE",
"628 309 OFFCURVE",
"587 242 OFFCURVE",
"566 216 CURVE",
"558 161 LINE",
"477 161 LINE",
"522 206 OFFCURVE",
"601 318 OFFCURVE",
"617 375 CURVE"
);
}
);
width = 757;
}
);
unicode = 00BE;
},
{
glyphname = questiondown;
lastChange = "2014-09-05 18:35:56 +0000";
layers = (
{
background = {
paths = (
{
closed = 1;
nodes = (
"198 292 LINE",
"195 270 LINE SMOOTH",
"187 212 OFFCURVE",
"-12 184 OFFCURVE",
"-12 2 CURVE SMOOTH",
"-12 -112 OFFCURVE",
"85 -186 OFFCURVE",
"200 -186 CURVE SMOOTH",
"238 -186 LINE SMOOTH",
"384 -186 OFFCURVE",
"498 -106 OFFCURVE",
"518 25 CURVE SMOOTH",
"520 38 OFFCURVE",
"521 50 OFFCURVE",
"521 63 CURVE",
"337 63 LINE",
"337 15 OFFCURVE",
"324 -48 OFFCURVE",
"257 -48 CURVE SMOOTH",
"222 -48 OFFCURVE",
"200 -21 OFFCURVE",
"200 12 CURVE SMOOTH",
"200 108 OFFCURVE",
"347 150 OFFCURVE",
"360 233 CURVE SMOOTH",
"369 292 LINE"
);
},
{
closed = 1;
nodes = (
"216 511 LINE",
"191 328 LINE",
"382 328 LINE",
"407 511 LINE"
);
}
);
};
layerId = UUID0;
paths = (
{
closed = 1;
nodes = (
"198 292 LINE",
"195 270 LINE SMOOTH",
"187 212 OFFCURVE",
"-12 184 OFFCURVE",
"-12 2 CURVE SMOOTH",
"-12 -112 OFFCURVE",
"85 -186 OFFCURVE",
"200 -186 CURVE SMOOTH",
"238 -186 LINE SMOOTH",
"384 -186 OFFCURVE",
"498 -106 OFFCURVE",
"518 25 CURVE SMOOTH",
"520 38 OFFCURVE",
"521 50 OFFCURVE",
"521 63 CURVE",
"337 63 LINE",
"337 15 OFFCURVE",
"324 -48 OFFCURVE",
"257 -48 CURVE SMOOTH",
"222 -48 OFFCURVE",
"200 -21 OFFCURVE",
"200 12 CURVE SMOOTH",
"200 108 OFFCURVE",
"347 150 OFFCURVE",
"360 233 CURVE SMOOTH",
"369 292 LINE"
);
},
{
closed = 1;
nodes = (
"216 511 LINE",
"191 328 LINE",
"382 328 LINE",
"407 511 LINE"
);
}
);
width = 578;
}
);
unicode = 00BF;
},
{
glyphname = Agrave;
lastChange = "2014-09-05 18:35:56 +0000";
layers = (
{
background = {
paths = (
{
closed = 1;
nodes = (
"281 686 LINE",
"-44 0 LINE",
"157 0 LINE",
"214 122 LINE",
"432 122 LINE",
"456 0 LINE",
"674 0 LINE",
"542 686 LINE"
);
},
{
closed = 1;
nodes = (
"405 267 LINE",
"283 267 LINE",
"371 475 LINE",
"376 475 LINE"
);
},
{
closed = 1;
nodes = (
"251 895 LINE",
"248 892 LINE",
"354 750 LINE",
"472 750 LINE",
"402 895 LINE"
);
}
);
};
layerId = UUID0;
paths = (
{
closed = 1;
nodes = (
"281 686 LINE",
"-44 0 LINE",
"157 0 LINE",
"214 122 LINE",
"432 122 LINE",
"456 0 LINE",
"674 0 LINE",
"542 686 LINE"
);
},
{
closed = 1;
nodes = (
"405 267 LINE",
"283 267 LINE",
"371 475 LINE",
"376 475 LINE"
);
},
{
closed = 1;
nodes = (
"251 895 LINE",
"248 892 LINE",
"354 750 LINE",
"472 750 LINE",
"402 895 LINE"
);
}
);
width = 709;
}
);
leftKerningGroup = A;
rightKerningGroup = A;
unicode = 00C0;
},
{
glyphname = Aacute;
lastChange = "2014-09-05 18:35:56 +0000";
layers = (
{
background = {
paths = (
{
closed = 1;
nodes = (
"281 686 LINE",
"-44 0 LINE",
"157 0 LINE",
"214 122 LINE",
"432 122 LINE",
"456 0 LINE",
"674 0 LINE",
"542 686 LINE"
);
},
{
closed = 1;
nodes = (
"405 267 LINE",
"283 267 LINE",
"371 475 LINE",
"376 475 LINE"
);
},
{
closed = 1;
nodes = (
"468 895 LINE",
"356 750 LINE",
"474 750 LINE",
"620 892 LINE",
"619 895 LINE"
);
}
);
};
layerId = UUID0;
paths = (
{
closed = 1;
nodes = (
"281 686 LINE",
"-44 0 LINE",
"157 0 LINE",
"214 122 LINE",
"432 122 LINE",
"456 0 LINE",
"674 0 LINE",
"542 686 LINE"
);
},
{
closed = 1;
nodes = (
"405 267 LINE",
"283 267 LINE",
"371 475 LINE",
"376 475 LINE"
);
},
{
closed = 1;
nodes = (
"468 895 LINE",
"356 750 LINE",
"474 750 LINE",
"620 892 LINE",
"619 895 LINE"
);
}
);
width = 709;
}
);
leftKerningGroup = A;
rightKerningGroup = A;
unicode = 00C1;
},
{
glyphname = Acircumflex;
lastChange = "2014-09-05 18:35:56 +0000";
layers = (
{
background = {
paths = (
{
closed = 1;
nodes = (
"281 686 LINE",
"-44 0 LINE",
"157 0 LINE",
"214 122 LINE",
"432 122 LINE",
"456 0 LINE",
"674 0 LINE",
"542 686 LINE"
);
},
{
closed = 1;
nodes = (
"405 267 LINE",
"283 267 LINE",
"371 475 LINE",
"376 475 LINE"
);
},
{
closed = 1;
nodes = (
"371 896 LINE",
"211 751 LINE",
"339 751 LINE",
"424 828 LINE",
"487 751 LINE",
"617 751 LINE",
"499 896 LINE"
);
}
);
};
layerId = UUID0;
paths = (
{
closed = 1;
nodes = (
"281 686 LINE",
"-44 0 LINE",
"157 0 LINE",
"214 122 LINE",
"432 122 LINE",
"456 0 LINE",
"674 0 LINE",
"542 686 LINE"
);
},
{
closed = 1;
nodes = (
"405 267 LINE",
"283 267 LINE",
"371 475 LINE",
"376 475 LINE"
);
},
{
closed = 1;
nodes = (
"371 896 LINE",
"211 751 LINE",
"339 751 LINE",
"424 828 LINE",
"487 751 LINE",
"617 751 LINE",
"499 896 LINE"
);
}
);
width = 709;
}
);
leftKerningGroup = A;
rightKerningGroup = A;
unicode = 00C2;
},
{
glyphname = Atilde;
lastChange = "2014-09-05 18:35:56 +0000";
layers = (
{
background = {
paths = (
{
closed = 1;
nodes = (
"281 686 LINE",
"-44 0 LINE",
"157 0 LINE",
"214 122 LINE",
"432 122 LINE",
"456 0 LINE",
"674 0 LINE",
"542 686 LINE"
);
},
{
closed = 1;
nodes = (
"405 267 LINE",
"283 267 LINE",
"371 475 LINE",
"376 475 LINE"
);
},
{
closed = 1;
nodes = (
"572 889 LINE",
"561 866 OFFCURVE",
"541 849 OFFCURVE",
"516 849 CURVE SMOOTH",
"462 849 OFFCURVE",
"413 889 OFFCURVE",
"349 889 CURVE SMOOTH",
"264 889 OFFCURVE",
"200 818 OFFCURVE",
"189 746 CURVE",
"269 746 LINE",
"280 769 OFFCURVE",
"300 786 OFFCURVE",
"325 786 CURVE SMOOTH",
"378 786 OFFCURVE",
"428 746 OFFCURVE",
"492 746 CURVE SMOOTH",
"579 746 OFFCURVE",
"642 817 OFFCURVE",
"653 889 CURVE"
);
}
);
};
layerId = UUID0;
paths = (
{
closed = 1;
nodes = (
"281 686 LINE",
"-44 0 LINE",
"157 0 LINE",
"214 122 LINE",
"432 122 LINE",
"456 0 LINE",
"674 0 LINE",
"542 686 LINE"
);
},
{
closed = 1;
nodes = (
"405 267 LINE",
"283 267 LINE",
"371 475 LINE",
"376 475 LINE"
);
},
{
closed = 1;
nodes = (
"572 889 LINE",
"561 866 OFFCURVE",
"541 849 OFFCURVE",
"516 849 CURVE SMOOTH",
"462 849 OFFCURVE",
"413 889 OFFCURVE",
"349 889 CURVE SMOOTH",
"264 889 OFFCURVE",
"200 818 OFFCURVE",
"189 746 CURVE",
"269 746 LINE",
"280 769 OFFCURVE",
"300 786 OFFCURVE",
"325 786 CURVE SMOOTH",
"378 786 OFFCURVE",
"428 746 OFFCURVE",
"492 746 CURVE SMOOTH",
"579 746 OFFCURVE",
"642 817 OFFCURVE",
"653 889 CURVE"
);
}
);
width = 709;
}
);
leftKerningGroup = A;
rightKerningGroup = A;
unicode = 00C3;
},
{
glyphname = Adieresis;
lastChange = "2014-09-05 18:35:56 +0000";
layers = (
{
background = {
paths = (
{
closed = 1;
nodes = (
"281 686 LINE",
"-44 0 LINE",
"157 0 LINE",
"214 122 LINE",
"432 122 LINE",
"456 0 LINE",
"674 0 LINE",
"542 686 LINE"
);
},
{
closed = 1;
nodes = (
"405 267 LINE",
"283 267 LINE",
"371 475 LINE",
"376 475 LINE"
);
},
{
closed = 1;
nodes = (
"249 897 LINE",
"228 750 LINE",
"380 750 LINE",
"401 897 LINE"
);
},
{
closed = 1;
nodes = (
"469 897 LINE",
"448 750 LINE",
"600 750 LINE",
"621 897 LINE"
);
}
);
};
layerId = UUID0;
paths = (
{
closed = 1;
nodes = (
"281 686 LINE",
"-44 0 LINE",
"157 0 LINE",
"214 122 LINE",
"432 122 LINE",
"456 0 LINE",
"674 0 LINE",
"542 686 LINE"
);
},
{
closed = 1;
nodes = (
"405 267 LINE",
"283 267 LINE",
"371 475 LINE",
"376 475 LINE"
);
},
{
closed = 1;
nodes = (
"249 897 LINE",
"228 750 LINE",
"380 750 LINE",
"401 897 LINE"
);
},
{
closed = 1;
nodes = (
"469 897 LINE",
"448 750 LINE",
"600 750 LINE",
"621 897 LINE"
);
}
);
width = 709;
}
);
leftKerningGroup = A;
rightKerningGroup = A;
unicode = 00C4;
},
{
glyphname = Aring;
lastChange = "2014-09-05 18:35:56 +0000";
layers = (
{
background = {
paths = (
{
closed = 1;
nodes = (
"281 686 LINE",
"-44 0 LINE",
"157 0 LINE",
"214 122 LINE",
"432 122 LINE",
"456 0 LINE",
"674 0 LINE",
"542 686 LINE"
);
},
{
closed = 1;
nodes = (
"405 267 LINE",
"283 267 LINE",
"371 475 LINE",
"376 475 LINE"
);
},
{
closed = 1;
nodes = (
"376 937 OFFCURVE",
"322 885 OFFCURVE",
"322 823 CURVE SMOOTH",
"322 772 OFFCURVE",
"359 736 OFFCURVE",
"410 736 CURVE SMOOTH",
"474 736 OFFCURVE",
"526 787 OFFCURVE",
"526 851 CURVE SMOOTH",
"526 900 OFFCURVE",
"490 937 OFFCURVE",
"439 937 CURVE SMOOTH"
);
},
{
closed = 1;
nodes = (
"448 871 OFFCURVE",
"460 859 OFFCURVE",
"460 840 CURVE SMOOTH",
"460 813 OFFCURVE",
"439 801 OFFCURVE",
"420 801 CURVE SMOOTH",
"401 801 OFFCURVE",
"389 814 OFFCURVE",
"389 831 CURVE SMOOTH",
"389 854 OFFCURVE",
"406 871 OFFCURVE",
"429 871 CURVE SMOOTH"
);
}
);
};
layerId = UUID0;
paths = (
{
closed = 1;
nodes = (
"281 686 LINE",
"-44 0 LINE",
"157 0 LINE",
"214 122 LINE",
"432 122 LINE",
"456 0 LINE",
"674 0 LINE",
"542 686 LINE"
);
},
{
closed = 1;
nodes = (
"405 267 LINE",
"283 267 LINE",
"371 475 LINE",
"376 475 LINE"
);
},
{
closed = 1;
nodes = (
"376 937 OFFCURVE",
"322 885 OFFCURVE",
"322 823 CURVE SMOOTH",
"322 772 OFFCURVE",
"359 736 OFFCURVE",
"410 736 CURVE SMOOTH",
"474 736 OFFCURVE",
"526 787 OFFCURVE",
"526 851 CURVE SMOOTH",
"526 900 OFFCURVE",
"490 937 OFFCURVE",
"439 937 CURVE SMOOTH"
);
},
{
closed = 1;
nodes = (
"448 871 OFFCURVE",
"460 859 OFFCURVE",
"460 840 CURVE SMOOTH",
"460 813 OFFCURVE",
"439 801 OFFCURVE",
"420 801 CURVE SMOOTH",
"401 801 OFFCURVE",
"389 814 OFFCURVE",
"389 831 CURVE SMOOTH",
"389 854 OFFCURVE",
"406 871 OFFCURVE",
"429 871 CURVE SMOOTH"
);
}
);
width = 709;
}
);
leftKerningGroup = A;
rightKerningGroup = A;
unicode = 00C5;
},
{
glyphname = AE;
lastChange = "2014-09-05 18:38:13 +0000";
layers = (
{
anchors = (
{
name = top;
position = "{605, 686}";
}
);
background = {
anchors = (
{
name = top;
position = "{506, 686}";
}
);
paths = (
{
closed = 1;
nodes = (
"368 686 LINE",
"-53 0 LINE",
"146 0 LINE",
"221 122 LINE",
"439 122 LINE",
"439 0 LINE",
"942 0 LINE",
"942 164 LINE",
"656 164 LINE",
"656 275 LINE",
"950 275 LINE",
"971 428 LINE",
"642 428 LINE",
"642 528 LINE",
"997 528 LINE",
"1039 686 LINE"
);
},
{
closed = 1;
nodes = (
"433 267 LINE",
"311 267 LINE",
"428 475 LINE",
"433 475 LINE"
);
}
);
};
layerId = UUID0;
paths = (
{
closed = 1;
nodes = (
"368 686 LINE",
"-53 0 LINE",
"146 0 LINE",
"221 122 LINE",
"439 122 LINE",
"439 0 LINE",
"942 0 LINE",
"942 164 LINE",
"656 164 LINE",
"656 275 LINE",
"950 275 LINE",
"971 428 LINE",
"642 428 LINE",
"642 528 LINE",
"997 528 LINE",
"1039 686 LINE"
);
},
{
closed = 1;
nodes = (
"433 267 LINE",
"311 267 LINE",
"428 475 LINE",
"433 475 LINE"
);
}
);
width = 1011;
}
);
rightKerningGroup = E;
unicode = 00C6;
},
{
glyphname = Ccedilla;
lastChange = "2014-09-05 18:35:56 +0000";
layers = (
{
background = {
paths = (
{
closed = 1;
nodes = (
"398 696 LINE SMOOTH",
"217 696 OFFCURVE",
"70 576 OFFCURVE",
"46 396 CURVE SMOOTH",
"30 279 OFFCURVE",
"27 258 OFFCURVE",
"27 242 CURVE SMOOTH",
"27 81 OFFCURVE",
"146 -10 OFFCURVE",
"307 -10 CURVE SMOOTH",
"335 -10 LINE SMOOTH",
"515 -10 OFFCURVE",
"631 100 OFFCURVE",
"658 280 CURVE",
"470 280 LINE",
"465 247 LINE SMOOTH",
"455 183 OFFCURVE",
"419 147 OFFCURVE",
"351 147 CURVE SMOOTH",
"337 147 LINE SMOOTH",
"286 147 OFFCURVE",
"250 184 OFFCURVE",
"250 233 CURVE SMOOTH",
"250 240 LINE SMOOTH",
"250 242 OFFCURVE",
"250 244 OFFCURVE",
"251 247 CURVE",
"278 440 LINE SMOOTH",
"286 496 OFFCURVE",
"324 540 OFFCURVE",
"392 540 CURVE SMOOTH",
"397 540 LINE SMOOTH",
"448 540 OFFCURVE",
"484 509 OFFCURVE",
"484 457 CURVE SMOOTH",
"484 448 LINE SMOOTH",
"484 446 OFFCURVE",
"484 443 OFFCURVE",
"483 440 CURVE SMOOTH",
"478 405 LINE",
"675 405 LINE",
"678 424 OFFCURVE",
"679 441 OFFCURVE",
"679 460 CURVE SMOOTH",
"679 616 OFFCURVE",
"573 696 OFFCURVE",
"426 696 CURVE SMOOTH"
);
},
{
closed = 1;
nodes = (
"276 -17 LINE",
"268 -76 LINE",
"286 -76 LINE SMOOTH",
"311 -76 OFFCURVE",
"320 -85 OFFCURVE",
"320 -100 CURVE SMOOTH",
"320 -129 OFFCURVE",
"302 -139 OFFCURVE",
"275 -139 CURVE SMOOTH",
"231 -139 OFFCURVE",
"205 -120 OFFCURVE",
"195 -107 CURVE",
"155 -161 LINE",
"182 -185 OFFCURVE",
"229 -197 OFFCURVE",
"276 -197 CURVE SMOOTH",
"318 -197 OFFCURVE",
"407 -180 OFFCURVE",
"407 -100 CURVE SMOOTH",
"407 -92 LINE SMOOTH",
"407 -32 OFFCURVE",
"351 -17 OFFCURVE",
"297 -17 CURVE SMOOTH"
);
}
);
};
layerId = UUID0;
paths = (
{
closed = 1;
nodes = (
"398 696 LINE SMOOTH",
"217 696 OFFCURVE",
"70 576 OFFCURVE",
"46 396 CURVE SMOOTH",
"30 279 OFFCURVE",
"27 258 OFFCURVE",
"27 242 CURVE SMOOTH",
"27 81 OFFCURVE",
"146 -10 OFFCURVE",
"307 -10 CURVE SMOOTH",
"335 -10 LINE SMOOTH",
"515 -10 OFFCURVE",
"631 100 OFFCURVE",
"658 280 CURVE",
"470 280 LINE",
"465 247 LINE SMOOTH",
"455 183 OFFCURVE",
"419 147 OFFCURVE",
"351 147 CURVE SMOOTH",
"337 147 LINE SMOOTH",
"286 147 OFFCURVE",
"250 184 OFFCURVE",
"250 233 CURVE SMOOTH",
"250 240 LINE SMOOTH",
"250 242 OFFCURVE",
"250 244 OFFCURVE",
"251 247 CURVE",
"278 440 LINE SMOOTH",
"286 496 OFFCURVE",
"324 540 OFFCURVE",
"392 540 CURVE SMOOTH",
"397 540 LINE SMOOTH",
"448 540 OFFCURVE",
"484 509 OFFCURVE",
"484 457 CURVE SMOOTH",
"484 448 LINE SMOOTH",
"484 446 OFFCURVE",
"484 443 OFFCURVE",
"483 440 CURVE SMOOTH",
"478 405 LINE",
"675 405 LINE",
"678 424 OFFCURVE",
"679 441 OFFCURVE",
"679 460 CURVE SMOOTH",
"679 616 OFFCURVE",
"573 696 OFFCURVE",
"426 696 CURVE SMOOTH"
);
},
{
closed = 1;
nodes = (
"276 -17 LINE",
"268 -76 LINE",
"286 -76 LINE SMOOTH",
"311 -76 OFFCURVE",
"320 -85 OFFCURVE",
"320 -100 CURVE SMOOTH",
"320 -129 OFFCURVE",
"302 -139 OFFCURVE",
"275 -139 CURVE SMOOTH",
"231 -139 OFFCURVE",
"205 -120 OFFCURVE",
"195 -107 CURVE",
"155 -161 LINE",
"182 -185 OFFCURVE",
"229 -197 OFFCURVE",
"276 -197 CURVE SMOOTH",
"318 -197 OFFCURVE",
"407 -180 OFFCURVE",
"407 -100 CURVE SMOOTH",
"407 -92 LINE SMOOTH",
"407 -32 OFFCURVE",
"351 -17 OFFCURVE",
"297 -17 CURVE SMOOTH"
);
}
);
width = 684;
}
);
leftKerningGroup = C;
rightKerningGroup = C;
unicode = 00C7;
},
{
glyphname = Egrave;
lastChange = "2014-09-05 18:35:56 +0000";
layers = (
{
background = {
paths = (
{
closed = 1;
nodes = (
"113 686 LINE",
"16 0 LINE",
"531 0 LINE",
"531 164 LINE",
"245 164 LINE",
"261 275 LINE",
"539 275 LINE",
"560 428 LINE",
"282 428 LINE",
"297 528 LINE",
"586 528 LINE",
"628 686 LINE"
);
},
{
closed = 1;
nodes = (
"219 896 LINE",
"216 893 LINE",
"322 751 LINE",
"440 751 LINE",
"370 896 LINE"
);
}
);
};
layerId = UUID0;
paths = (
{
closed = 1;
nodes = (
"113 686 LINE",
"16 0 LINE",
"531 0 LINE",
"531 164 LINE",
"245 164 LINE",
"261 275 LINE",
"539 275 LINE",
"560 428 LINE",
"282 428 LINE",
"297 528 LINE",
"586 528 LINE",
"628 686 LINE"
);
},
{
closed = 1;
nodes = (
"219 896 LINE",
"216 893 LINE",
"322 751 LINE",
"440 751 LINE",
"370 896 LINE"
);
}
);
width = 600;
}
);
leftKerningGroup = B;
rightKerningGroup = E;
unicode = 00C8;
},
{
glyphname = Eacute;
lastChange = "2014-09-05 18:35:56 +0000";
layers = (
{
background = {
paths = (
{
closed = 1;
nodes = (
"113 686 LINE",
"16 0 LINE",
"531 0 LINE",
"531 164 LINE",
"245 164 LINE",
"261 275 LINE",
"539 275 LINE",
"560 428 LINE",
"282 428 LINE",
"297 528 LINE",
"586 528 LINE",
"628 686 LINE"
);
},
{
closed = 1;
nodes = (
"420 895 LINE",
"308 750 LINE",
"426 750 LINE",
"572 892 LINE",
"571 895 LINE"
);
}
);
};
layerId = UUID0;
paths = (
{
closed = 1;
nodes = (
"113 686 LINE",
"16 0 LINE",
"531 0 LINE",
"531 164 LINE",
"245 164 LINE",
"261 275 LINE",
"539 275 LINE",
"560 428 LINE",
"282 428 LINE",
"297 528 LINE",
"586 528 LINE",
"628 686 LINE"
);
},
{
closed = 1;
nodes = (
"420 895 LINE",
"308 750 LINE",
"426 750 LINE",
"572 892 LINE",
"571 895 LINE"
);
}
);
width = 600;
}
);
leftKerningGroup = B;
rightKerningGroup = E;
unicode = 00C9;
},
{
glyphname = Ecircumflex;
lastChange = "2014-09-05 18:35:56 +0000";
layers = (
{
background = {
paths = (
{
closed = 1;
nodes = (
"113 686 LINE",
"16 0 LINE",
"531 0 LINE",
"531 164 LINE",
"245 164 LINE",
"261 275 LINE",
"539 275 LINE",
"560 428 LINE",
"282 428 LINE",
"297 528 LINE",
"586 528 LINE",
"628 686 LINE"
);
},
{
closed = 1;
nodes = (
"336 896 LINE",
"176 751 LINE",
"304 751 LINE",
"389 828 LINE",
"452 751 LINE",
"582 751 LINE",
"464 896 LINE"
);
}
);
};
layerId = UUID0;
paths = (
{
closed = 1;
nodes = (
"113 686 LINE",
"16 0 LINE",
"531 0 LINE",
"531 164 LINE",
"245 164 LINE",
"261 275 LINE",
"539 275 LINE",
"560 428 LINE",
"282 428 LINE",
"297 528 LINE",
"586 528 LINE",
"628 686 LINE"
);
},
{
closed = 1;
nodes = (
"336 896 LINE",
"176 751 LINE",
"304 751 LINE",
"389 828 LINE",
"452 751 LINE",
"582 751 LINE",
"464 896 LINE"
);
}
);
width = 600;
}
);
leftKerningGroup = B;
rightKerningGroup = E;
unicode = 00CA;
},
{
glyphname = Edieresis;
lastChange = "2014-09-05 18:35:56 +0000";
layers = (
{
background = {
paths = (
{
closed = 1;
nodes = (
"113 686 LINE",
"16 0 LINE",
"531 0 LINE",
"531 164 LINE",
"245 164 LINE",
"261 275 LINE",
"539 275 LINE",
"560 428 LINE",
"282 428 LINE",
"297 528 LINE",
"586 528 LINE",
"628 686 LINE"
);
},
{
closed = 1;
nodes = (
"204 898 LINE",
"183 751 LINE",
"335 751 LINE",
"356 898 LINE"
);
},
{
closed = 1;
nodes = (
"424 898 LINE",
"403 751 LINE",
"555 751 LINE",
"576 898 LINE"
);
}
);
};
layerId = UUID0;
paths = (
{
closed = 1;
nodes = (
"113 686 LINE",
"16 0 LINE",
"531 0 LINE",
"531 164 LINE",
"245 164 LINE",
"261 275 LINE",
"539 275 LINE",
"560 428 LINE",
"282 428 LINE",
"297 528 LINE",
"586 528 LINE",
"628 686 LINE"
);
},
{
closed = 1;
nodes = (
"204 898 LINE",
"183 751 LINE",
"335 751 LINE",
"356 898 LINE"
);
},
{
closed = 1;
nodes = (
"424 898 LINE",
"403 751 LINE",
"555 751 LINE",
"576 898 LINE"
);
}
);
width = 600;
}
);
leftKerningGroup = B;
rightKerningGroup = E;
unicode = 00CB;
},
{
glyphname = Igrave;
lastChange = "2014-09-05 18:35:56 +0000";
layers = (
{
background = {
paths = (
{
closed = 1;
nodes = (
"92 686 LINE",
"71 539 LINE",
"152 539 LINE",
"97 148 LINE",
"16 148 LINE",
"-5 0 LINE",
"369 0 LINE",
"390 148 LINE",
"309 148 LINE",
"364 539 LINE",
"445 539 LINE",
"466 686 LINE"
);
},
{
closed = 1;
nodes = (
"117 895 LINE",
"114 892 LINE",
"220 750 LINE",
"338 750 LINE",
"268 895 LINE"
);
}
);
};
layerId = UUID0;
paths = (
{
closed = 1;
nodes = (
"92 686 LINE",
"71 539 LINE",
"152 539 LINE",
"97 148 LINE",
"16 148 LINE",
"-5 0 LINE",
"369 0 LINE",
"390 148 LINE",
"309 148 LINE",
"364 539 LINE",
"445 539 LINE",
"466 686 LINE"
);
},
{
closed = 1;
nodes = (
"117 895 LINE",
"114 892 LINE",
"220 750 LINE",
"338 750 LINE",
"268 895 LINE"
);
}
);
width = 446;
}
);
leftKerningGroup = I;
rightKerningGroup = I;
unicode = 00CC;
},
{
glyphname = Iacute;
lastChange = "2014-09-05 18:35:56 +0000";
layers = (
{
background = {
paths = (
{
closed = 1;
nodes = (
"92 686 LINE",
"71 539 LINE",
"152 539 LINE",
"97 148 LINE",
"16 148 LINE",
"-5 0 LINE",
"369 0 LINE",
"390 148 LINE",
"309 148 LINE",
"364 539 LINE",
"445 539 LINE",
"466 686 LINE"
);
},
{
closed = 1;
nodes = (
"336 895 LINE",
"224 750 LINE",
"342 750 LINE",
"488 892 LINE",
"487 895 LINE"
);
}
);
};
layerId = UUID0;
paths = (
{
closed = 1;
nodes = (
"92 686 LINE",
"71 539 LINE",
"152 539 LINE",
"97 148 LINE",
"16 148 LINE",
"-5 0 LINE",
"369 0 LINE",
"390 148 LINE",
"309 148 LINE",
"364 539 LINE",
"445 539 LINE",
"466 686 LINE"
);
},
{
closed = 1;
nodes = (
"336 895 LINE",
"224 750 LINE",
"342 750 LINE",
"488 892 LINE",
"487 895 LINE"
);
}
);
width = 446;
}
);
leftKerningGroup = I;
rightKerningGroup = I;
unicode = 00CD;
},
{
glyphname = Icircumflex;
lastChange = "2014-09-05 18:35:56 +0000";
layers = (
{
background = {
paths = (
{
closed = 1;
nodes = (
"92 686 LINE",
"71 539 LINE",
"152 539 LINE",
"97 148 LINE",
"16 148 LINE",
"-5 0 LINE",
"369 0 LINE",
"390 148 LINE",
"309 148 LINE",
"364 539 LINE",
"445 539 LINE",
"466 686 LINE"
);
},
{
closed = 1;
nodes = (
"241 895 LINE",
"81 750 LINE",
"209 750 LINE",
"294 827 LINE",
"357 750 LINE",
"487 750 LINE",
"369 895 LINE"
);
}
);
};
layerId = UUID0;
paths = (
{
closed = 1;
nodes = (
"92 686 LINE",
"71 539 LINE",
"152 539 LINE",
"97 148 LINE",
"16 148 LINE",
"-5 0 LINE",
"369 0 LINE",
"390 148 LINE",
"309 148 LINE",
"364 539 LINE",
"445 539 LINE",
"466 686 LINE"
);
},
{
closed = 1;
nodes = (
"241 895 LINE",
"81 750 LINE",
"209 750 LINE",
"294 827 LINE",
"357 750 LINE",
"487 750 LINE",
"369 895 LINE"
);
}
);
width = 446;
}
);
leftKerningGroup = I;
rightKerningGroup = I;
unicode = 00CE;
},
{
glyphname = Idieresis;
lastChange = "2014-09-05 18:35:56 +0000";
layers = (
{
background = {
paths = (
{
closed = 1;
nodes = (
"92 686 LINE",
"71 539 LINE",
"152 539 LINE",
"97 148 LINE",
"16 148 LINE",
"-5 0 LINE",
"369 0 LINE",
"390 148 LINE",
"309 148 LINE",
"364 539 LINE",
"445 539 LINE",
"466 686 LINE"
);
},
{
closed = 1;
nodes = (
"119 897 LINE",
"98 750 LINE",
"250 750 LINE",
"271 897 LINE"
);
},
{
closed = 1;
nodes = (
"339 897 LINE",
"318 750 LINE",
"470 750 LINE",
"491 897 LINE"
);
}
);
};
layerId = UUID0;
paths = (
{
closed = 1;
nodes = (
"92 686 LINE",
"71 539 LINE",
"152 539 LINE",
"97 148 LINE",
"16 148 LINE",
"-5 0 LINE",
"369 0 LINE",
"390 148 LINE",
"309 148 LINE",
"364 539 LINE",
"445 539 LINE",
"466 686 LINE"
);
},
{
closed = 1;
nodes = (
"119 897 LINE",
"98 750 LINE",
"250 750 LINE",
"271 897 LINE"
);
},
{
closed = 1;
nodes = (
"339 897 LINE",
"318 750 LINE",
"470 750 LINE",
"491 897 LINE"
);
}
);
width = 446;
}
);
leftKerningGroup = I;
rightKerningGroup = I;
unicode = 00CF;
},
{
glyphname = Eth;
lastChange = "2014-09-05 18:35:56 +0000";
layers = (
{
background = {
paths = (
{
closed = 1;
nodes = (
"134 686 LINE",
"92 391 LINE",
"18 391 LINE",
"5 297 LINE",
"79 297 LINE",
"37 0 LINE",
"346 0 LINE SMOOTH",
"541 0 OFFCURVE",
"663 134 OFFCURVE",
"688 300 CURVE SMOOTH",
"701 386 LINE SMOOTH",
"703 400 OFFCURVE",
"704 414 OFFCURVE",
"704 428 CURVE SMOOTH",
"704 574 OFFCURVE",
"595 686 OFFCURVE",
"443 686 CURVE SMOOTH"
);
},
{
closed = 1;
nodes = (
"452 530 OFFCURVE",
"488 492 OFFCURVE",
"488 443 CURVE",
"463 259 LINE SMOOTH",
"455 203 OFFCURVE",
"417 159 OFFCURVE",
"349 159 CURVE SMOOTH",
"272 159 LINE",
"291 297 LINE",
"368 297 LINE",
"381 391 LINE",
"304 391 LINE",
"324 530 LINE",
"401 530 LINE SMOOTH"
);
}
);
};
layerId = UUID0;
paths = (
{
closed = 1;
nodes = (
"134 686 LINE",
"92 391 LINE",
"18 391 LINE",
"5 297 LINE",
"79 297 LINE",
"37 0 LINE",
"346 0 LINE SMOOTH",
"541 0 OFFCURVE",
"663 134 OFFCURVE",
"688 300 CURVE SMOOTH",
"701 386 LINE SMOOTH",
"703 400 OFFCURVE",
"704 414 OFFCURVE",
"704 428 CURVE SMOOTH",
"704 574 OFFCURVE",
"595 686 OFFCURVE",
"443 686 CURVE SMOOTH"
);
},
{
closed = 1;
nodes = (
"452 530 OFFCURVE",
"488 492 OFFCURVE",
"488 443 CURVE",
"463 259 LINE SMOOTH",
"455 203 OFFCURVE",
"417 159 OFFCURVE",
"349 159 CURVE SMOOTH",
"272 159 LINE",
"291 297 LINE",
"368 297 LINE",
"381 391 LINE",
"304 391 LINE",
"324 530 LINE",
"401 530 LINE SMOOTH"
);
}
);
width = 718;
}
);
leftKerningGroup = B;
rightKerningGroup = D;
unicode = 00D0;
},
{
glyphname = Ntilde;
lastChange = "2014-09-05 18:35:56 +0000";
layers = (
{
background = {
paths = (
{
closed = 1;
nodes = (
"501 686 LINE",
"457 375 LINE",
"429 431 LINE",
"289 686 LINE",
"113 686 LINE",
"16 0 LINE",
"209 0 LINE",
"252 304 LINE",
"265 278 LINE SMOOTH",
"271 265 OFFCURVE",
"279 250 OFFCURVE",
"282 246 CURVE SMOOTH",
"418 0 LINE",
"598 0 LINE",
"695 686 LINE"
);
},
{
closed = 1;
nodes = (
"576 889 LINE",
"565 866 OFFCURVE",
"545 849 OFFCURVE",
"520 849 CURVE SMOOTH",
"466 849 OFFCURVE",
"417 889 OFFCURVE",
"353 889 CURVE SMOOTH",
"268 889 OFFCURVE",
"204 818 OFFCURVE",
"193 746 CURVE",
"273 746 LINE",
"284 769 OFFCURVE",
"304 786 OFFCURVE",
"329 786 CURVE SMOOTH",
"382 786 OFFCURVE",
"432 746 OFFCURVE",
"496 746 CURVE SMOOTH",
"583 746 OFFCURVE",
"646 817 OFFCURVE",
"657 889 CURVE"
);
}
);
};
layerId = UUID0;
paths = (
{
closed = 1;
nodes = (
"501 686 LINE",
"457 375 LINE",
"429 431 LINE",
"289 686 LINE",
"113 686 LINE",
"16 0 LINE",
"209 0 LINE",
"252 304 LINE",
"265 278 LINE SMOOTH",
"271 265 OFFCURVE",
"279 250 OFFCURVE",
"282 246 CURVE SMOOTH",
"418 0 LINE",
"598 0 LINE",
"695 686 LINE"
);
},
{
closed = 1;
nodes = (
"576 889 LINE",
"565 866 OFFCURVE",
"545 849 OFFCURVE",
"520 849 CURVE SMOOTH",
"466 849 OFFCURVE",
"417 889 OFFCURVE",
"353 889 CURVE SMOOTH",
"268 889 OFFCURVE",
"204 818 OFFCURVE",
"193 746 CURVE",
"273 746 LINE",
"284 769 OFFCURVE",
"304 786 OFFCURVE",
"329 786 CURVE SMOOTH",
"382 786 OFFCURVE",
"432 746 OFFCURVE",
"496 746 CURVE SMOOTH",
"583 746 OFFCURVE",
"646 817 OFFCURVE",
"657 889 CURVE"
);
}
);
width = 696;
}
);
leftKerningGroup = B;
rightKerningGroup = H;
unicode = 00D1;
},
{
glyphname = Ograve;
lastChange = "2014-09-05 18:35:56 +0000";
layers = (
{
background = {
paths = (
{
closed = 1;
nodes = (
"388 694 LINE SMOOTH",
"202 694 OFFCURVE",
"69 560 OFFCURVE",
"46 394 CURVE SMOOTH",
"29 276 OFFCURVE",
"28 277 OFFCURVE",
"28 248 CURVE SMOOTH",
"28 102 OFFCURVE",
"137 -10 OFFCURVE",
"289 -10 CURVE SMOOTH",
"345 -10 LINE SMOOTH",
"532 -10 OFFCURVE",
"663 124 OFFCURVE",
"687 290 CURVE",
"703 408 OFFCURVE",
"705 402 OFFCURVE",
"705 436 CURVE SMOOTH",
"705 582 OFFCURVE",
"596 694 OFFCURVE",
"444 694 CURVE SMOOTH"
);
},
{
closed = 1;
nodes = (
"448 540 OFFCURVE",
"484 502 OFFCURVE",
"484 454 CURVE SMOOTH",
"484 448 OFFCURVE",
"484 443 OFFCURVE",
"483 440 CURVE",
"456 247 LINE SMOOTH",
"448 191 OFFCURVE",
"410 147 OFFCURVE",
"342 147 CURVE SMOOTH",
"337 147 LINE SMOOTH",
"286 147 OFFCURVE",
"250 184 OFFCURVE",
"250 233 CURVE SMOOTH",
"250 240 LINE SMOOTH",
"250 242 OFFCURVE",
"250 244 OFFCURVE",
"251 247 CURVE",
"278 440 LINE SMOOTH",
"286 496 OFFCURVE",
"324 540 OFFCURVE",
"392 540 CURVE SMOOTH",
"397 540 LINE SMOOTH"
);
},
{
closed = 1;
nodes = (
"254 895 LINE",
"251 892 LINE",
"357 750 LINE",
"475 750 LINE",
"405 895 LINE"
);
}
);
};
layerId = UUID0;
paths = (
{
closed = 1;
nodes = (
"388 694 LINE SMOOTH",
"202 694 OFFCURVE",
"69 560 OFFCURVE",
"46 394 CURVE SMOOTH",
"29 276 OFFCURVE",
"28 277 OFFCURVE",
"28 248 CURVE SMOOTH",
"28 102 OFFCURVE",
"137 -10 OFFCURVE",
"289 -10 CURVE SMOOTH",
"345 -10 LINE SMOOTH",
"532 -10 OFFCURVE",
"663 124 OFFCURVE",
"687 290 CURVE",
"703 408 OFFCURVE",
"705 402 OFFCURVE",
"705 436 CURVE SMOOTH",
"705 582 OFFCURVE",
"596 694 OFFCURVE",
"444 694 CURVE SMOOTH"
);
},
{
closed = 1;
nodes = (
"448 540 OFFCURVE",
"484 502 OFFCURVE",
"484 454 CURVE SMOOTH",
"484 448 OFFCURVE",
"484 443 OFFCURVE",
"483 440 CURVE",
"456 247 LINE SMOOTH",
"448 191 OFFCURVE",
"410 147 OFFCURVE",
"342 147 CURVE SMOOTH",
"337 147 LINE SMOOTH",
"286 147 OFFCURVE",
"250 184 OFFCURVE",
"250 233 CURVE SMOOTH",
"250 240 LINE SMOOTH",
"250 242 OFFCURVE",
"250 244 OFFCURVE",
"251 247 CURVE",
"278 440 LINE SMOOTH",
"286 496 OFFCURVE",
"324 540 OFFCURVE",
"392 540 CURVE SMOOTH",
"397 540 LINE SMOOTH"
);
},
{
closed = 1;
nodes = (
"254 895 LINE",
"251 892 LINE",
"357 750 LINE",
"475 750 LINE",
"405 895 LINE"
);
}
);
width = 719;
}
);
leftKerningGroup = C;
rightKerningGroup = O;
unicode = 00D2;
},
{
glyphname = Oacute;
lastChange = "2014-09-05 18:35:56 +0000";
layers = (
{
background = {
paths = (
{
closed = 1;
nodes = (
"388 694 LINE SMOOTH",
"202 694 OFFCURVE",
"69 560 OFFCURVE",
"46 394 CURVE SMOOTH",
"29 276 OFFCURVE",
"28 277 OFFCURVE",
"28 248 CURVE SMOOTH",
"28 102 OFFCURVE",
"137 -10 OFFCURVE",
"289 -10 CURVE SMOOTH",
"345 -10 LINE SMOOTH",
"532 -10 OFFCURVE",
"663 124 OFFCURVE",
"687 290 CURVE",
"703 408 OFFCURVE",
"705 402 OFFCURVE",
"705 436 CURVE SMOOTH",
"705 582 OFFCURVE",
"596 694 OFFCURVE",
"444 694 CURVE SMOOTH"
);
},
{
closed = 1;
nodes = (
"448 540 OFFCURVE",
"484 502 OFFCURVE",
"484 454 CURVE SMOOTH",
"484 448 OFFCURVE",
"484 443 OFFCURVE",
"483 440 CURVE",
"456 247 LINE SMOOTH",
"448 191 OFFCURVE",
"410 147 OFFCURVE",
"342 147 CURVE SMOOTH",
"337 147 LINE SMOOTH",
"286 147 OFFCURVE",
"250 184 OFFCURVE",
"250 233 CURVE SMOOTH",
"250 240 LINE SMOOTH",
"250 242 OFFCURVE",
"250 244 OFFCURVE",
"251 247 CURVE",
"278 440 LINE SMOOTH",
"286 496 OFFCURVE",
"324 540 OFFCURVE",
"392 540 CURVE SMOOTH",
"397 540 LINE SMOOTH"
);
},
{
closed = 1;
nodes = (
"482 895 LINE",
"370 750 LINE",
"488 750 LINE",
"634 892 LINE",
"633 895 LINE"
);
}
);
};
layerId = UUID0;
paths = (
{
closed = 1;
nodes = (
"388 694 LINE SMOOTH",
"202 694 OFFCURVE",
"69 560 OFFCURVE",
"46 394 CURVE SMOOTH",
"29 276 OFFCURVE",
"28 277 OFFCURVE",
"28 248 CURVE SMOOTH",
"28 102 OFFCURVE",
"137 -10 OFFCURVE",
"289 -10 CURVE SMOOTH",
"345 -10 LINE SMOOTH",
"532 -10 OFFCURVE",
"663 124 OFFCURVE",
"687 290 CURVE",
"703 408 OFFCURVE",
"705 402 OFFCURVE",
"705 436 CURVE SMOOTH",
"705 582 OFFCURVE",
"596 694 OFFCURVE",
"444 694 CURVE SMOOTH"
);
},
{
closed = 1;
nodes = (
"448 540 OFFCURVE",
"484 502 OFFCURVE",
"484 454 CURVE SMOOTH",
"484 448 OFFCURVE",
"484 443 OFFCURVE",
"483 440 CURVE",
"456 247 LINE SMOOTH",
"448 191 OFFCURVE",
"410 147 OFFCURVE",
"342 147 CURVE SMOOTH",
"337 147 LINE SMOOTH",
"286 147 OFFCURVE",
"250 184 OFFCURVE",
"250 233 CURVE SMOOTH",
"250 240 LINE SMOOTH",
"250 242 OFFCURVE",
"250 244 OFFCURVE",
"251 247 CURVE",
"278 440 LINE SMOOTH",
"286 496 OFFCURVE",
"324 540 OFFCURVE",
"392 540 CURVE SMOOTH",
"397 540 LINE SMOOTH"
);
},
{
closed = 1;
nodes = (
"482 895 LINE",
"370 750 LINE",
"488 750 LINE",
"634 892 LINE",
"633 895 LINE"
);
}
);
width = 719;
}
);
leftKerningGroup = C;
rightKerningGroup = O;
unicode = 00D3;
},
{
glyphname = Ocircumflex;
lastChange = "2014-09-05 18:35:56 +0000";
layers = (
{
background = {
paths = (
{
closed = 1;
nodes = (
"388 694 LINE SMOOTH",
"202 694 OFFCURVE",
"69 560 OFFCURVE",
"46 394 CURVE SMOOTH",
"29 276 OFFCURVE",
"28 277 OFFCURVE",
"28 248 CURVE SMOOTH",
"28 102 OFFCURVE",
"137 -10 OFFCURVE",
"289 -10 CURVE SMOOTH",
"345 -10 LINE SMOOTH",
"532 -10 OFFCURVE",
"663 124 OFFCURVE",
"687 290 CURVE",
"703 408 OFFCURVE",
"705 402 OFFCURVE",
"705 436 CURVE SMOOTH",
"705 582 OFFCURVE",
"596 694 OFFCURVE",
"444 694 CURVE SMOOTH"
);
},
{
closed = 1;
nodes = (
"448 540 OFFCURVE",
"484 502 OFFCURVE",
"484 454 CURVE SMOOTH",
"484 448 OFFCURVE",
"484 443 OFFCURVE",
"483 440 CURVE",
"456 247 LINE SMOOTH",
"448 191 OFFCURVE",
"410 147 OFFCURVE",
"342 147 CURVE SMOOTH",
"337 147 LINE SMOOTH",
"286 147 OFFCURVE",
"250 184 OFFCURVE",
"250 233 CURVE SMOOTH",
"250 240 LINE SMOOTH",
"250 242 OFFCURVE",
"250 244 OFFCURVE",
"251 247 CURVE",
"278 440 LINE SMOOTH",
"286 496 OFFCURVE",
"324 540 OFFCURVE",
"392 540 CURVE SMOOTH",
"397 540 LINE SMOOTH"
);
},
{
closed = 1;
nodes = (
"382 895 LINE",
"222 750 LINE",
"350 750 LINE",
"435 827 LINE",
"498 750 LINE",
"628 750 LINE",
"510 895 LINE"
);
}
);
};
layerId = UUID0;
paths = (
{
closed = 1;
nodes = (
"388 694 LINE SMOOTH",
"202 694 OFFCURVE",
"69 560 OFFCURVE",
"46 394 CURVE SMOOTH",
"29 276 OFFCURVE",
"28 277 OFFCURVE",
"28 248 CURVE SMOOTH",
"28 102 OFFCURVE",
"137 -10 OFFCURVE",
"289 -10 CURVE SMOOTH",
"345 -10 LINE SMOOTH",
"532 -10 OFFCURVE",
"663 124 OFFCURVE",
"687 290 CURVE",
"703 408 OFFCURVE",
"705 402 OFFCURVE",
"705 436 CURVE SMOOTH",
"705 582 OFFCURVE",
"596 694 OFFCURVE",
"444 694 CURVE SMOOTH"
);
},
{
closed = 1;
nodes = (
"448 540 OFFCURVE",
"484 502 OFFCURVE",
"484 454 CURVE SMOOTH",
"484 448 OFFCURVE",
"484 443 OFFCURVE",
"483 440 CURVE",
"456 247 LINE SMOOTH",
"448 191 OFFCURVE",
"410 147 OFFCURVE",
"342 147 CURVE SMOOTH",
"337 147 LINE SMOOTH",
"286 147 OFFCURVE",
"250 184 OFFCURVE",
"250 233 CURVE SMOOTH",
"250 240 LINE SMOOTH",
"250 242 OFFCURVE",
"250 244 OFFCURVE",
"251 247 CURVE",
"278 440 LINE SMOOTH",
"286 496 OFFCURVE",
"324 540 OFFCURVE",
"392 540 CURVE SMOOTH",
"397 540 LINE SMOOTH"
);
},
{
closed = 1;
nodes = (
"382 895 LINE",
"222 750 LINE",
"350 750 LINE",
"435 827 LINE",
"498 750 LINE",
"628 750 LINE",
"510 895 LINE"
);
}
);
width = 719;
}
);
leftKerningGroup = C;
rightKerningGroup = O;
unicode = 00D4;
},
{
glyphname = Otilde;
lastChange = "2014-09-05 18:35:56 +0000";
layers = (
{
background = {
paths = (
{
closed = 1;
nodes = (
"388 694 LINE SMOOTH",
"202 694 OFFCURVE",
"69 560 OFFCURVE",
"46 394 CURVE SMOOTH",
"29 276 OFFCURVE",
"28 277 OFFCURVE",
"28 248 CURVE SMOOTH",
"28 102 OFFCURVE",
"137 -10 OFFCURVE",
"289 -10 CURVE SMOOTH",
"345 -10 LINE SMOOTH",
"532 -10 OFFCURVE",
"663 124 OFFCURVE",
"687 290 CURVE",
"703 408 OFFCURVE",
"705 402 OFFCURVE",
"705 436 CURVE SMOOTH",
"705 582 OFFCURVE",
"596 694 OFFCURVE",
"444 694 CURVE SMOOTH"
);
},
{
closed = 1;
nodes = (
"448 540 OFFCURVE",
"484 502 OFFCURVE",
"484 454 CURVE SMOOTH",
"484 448 OFFCURVE",
"484 443 OFFCURVE",
"483 440 CURVE",
"456 247 LINE SMOOTH",
"448 191 OFFCURVE",
"410 147 OFFCURVE",
"342 147 CURVE SMOOTH",
"337 147 LINE SMOOTH",
"286 147 OFFCURVE",
"250 184 OFFCURVE",
"250 233 CURVE SMOOTH",
"250 240 LINE SMOOTH",
"250 242 OFFCURVE",
"250 244 OFFCURVE",
"251 247 CURVE",
"278 440 LINE SMOOTH",
"286 496 OFFCURVE",
"324 540 OFFCURVE",
"392 540 CURVE SMOOTH",
"397 540 LINE SMOOTH"
);
},
{
closed = 1;
nodes = (
"593 888 LINE",
"582 865 OFFCURVE",
"562 848 OFFCURVE",
"537 848 CURVE SMOOTH",
"483 848 OFFCURVE",
"434 888 OFFCURVE",
"370 888 CURVE SMOOTH",
"285 888 OFFCURVE",
"221 817 OFFCURVE",
"210 745 CURVE",
"290 745 LINE",
"301 768 OFFCURVE",
"321 785 OFFCURVE",
"346 785 CURVE SMOOTH",
"399 785 OFFCURVE",
"449 745 OFFCURVE",
"513 745 CURVE SMOOTH",
"600 745 OFFCURVE",
"663 816 OFFCURVE",
"674 888 CURVE"
);
}
);
};
layerId = UUID0;
paths = (
{
closed = 1;
nodes = (
"388 694 LINE SMOOTH",
"202 694 OFFCURVE",
"69 560 OFFCURVE",
"46 394 CURVE SMOOTH",
"29 276 OFFCURVE",
"28 277 OFFCURVE",
"28 248 CURVE SMOOTH",
"28 102 OFFCURVE",
"137 -10 OFFCURVE",
"289 -10 CURVE SMOOTH",
"345 -10 LINE SMOOTH",
"532 -10 OFFCURVE",
"663 124 OFFCURVE",
"687 290 CURVE",
"703 408 OFFCURVE",
"705 402 OFFCURVE",
"705 436 CURVE SMOOTH",
"705 582 OFFCURVE",
"596 694 OFFCURVE",
"444 694 CURVE SMOOTH"
);
},
{
closed = 1;
nodes = (
"448 540 OFFCURVE",
"484 502 OFFCURVE",
"484 454 CURVE SMOOTH",
"484 448 OFFCURVE",
"484 443 OFFCURVE",
"483 440 CURVE",
"456 247 LINE SMOOTH",
"448 191 OFFCURVE",
"410 147 OFFCURVE",
"342 147 CURVE SMOOTH",
"337 147 LINE SMOOTH",
"286 147 OFFCURVE",
"250 184 OFFCURVE",
"250 233 CURVE SMOOTH",
"250 240 LINE SMOOTH",
"250 242 OFFCURVE",
"250 244 OFFCURVE",
"251 247 CURVE",
"278 440 LINE SMOOTH",
"286 496 OFFCURVE",
"324 540 OFFCURVE",
"392 540 CURVE SMOOTH",
"397 540 LINE SMOOTH"
);
},
{
closed = 1;
nodes = (
"593 888 LINE",
"582 865 OFFCURVE",
"562 848 OFFCURVE",
"537 848 CURVE SMOOTH",
"483 848 OFFCURVE",
"434 888 OFFCURVE",
"370 888 CURVE SMOOTH",
"285 888 OFFCURVE",
"221 817 OFFCURVE",
"210 745 CURVE",
"290 745 LINE",
"301 768 OFFCURVE",
"321 785 OFFCURVE",
"346 785 CURVE SMOOTH",
"399 785 OFFCURVE",
"449 745 OFFCURVE",
"513 745 CURVE SMOOTH",
"600 745 OFFCURVE",
"663 816 OFFCURVE",
"674 888 CURVE"
);
}
);
width = 719;
}
);
leftKerningGroup = C;
rightKerningGroup = O;
unicode = 00D5;
},
